STARTFONT 2.1
FONT -baekmuk-gulim-bold-r-normal--24-240-75-75-m-240-ksx1001.1997-0
SIZE 24 75 75
FONTBOUNDINGBOX 24 24 0 -5
STARTPROPERTIES 18
FOUNDRY "baekmuk"
FAMILY_NAME "gulim"
WEIGHT_NAME "bold"
SLANT "r"
SETWIDTH_NAME "normal"
ADD_STYLE_NAME ""
PIXEL_SIZE 24
POINT_SIZE 240
RESOLUTION_X 75
RESOLUTION_Y 75
SPACING "m"
AVERAGE_WIDTH 240
CHARSET_REGISTRY "ksx1001.1997"
CHARSET_ENCODING "0"
DEFAULT_CHAR 8481
FONT_ASCENT 19
FONT_DESCENT 5
COPYRIGHT "(c)Hwan Design Inc. and Mizi Research Inc."
ENDPROPERTIES
CHARS 8736
STARTCHAR C020440
ENCODING 8480
SWIDTH 2400 0
DWIDTH 24 0
BBX 0 0 0 0
BITMAP
ENDCHAR
STARTCHAR C020441
ENCODING 8481
SWIDTH 2400 0
DWIDTH 24 0
BBX 0 0 0 0
BITMAP
ENDCHAR
STARTCHAR C020442
ENCODING 8482
SWIDTH 2400 0
DWIDTH 24 0
BBX 5 4 16 14
BITMAP
C0
70
78
38
ENDCHAR
STARTCHAR C020443
ENCODING 8483
SWIDTH 2400 0
DWIDTH 24 0
BBX 6 5 15 14
BITMAP
78
CC
CC
CC
78
ENDCHAR
STARTCHAR C020444
ENCODING 8484
SWIDTH 2400 0
DWIDTH 24 0
BBX 4 4 10 5
BITMAP
F0
F0
F0
70
ENDCHAR
STARTCHAR C020445
ENCODING 8485
SWIDTH 2400 0
DWIDTH 24 0
BBX 14 3 5 6
BITMAP
6018
F03C
703C
ENDCHAR
STARTCHAR C020446
ENCODING 8486
SWIDTH 2400 0
DWIDTH 24 0
BBX 16 2 4 6
BITMAP
E1C7
E1C7
ENDCHAR
STARTCHAR C020447
ENCODING 8487
SWIDTH 2400 0
DWIDTH 24 0
BBX 9 1 8 13
BITMAP
E380
ENDCHAR
STARTCHAR C020450
ENCODING 8488
SWIDTH 2400 0
DWIDTH 24 0
BBX 7 9 9 3
BITMAP
7E
7E
7E
6C
6C
6C
D8
D8
30
ENDCHAR
STARTCHAR C020451
ENCODING 8489
SWIDTH 2400 0
DWIDTH 24 0
BBX 12 1 6 7
BITMAP
FFF0
ENDCHAR
STARTCHAR C020452
ENCODING 8490
SWIDTH 2400 0
DWIDTH 24 0
BBX 21 1 2 7
BITMAP
FFFFF8
ENDCHAR
STARTCHAR C020453
ENCODING 8491
SWIDTH 2400 0
DWIDTH 24 0
BBX 7 17 9 0
BITMAP
EE
EE
EE
EE
EE
EE
EE
EE
EE
EE
EE
EE
EE
EE
EE
EE
EE
ENDCHAR
STARTCHAR C020454
ENCODING 8492
SWIDTH 2400 0
DWIDTH 24 0
BBX 19 19 2 -2
BITMAP
E00000
700000
380000
1C0000
0E0000
070000
030000
018000
00C000
00E000
007000
003800
001C00
000E00
000700
000380
0001C0
0000C0
000060
ENDCHAR
STARTCHAR C020455
ENCODING 8493
SWIDTH 2400 0
DWIDTH 24 0
BBX 14 4 5 5
BITMAP
3E00
7F0C
C3F8
01F0
ENDCHAR
STARTCHAR C020456
ENCODING 8494
SWIDTH 2400 0
DWIDTH 24 0
BBX 4 6 15 13
BITMAP
30
60
60
E0
F0
70
ENDCHAR
STARTCHAR C020457
ENCODING 8495
SWIDTH 2400 0
DWIDTH 24 0
BBX 4 5 5 14
BITMAP
70
F0
70
30
60
ENDCHAR
STARTCHAR C020460
ENCODING 8496
SWIDTH 2400 0
DWIDTH 24 0
BBX 8 6 13 13
BITMAP
30
67
66
E6
F7
67
ENDCHAR
STARTCHAR C020461
ENCODING 8497
SWIDTH 2400 0
DWIDTH 24 0
BBX 8 4 3 13
BITMAP
F7
33
66
C6
ENDCHAR
STARTCHAR C020462
ENCODING 8498
SWIDTH 2400 0
DWIDTH 24 0
BBX 5 23 17 -4
BITMAP
18
F8
E0
C0
C0
C0
C0
C0
C0
C0
C0
C0
C0
C0
C0
C0
C0
C0
C0
C0
C0
F0
38
ENDCHAR
STARTCHAR C020463
ENCODING 8499
SWIDTH 2400 0
DWIDTH 24 0
BBX 6 23 2 -4
BITMAP
C0
F8
3C
1C
1C
1C
1C
1C
1C
1C
1C
1C
1C
1C
1C
1C
1C
1C
1C
1C
1C
7C
F0
ENDCHAR
STARTCHAR C020464
ENCODING 8500
SWIDTH 2400 0
DWIDTH 24 0
BBX 9 20 13 -3
BITMAP
0180
0300
0600
0E00
0C00
1800
3800
3000
6000
E000
6000
7000
3000
1800
1C00
0C00
0600
0700
0300
0180
ENDCHAR
STARTCHAR C020465
ENCODING 8501
SWIDTH 2400 0
DWIDTH 24 0
BBX 9 20 2 -3
BITMAP
6000
7000
3000
1800
1C00
0C00
0600
0700
0300
0180
0180
0300
0600
0600
0C00
1800
3800
3000
6000
E000
ENDCHAR
STARTCHAR C020466
ENCODING 8502
SWIDTH 2400 0
DWIDTH 24 0
BBX 10 21 12 -3
BITMAP
06C0
06C0
0F80
0D80
1F00
1B00
3E00
3600
7C00
6C00
F800
FC00
6C00
7E00
3600
3F00
1B00
0F80
0D80
07C0
06C0
ENDCHAR
STARTCHAR C020467
ENCODING 8503
SWIDTH 2400 0
DWIDTH 24 0
BBX 10 21 2 -3
BITMAP
1800
FC00
6C00
7E00
3600
3F00
1B00
1F80
0D80
0FC0
06C0
06C0
0F80
0D80
1F00
1B00
3E00
3E00
7C00
7C00
D800
ENDCHAR
STARTCHAR C020470
ENCODING 8504
SWIDTH 2400 0
DWIDTH 24 0
BBX 9 11 15 8
BITMAP
FF80
C000
C000
C000
C000
C000
C000
C000
C000
C000
C000
ENDCHAR
STARTCHAR C020471
ENCODING 8505
SWIDTH 2400 0
DWIDTH 24 0
BBX 9 11 1 -4
BITMAP
0380
0380
0380
0380
0380
0380
0380
0380
0380
0380
FF80
ENDCHAR
STARTCHAR C020472
ENCODING 8506
SWIDTH 2400 0
DWIDTH 24 0
BBX 9 11 15 8
BITMAP
FF00
C180
C180
FF00
F000
F000
F000
F000
F000
F000
F000
ENDCHAR
STARTCHAR C020473
ENCODING 8507
SWIDTH 2400 0
DWIDTH 24 0
BBX 8 12 1 -5
BITMAP
06
0F
0F
0F
0F
0F
0F
0F
FF
C3
C3
7E
ENDCHAR
STARTCHAR C020474
ENCODING 8508
SWIDTH 2400 0
DWIDTH 24 0
BBX 6 21 15 -3
BITMAP
F8
F8
F0
F0
F0
F0
E0
E0
E0
E0
E0
E0
E0
E0
E0
F0
F0
F0
F8
F8
FC
ENDCHAR
STARTCHAR C020475
ENCODING 8509
SWIDTH 2400 0
DWIDTH 24 0
BBX 6 21 3 -3
BITMAP
FC
7C
3C
3C
3C
1C
1C
1C
1C
1C
1C
1C
1C
1C
1C
3C
3C
3C
7C
7C
FC
ENDCHAR
STARTCHAR C020476
ENCODING 8510
SWIDTH 2400 0
DWIDTH 24 0
BBX 15 16 5 0
BITMAP
0380
0380
0380
0380
0380
0380
7F80
FFFE
0380
0380
0380
0380
0380
0380
0000
FFFE
ENDCHAR
STARTCHAR C020477
ENCODING 8511
SWIDTH 2400 0
DWIDTH 24 0
BBX 14 14 5 0
BITMAP
E00C
7018
3830
1870
0CE0
07C0
0780
0780
0FC0
0CE0
1870
3038
6018
E00C
ENDCHAR
STARTCHAR C020500
ENCODING 8512
SWIDTH 2400 0
DWIDTH 24 0
BBX 16 14 4 0
BITMAP
01C0
01C0
01C0
0000
0000
0000
FFFF
0000
0000
0000
0000
01C0
01C0
01C0
ENDCHAR
STARTCHAR C020501
ENCODING 8513
SWIDTH 2400 0
DWIDTH 24 0
BBX 17 15 4 0
BITMAP
030000
070000
030000
030000
038000
FFFF80
018000
018000
01C000
FFFF80
00C000
00E000
00E000
006000
006000
ENDCHAR
STARTCHAR C020502
ENCODING 8514
SWIDTH 2400 0
DWIDTH 24 0
BBX 15 14 5 0
BITMAP
001E
007C
01E0
0780
1E00
F000
F000
3E00
07C0
01F0
003E
000E
0000
FFFE
ENDCHAR
STARTCHAR C020503
ENCODING 8515
SWIDTH 2400 0
DWIDTH 24 0
BBX 15 14 5 0
BITMAP
E000
7800
1E00
0780
00F0
003C
007C
01E0
0780
3E00
F800
C000
0000
FFFE
ENDCHAR
STARTCHAR C020504
ENCODING 8516
SWIDTH 2400 0
DWIDTH 24 0
BBX 19 9 3 3
BITMAP
3F0F80
71B9C0
E0F0E0
E0E0E0
E060E0
E0E0E0
E0F0E0
71B9C0
3F0F80
ENDCHAR
STARTCHAR C020505
ENCODING 8517
SWIDTH 2400 0
DWIDTH 24 0
BBX 12 11 6 2
BITMAP
0700
0700
0700
0000
0000
0000
0000
0000
E070
E070
E070
ENDCHAR
STARTCHAR C020506
ENCODING 8518
SWIDTH 2400 0
DWIDTH 24 0
BBX 5 5 3 14
BITMAP
70
D8
D8
D8
F8
ENDCHAR
STARTCHAR C020507
ENCODING 8519
SWIDTH 2400 0
DWIDTH 24 0
BBX 4 6 3 13
BITMAP
30
70
70
60
C0
C0
ENDCHAR
STARTCHAR C020510
ENCODING 8520
SWIDTH 2400 0
DWIDTH 24 0
BBX 9 6 3 13
BITMAP
3B80
7F00
7700
6600
CC00
D800
ENDCHAR
STARTCHAR C020511
ENCODING 8521
SWIDTH 2400 0
DWIDTH 24 0
BBX 16 17 4 0
BITMAP
7000
DBFC
DF9E
FF0F
3E07
1E07
1C07
1C00
1C00
1C00
1C00
1C03
0E03
0E07
0707
03DE
01FC
ENDCHAR
STARTCHAR C020512
ENCODING 8522
SWIDTH 2400 0
DWIDTH 24 0
BBX 13 18 5 0
BITMAP
07C0
06C0
06C0
0380
0300
0380
0780
07C0
0EC0
0CE0
1CE0
1C60
1870
3FF0
3030
7038
6018
E018
ENDCHAR
STARTCHAR C020513
ENCODING 8523
SWIDTH 2400 0
DWIDTH 24 0
BBX 19 19 2 -2
BITMAP
03F860
078EC0
0E0780
1E0300
1C0300
380F80
381800
383800
383000
386000
38C000
398180
1F0380
1E0300
0E0700
1F0E00
33F800
600000
C00000
ENDCHAR
STARTCHAR C020514
ENCODING 8524
SWIDTH 2400 0
DWIDTH 24 0
BBX 15 17 5 0
BITMAP
00E0
07F8
0F1C
0E1C
0C0C
0C0C
0E00
0E00
FFF8
0700
0700
0700
3706
FE06
EF0E
EFFC
F8F8
ENDCHAR
STARTCHAR C020515
ENCODING 8525
SWIDTH 2400 0
DWIDTH 24 0
BBX 17 18 4 0
BITMAP
180C00
180C00
1C1C00
1C1C00
0E3800
FFFF80
7FFF00
077000
03E000
03E000
FFFF80
01C000
01C000
01C000
01C000
01C000
01C000
01C000
ENDCHAR
STARTCHAR C020516
ENCODING 8526
SWIDTH 2400 0
DWIDTH 24 0
BBX 13 21 6 -3
BITMAP
0600
0700
0F80
1F80
1FC0
37E0
7760
6730
C738
0700
0700
0700
0700
1FC0
1FC0
38E0
38E0
38E0
38E0
1DC0
0F80
ENDCHAR
STARTCHAR C020517
ENCODING 8527
SWIDTH 2400 0
DWIDTH 24 0
BBX 15 20 5 -3
BITMAP
0FC0
1CE0
3870
3870
3870
3870
1CE0
0FC0
0380
0380
0380
FFFE
0380
0380
0380
0380
0380
0380
0380
0380
ENDCHAR
STARTCHAR C020520
ENCODING 8528
SWIDTH 2400 0
DWIDTH 24 0
BBX 15 14 4 0
BITMAP
000C
0018
0030
0060
00E0
01C0
0380
0700
0E00
1C00
1800
3000
7000
FFFE
ENDCHAR
STARTCHAR C020521
ENCODING 8529
SWIDTH 2400 0
DWIDTH 24 0
BBX 15 14 5 0
BITMAP
0380
0380
0380
0380
0380
0380
0380
0380
0380
0380
0380
0380
0380
FFFE
ENDCHAR
STARTCHAR C020522
ENCODING 8530
SWIDTH 2400 0
DWIDTH 24 0
BBX 14 4 5 13
BITMAP
1FF0
7838
E01C
C00C
ENDCHAR
STARTCHAR C020523
ENCODING 8531
SWIDTH 2400 0
DWIDTH 24 0
BBX 10 17 7 0
BITMAP
1E00
3F80
7180
61C0
01C0
00C0
00C0
1EC0
3FC0
73C0
E180
C180
C180
C380
C700
FF00
7C00
ENDCHAR
STARTCHAR C020524
ENCODING 8532
SWIDTH 2400 0
DWIDTH 24 0
BBX 17 14 4 0
BITMAP
FFFF80
E00700
700600
300E00
380C00
181C00
1C3800
0C3800
067000
076000
03E000
03C000
01C000
018000
ENDCHAR
STARTCHAR C020525
ENCODING 8533
SWIDTH 2400 0
DWIDTH 24 0
BBX 16 8 4 3
BITMAP
FFFF
0000
0000
FFFF
0000
0000
0000
FFFF
ENDCHAR
STARTCHAR C020526
ENCODING 8534
SWIDTH 2400 0
DWIDTH 24 0
BBX 17 14 4 0
BITMAP
1C0000
1C0000
1C0000
000000
FFFF80
000000
000000
000000
000000
FFFF80
000000
001C00
001C00
001C00
ENDCHAR
STARTCHAR C020527
ENCODING 8535
SWIDTH 2400 0
DWIDTH 24 0
BBX 9 20 8 -3
BITMAP
3E00
6700
E700
E700
F000
7800
3E00
FF00
C780
C380
C380
6380
3F00
0E00
0300
0180
7180
7180
3F80
1F00
ENDCHAR
STARTCHAR C020530
ENCODING 8536
SWIDTH 2400 0
DWIDTH 24 0
BBX 14 15 5 0
BITMAP
C00C
E39C
7398
3BB0
1C60
0EC0
77B8
73B8
77B8
0EC0
1C60
1BB0
33B8
639C
C00C
ENDCHAR
STARTCHAR C020531
ENCODING 8537
SWIDTH 2400 0
DWIDTH 24 0
BBX 20 19 2 -3
BITMAP
006000
006000
007000
00F000
00F000
019800
FF9FF0
7800E0
1C03C0
0E0780
070600
060600
060600
0EF700
0DFB00
0F9F00
1F0F00
1C0780
180180
ENDCHAR
STARTCHAR C020532
ENCODING 8538
SWIDTH 2400 0
DWIDTH 24 0
BBX 16 18 4 -2
BITMAP
0180
0180
01C0
03C0
03C0
03E0
07E0
FFFF
7FFE
3FFC
0FF8
0FF0
1FF8
1FF8
1FF8
3C38
381C
000C
ENDCHAR
STARTCHAR C020533
ENCODING 8539
SWIDTH 2400 0
DWIDTH 24 0
BBX 18 18 3 -2
BITMAP
03F000
0E1C00
380600
300300
700380
600380
E001C0
E001C0
E001C0
E001C0
E001C0
E001C0
600180
700380
300300
380700
1E1C00
07F800
ENDCHAR
STARTCHAR C020534
ENCODING 8540
SWIDTH 2400 0
DWIDTH 24 0
BBX 18 18 3 -2
BITMAP
03F000
0FFC00
1FFE00
3FFF00
7FFF80
7FFF80
FFFF80
FFFFC0
FFFFC0
FFFFC0
FFFFC0
FFFF80
7FFF80
7FFF80
3FFF00
1FFE00
0FFC00
03F000
ENDCHAR
STARTCHAR C020535
ENCODING 8541
SWIDTH 2400 0
DWIDTH 24 0
BBX 18 18 3 -2
BITMAP
03F000
0E1C00
380600
33F300
773B80
6E1F80
FC0FC0
FC0FC0
FC0FC0
FC0FC0
FC0FC0
FC0FC0
6E1D80
773B80
33F300
380700
1E1C00
07F800
ENDCHAR
STARTCHAR C020536
ENCODING 8542
SWIDTH 2400 0
DWIDTH 24 0
BBX 19 20 3 -3
BITMAP
00E000
01E000
033000
061800
0E0C00
1C0600
380300
700180
6001C0
C000E0
C000E0
6001C0
300380
180700
1C0E00
0E1C00
071800
03B000
01E000
00C000
ENDCHAR
STARTCHAR C020537
ENCODING 8543
SWIDTH 2400 0
DWIDTH 24 0
BBX 19 20 3 -3
BITMAP
00C000
01E000
03F000
07F800
07FC00
0FFE00
1FFF00
3FFF80
7FFFC0
FFFFE0
FFFFE0
7FFFC0
3FFF80
1FFF00
1FFE00
0FFC00
07F800
03F000
01E000
00C000
ENDCHAR
STARTCHAR C020540
ENCODING 8544
SWIDTH 2400 0
DWIDTH 24 0
BBX 17 17 4 -1
BITMAP
FFFF80
C00380
C00380
C00380
C00380
C00380
C00380
C00380
C00380
C00380
C00380
C00380
C00380
C00380
C00380
C00380
FFFF80
ENDCHAR
STARTCHAR C020541
ENCODING 8545
SWIDTH 2400 0
DWIDTH 24 0
BBX 17 18 4 -2
BITMAP
FFFF80
FFFF80
FFFF80
FFFF80
FFFF80
FFFF80
FFFF80
FFFF80
FFFF80
FFFF80
FFFF80
FFFF80
FFFF80
FFFF80
FFFF80
FFFF80
FFFF80
FFFF80
ENDCHAR
STARTCHAR C020542
ENCODING 8546
SWIDTH 2400 0
DWIDTH 24 0
BBX 18 15 3 0
BITMAP
00C000
00E000
01E000
01B000
033000
071800
061C00
0E0C00
0C0E00
180600
180300
300300
700180
6001C0
FFFFC0
ENDCHAR
STARTCHAR C020543
ENCODING 8547
SWIDTH 2400 0
DWIDTH 24 0
BBX 18 15 3 0
BITMAP
00C000
00E000
01E000
01F000
03F000
07F800
07FC00
0FFC00
0FFE00
1FFE00
1FFF00
3FFF00
7FFF80
7FFFC0
FFFFC0
ENDCHAR
STARTCHAR C020544
ENCODING 8548
SWIDTH 2400 0
DWIDTH 24 0
BBX 18 15 3 0
BITMAP
FFFFC0
6001C0
700380
380300
180700
1C0600
0C0E00
0E0C00
061C00
073800
03B000
01F000
01E000
00E000
00C000
ENDCHAR
STARTCHAR C020545
ENCODING 8549
SWIDTH 2400 0
DWIDTH 24 0
BBX 18 15 3 0
BITMAP
FFFFC0
7FFFC0
7FFF80
3FFF00
1FFF00
1FFE00
0FFE00
0FFC00
07F800
03F800
03F000
01F000
01E000
00C000
00C000
ENDCHAR
STARTCHAR C020546
ENCODING 8550
SWIDTH 2400 0
DWIDTH 24 0
BBX 20 7 2 3
BITMAP
000380
0001C0
FFFFF0
0001E0
0001C0
000300
000600
ENDCHAR
STARTCHAR C020547
ENCODING 8551
SWIDTH 2400 0
DWIDTH 24 0
BBX 20 7 3 3
BITMAP
1C0000
380000
FFFFF0
780000
380000
0C0000
060000
ENDCHAR
STARTCHAR C020550
ENCODING 8552
SWIDTH 2400 0
DWIDTH 24 0
BBX 8 19 9 -3
BITMAP
18
3C
3C
7E
DB
18
18
18
18
18
18
18
18
18
18
18
18
18
18
ENDCHAR
STARTCHAR C020551
ENCODING 8553
SWIDTH 2400 0
DWIDTH 24 0
BBX 8 18 9 -3
BITMAP
18
18
18
18
18
18
18
18
18
18
18
18
18
DB
7E
3C
3C
18
ENDCHAR
STARTCHAR C020552
ENCODING 8554
SWIDTH 2400 0
DWIDTH 24 0
BBX 18 7 3 4
BITMAP
000600
300300
700380
FFFFC0
700380
300300
180000
ENDCHAR
STARTCHAR C020553
ENCODING 8555
SWIDTH 2400 0
DWIDTH 24 0
BBX 16 5 4 5
BITMAP
FFFF
0000
0000
0000
FFFF
ENDCHAR
STARTCHAR C020554
ENCODING 8556
SWIDTH 2400 0
DWIDTH 24 0
BBX 17 16 4 -1
BITMAP
007380
00E700
01CE00
073800
0E7000
1CE000
738000
E70000
E70000
39C000
1CE000
0F7800
039C00
01CE00
007780
003180
ENDCHAR
STARTCHAR C020555
ENCODING 8557
SWIDTH 2400 0
DWIDTH 24 0
BBX 17 16 3 -1
BITMAP
E70000
7B8000
1DE000
0E7000
07B800
01CE00
00E700
007B80
007380
00E700
039C00
073800
0E7000
39E000
738000
E70000
ENDCHAR
STARTCHAR C020556
ENCODING 8558
SWIDTH 2400 0
DWIDTH 24 0
BBX 20 20 3 -2
BITMAP
003FF0
006000
006000
006000
00C000
00C000
00C000
018000
018000
018000
038000
030000
030000
770000
F60000
360000
3E0000
1C0000
1C0000
1C0000
ENDCHAR
STARTCHAR C020557
ENCODING 8559
SWIDTH 2400 0
DWIDTH 24 0
BBX 18 8 3 3
BITMAP
1F1F00
733380
E061C0
E0C1C0
E181C0
E181C0
737380
3E3F00
ENDCHAR
STARTCHAR C020560
ENCODING 8560
SWIDTH 2400 0
DWIDTH 24 0
BBX 16 8 4 3
BITMAP
3E1F
7333
E1E0
E0C0
E0C0
E1E0
7373
3E1F
ENDCHAR
STARTCHAR C020561
ENCODING 8561
SWIDTH 2400 0
DWIDTH 24 0
BBX 12 11 6 1
BITMAP
E070
E070
E070
0000
0000
0000
0000
0000
0700
0700
0700
ENDCHAR
STARTCHAR C020562
ENCODING 8562
SWIDTH 2400 0
DWIDTH 24 0
BBX 10 18 7 0
BITMAP
0780
07C0
0EC0
0C00
0C00
0C00
0C00
0C00
0C00
0C00
0C00
0C00
0C00
1800
D800
D800
F000
6000
ENDCHAR
STARTCHAR C020563
ENCODING 8563
SWIDTH 2400 0
DWIDTH 24 0
BBX 16 17 4 0
BITMAP
079E
07FF
0EFB
0C30
0C30
0C30
0C30
0C30
0C30
0C30
0C30
0C70
1C70
1C70
DB60
DBE0
F3C0
ENDCHAR
STARTCHAR C020564
ENCODING 8564
SWIDTH 2400 0
DWIDTH 24 0
BBX 17 13 4 1
BITMAP
0FFF80
1C0000
700000
700000
E00000
E00000
FFFF80
E00000
E00000
700000
700000
1C0000
0FFF80
ENDCHAR
STARTCHAR C020565
ENCODING 8565
SWIDTH 2400 0
DWIDTH 24 0
BBX 17 13 4 1
BITMAP
FFF800
001C00
000600
000700
000380
000380
FFFF80
000380
000380
000700
000600
001C00
FFF800
ENDCHAR
STARTCHAR C020566
ENCODING 8566
SWIDTH 2400 0
DWIDTH 24 0
BBX 16 14 5 0
BITMAP
1FFF
3800
7000
E000
E000
E000
E000
F000
7800
1FFF
0000
0000
0000
FFFE
ENDCHAR
STARTCHAR C020567
ENCODING 8567
SWIDTH 2400 0
DWIDTH 24 0
BBX 15 14 5 0
BITMAP
FFF0
0038
001C
000E
000E
000E
000E
001C
0038
FFF0
0000
0000
0000
FFFE
ENDCHAR
STARTCHAR C020570
ENCODING 8568
SWIDTH 2400 0
DWIDTH 24 0
BBX 17 13 4 0
BITMAP
0FFF80
3C0000
700000
700000
E00000
E00000
E00000
E00000
E00000
700000
700000
1E0000
0FFF80
ENDCHAR
STARTCHAR C020571
ENCODING 8569
SWIDTH 2400 0
DWIDTH 24 0
BBX 17 13 4 0
BITMAP
FFF800
000E00
000700
000700
000380
000380
000380
000380
000380
000700
000600
001C00
FFF800
ENDCHAR
STARTCHAR C020572
ENCODING 8570
SWIDTH 2400 0
DWIDTH 24 0
BBX 13 17 6 0
BITMAP
C018
E018
E018
E018
E018
E018
E018
E018
E018
E018
E018
E018
E038
6038
7030
38E0
1FC0
ENDCHAR
STARTCHAR C020573
ENCODING 8571
SWIDTH 2400 0
DWIDTH 24 0
BBX 13 17 6 0
BITMAP
1FC0
38E0
7070
6030
E038
C038
C038
C018
C018
C018
C018
C018
C018
C018
C018
C018
C018
ENDCHAR
STARTCHAR C020574
ENCODING 8572
SWIDTH 2400 0
DWIDTH 24 0
BBX 15 15 5 0
BITMAP
0300
0380
0380
06C0
06C0
0CE0
0C60
1870
1830
3038
3018
601C
600C
C00E
C006
ENDCHAR
STARTCHAR C020575
ENCODING 8573
SWIDTH 2400 0
DWIDTH 24 0
BBX 15 15 5 0
BITMAP
C000
C00E
E00C
601C
7018
3038
3830
1870
1C60
0C60
0EC0
06C0
0780
0380
0300
ENDCHAR
STARTCHAR C020576
ENCODING 8574
SWIDTH 2400 0
DWIDTH 24 0
BBX 14 9 5 3
BITMAP
FFF8
001C
001C
001C
001C
001C
001C
001C
001C
ENDCHAR
STARTCHAR C020577
ENCODING 8575
SWIDTH 2400 0
DWIDTH 24 0
BBX 0 0 0 0
BITMAP
ENDCHAR
STARTCHAR C021040
ENCODING 8736
SWIDTH 2400 0
DWIDTH 24 0
BBX 1 5 24 5
BITMAP
80
00
00
00
80
ENDCHAR
STARTCHAR C021041
ENCODING 8737
SWIDTH 2400 0
DWIDTH 24 0
BBX 20 12 2 1
BITMAP
000600
000300
000180
FFFFC0
0000E0
000070
000060
FFFFE0
0001C0
000380
000700
000600
ENDCHAR
STARTCHAR C021042
ENCODING 8738
SWIDTH 2400 0
DWIDTH 24 0
BBX 18 12 3 1
BITMAP
061C00
0E0E00
1C0700
3FFF80
700180
E000C0
6000C0
300180
3FFF00
1C0600
0E0C00
061C00
ENDCHAR
STARTCHAR C021043
ENCODING 8739
SWIDTH 2400 0
DWIDTH 24 0
BBX 15 16 5 0
BITMAP
C006
E006
600C
700C
301C
3FF8
1818
1830
1C30
0C60
0E60
06E0
07C0
03C0
0380
0380
ENDCHAR
STARTCHAR C021044
ENCODING 8740
SWIDTH 2400 0
DWIDTH 24 0
BBX 12 15 6 0
BITMAP
FFF0
0070
0070
0070
0070
0070
0070
FFF0
0070
0070
0070
0070
0070
0070
FFF0
ENDCHAR
STARTCHAR C021045
ENCODING 8741
SWIDTH 2400 0
DWIDTH 24 0
BBX 3 4 10 15
BITMAP
60
60
E0
C0
ENDCHAR
STARTCHAR C021046
ENCODING 8742
SWIDTH 2400 0
DWIDTH 24 0
BBX 13 3 6 15
BITMAP
7C38
E730
C3E0
ENDCHAR
STARTCHAR C021047
ENCODING 8743
SWIDTH 2400 0
DWIDTH 24 0
BBX 9 4 8 14
BITMAP
C180
E700
7F00
3E00
ENDCHAR
STARTCHAR C021050
ENCODING 8744
SWIDTH 2400 0
DWIDTH 24 0
BBX 9 4 8 15
BITMAP
C180
C180
E300
3E00
ENDCHAR
STARTCHAR C021051
ENCODING 8745
SWIDTH 2400 0
DWIDTH 24 0
BBX 8 4 8 15
BITMAP
3F
7E
6C
D8
ENDCHAR
STARTCHAR C021052
ENCODING 8746
SWIDTH 2400 0
DWIDTH 24 0
BBX 5 4 10 14
BITMAP
F0
D8
D8
F0
ENDCHAR
STARTCHAR C021053
ENCODING 8747
SWIDTH 2400 0
DWIDTH 24 0
BBX 3 3 11 15
BITMAP
E0
E0
E0
ENDCHAR
STARTCHAR C021054
ENCODING 8748
SWIDTH 2400 0
DWIDTH 24 0
BBX 5 4 10 -3
BITMAP
70
38
38
F0
ENDCHAR
STARTCHAR C021055
ENCODING 8749
SWIDTH 2400 0
DWIDTH 24 0
BBX 5 5 10 -3
BITMAP
60
E0
D8
F8
70
ENDCHAR
STARTCHAR C021056
ENCODING 8750
SWIDTH 2400 0
DWIDTH 24 0
BBX 4 16 10 0
BITMAP
70
70
70
00
60
60
E0
E0
E0
E0
E0
E0
E0
F0
F0
E0
ENDCHAR
STARTCHAR C021057
ENCODING 8751
SWIDTH 2400 0
DWIDTH 24 0
BBX 11 17 7 0
BITMAP
0700
0700
0700
0000
0000
0700
0700
0700
0F00
3F00
7000
E0E0
E0E0
E060
E0E0
7FC0
1F80
ENDCHAR
STARTCHAR C021060
ENCODING 8752
SWIDTH 2400 0
DWIDTH 24 0
BBX 4 10 10 3
BITMAP
F0
70
60
00
00
00
00
60
70
F0
ENDCHAR
STARTCHAR C021061
ENCODING 8753
SWIDTH 2400 0
DWIDTH 24 0
BBX 10 18 7 0
BITMAP
01C0
03C0
06C0
0600
0E00
0E00
0E00
1F00
3F00
3F00
1F00
0E00
0C00
0C00
0C00
1C00
F800
F000
ENDCHAR
STARTCHAR C021062
ENCODING 8754
SWIDTH 2400 0
DWIDTH 24 0
BBX 17 17 3 0
BITMAP
FFFF80
7FFF80
300180
180180
0C0180
060180
030180
018000
01C000
018000
030000
070180
0E0180
1C0180
380180
700180
FFFF80
ENDCHAR
STARTCHAR C021063
ENCODING 8755
SWIDTH 2400 0
DWIDTH 24 0
BBX 19 17 3 0
BITMAP
FFFFE0
1C0700
1C0700
1C0700
1C0700
1C0700
1C0700
1C0700
1C0700
1C0700
1C0700
1C0700
1C0700
1C0700
1C0700
1C0700
1C0700
ENDCHAR
STARTCHAR C021064
ENCODING 8756
SWIDTH 2400 0
DWIDTH 24 0
BBX 16 17 4 -1
BITMAP
0003
C006
67EC
3C38
300C
300C
6006
6006
6006
6006
6006
300C
300C
3C3C
67E6
C007
0003
ENDCHAR
STARTCHAR C021065
ENCODING 8757
SWIDTH 2400 0
DWIDTH 24 0
BBX 18 18 3 0
BITMAP
01FFC0
F9FFC0
D9C000
D9C000
F9C000
01C000
01C000
01FF00
01FF00
01C000
01C000
01C000
01C000
01C000
01C000
01C000
01C000
01C000
ENDCHAR
STARTCHAR C021066
ENCODING 8758
SWIDTH 2400 0
DWIDTH 24 0
BBX 20 21 2 -2
BITMAP
1E0700
3F0600
738C00
739C00
739800
73B000
73F000
73E000
3FC000
1FC000
018000
03FBC0
07DB60
07DF70
0DDF70
1DDF70
19DF70
31DF70
70DB60
60F3C0
C00000
ENDCHAR
STARTCHAR C021067
ENCODING 8759
SWIDTH 2400 0
DWIDTH 24 0
BBX 13 18 6 -1
BITMAP
0018
0038
00F8
01B8
0338
0E38
1838
3038
E038
C038
7038
1838
0C38
0738
01B8
00F8
0038
0018
ENDCHAR
STARTCHAR C021070
ENCODING 8760
SWIDTH 2400 0
DWIDTH 24 0
BBX 13 18 6 -1
BITMAP
0018
0038
00F8
01F8
03F8
0FF8
1FF8
7FF8
FFF8
FFF8
7FF8
1FF8
0FF8
07F8
01F8
00F8
0038
0018
ENDCHAR
STARTCHAR C021071
ENCODING 8761
SWIDTH 2400 0
DWIDTH 24 0
BBX 12 16 6 0
BITMAP
C000
F000
F800
CC00
C700
C180
C0E0
C030
C030
C060
C1C0
C300
CE00
D800
F000
C000
ENDCHAR
STARTCHAR C021072
ENCODING 8762
SWIDTH 2400 0
DWIDTH 24 0
BBX 14 17 5 0
BITMAP
C000
F000
F800
FC00
7F00
7F80
7FE0
7FF0
7FF8
7FFC
7FF0
7FE0
7F80
7F00
7E00
7800
7000
ENDCHAR
STARTCHAR C021073
ENCODING 8763
SWIDTH 2400 0
DWIDTH 24 0
BBX 15 19 5 -2
BITMAP
0380
07C0
06C0
0C60
1C70
1830
3018
701C
600C
E00E
C006
C006
C006
C6C6
7FFC
06C0
06C0
06C0
0FE0
ENDCHAR
STARTCHAR C021074
ENCODING 8764
SWIDTH 2400 0
DWIDTH 24 0
BBX 16 20 4 -2
BITMAP
0180
01C0
03E0
07E0
0FF0
0FF8
1FFC
3FFC
3FFE
7FFE
7FFF
FFFF
FFFF
FFFF
7FFF
7FFE
1BC0
03C0
03E0
07E0
ENDCHAR
STARTCHAR C021075
ENCODING 8765
SWIDTH 2400 0
DWIDTH 24 0
BBX 16 18 4 -1
BITMAP
3C7C
7666
73E6
E3C3
E1C3
E003
E003
E003
7006
7006
380C
380C
1C18
1E38
0E70
0760
03C0
0180
ENDCHAR
STARTCHAR C021076
ENCODING 8766
SWIDTH 2400 0
DWIDTH 24 0
BBX 17 20 4 -2
BITMAP
3E3E00
7FFF00
FFFF00
FFFF80
FFFF80
FFFF80
FFFF80
FFFF00
FFFF00
7FFF00
7FFE00
3FFE00
3FFC00
1FFC00
1FF800
0FF000
07F000
03E000
03C000
018000
ENDCHAR
STARTCHAR C021077
ENCODING 8767
SWIDTH 2400 0
DWIDTH 24 0
BBX 19 20 3 -2
BITMAP
01F000
031800
060C00
060C00
060C00
060C00
031C00
03B800
3FBF80
67BCC0
C00060
C00060
C00060
C00060
E1B060
77F8C0
3DBF80
01B000
01B000
03F000
ENDCHAR
STARTCHAR C021100
ENCODING 8768
SWIDTH 2400 0
DWIDTH 24 0
BBX 19 20 3 -2
BITMAP
01F000
03F800
07F800
07FC00
07FC00
07FC00
07F800
3FFF00
7FFF80
FFFFC0
FFFFC0
FFFFE0
FFFFC0
FFFFC0
7FFFC0
7EFF80
01E000
01E000
01F000
03F000
ENDCHAR
STARTCHAR C021101
ENCODING 8769
SWIDTH 2400 0
DWIDTH 24 0
BBX 18 18 3 -1
BITMAP
07F800
1E1E00
380700
33F380
67FD80
6FFF80
DFFEC0
DFFEC0
DFFEC0
DFFEC0
DFFEC0
DFFEC0
EFFF80
6FFD80
77FB00
380700
1E0E00
07F800
ENDCHAR
STARTCHAR C021102
ENCODING 8770
SWIDTH 2400 0
DWIDTH 24 0
BBX 20 21 2 -3
BITMAP
006000
00F000
019800
036C00
03F600
07FE00
0FFF00
1BFF80
37FFC0
6FFF60
FFFFF0
7FFFE0
3FFEC0
1FFD80
0DFB00
06F600
036E00
039C00
01F800
00F000
006000
ENDCHAR
STARTCHAR C021103
ENCODING 8771
SWIDTH 2400 0
DWIDTH 24 0
BBX 17 18 4 -1
BITMAP
FFFF80
C00180
C00180
C00180
C00180
DFF980
DFF980
DFF980
DFF980
DFF980
DFF980
DFF980
DFF980
DFF980
C00180
C00180
C00180
FFFF80
ENDCHAR
STARTCHAR C021104
ENCODING 8772
SWIDTH 2400 0
DWIDTH 24 0
BBX 18 18 3 -1
BITMAP
03F800
0F9E00
3F8700
3F8300
7F8180
7F8180
FF80C0
FF80C0
FF80C0
FF80C0
FF80C0
FF80C0
7F8180
7F8180
3F8300
3F8700
0F9E00
07F800
ENDCHAR
STARTCHAR C021105
ENCODING 8773
SWIDTH 2400 0
DWIDTH 24 0
BBX 18 18 3 -1
BITMAP
07F800
1E7C00
387F00
307F00
607F80
607F80
C07FC0
C07FC0
C07FC0
C07FC0
C07FC0
C07FC0
C07F80
607F80
607F00
387F00
1E7C00
07F800
ENDCHAR
STARTCHAR C021106
ENCODING 8774
SWIDTH 2400 0
DWIDTH 24 0
BBX 18 18 3 -1
BITMAP
FFFFC0
DB6DC0
C000C0
EDB6C0
C000C0
DB6DC0
EDB6C0
C000C0
DB6DC0
EDB6C0
C000C0
DB6DC0
C000C0
EDB6C0
DB6DC0
C000C0
C000C0
FFFFC0
ENDCHAR
STARTCHAR C021107
ENCODING 8775
SWIDTH 2400 0
DWIDTH 24 0
BBX 17 18 4 -1
BITMAP
FFFF80
C00180
C00180
C00180
C00180
FFFF80
C00180
C00180
C00180
FFFF80
C00180
C00180
C00180
FFFF80
C00180
C00180
C00180
FFFF80
ENDCHAR
STARTCHAR C021110
ENCODING 8776
SWIDTH 2400 0
DWIDTH 24 0
BBX 17 18 4 -1
BITMAP
FFFF80
D99980
D99980
D99980
D99980
D99980
D99980
D99980
D99980
D99980
D99980
D99980
D99980
D99980
D99980
D99980
D99980
FFFF80
ENDCHAR
STARTCHAR C021111
ENCODING 8777
SWIDTH 2400 0
DWIDTH 24 0
BBX 17 18 4 -1
BITMAP
FFFF80
C18380
C30780
C60D80
CC1980
D83180
F06180
F06180
E0C180
C18380
C30780
C60D80
CC1980
D83180
F07180
E0E180
E0C180
FFFF80
ENDCHAR
STARTCHAR C021112
ENCODING 8778
SWIDTH 2400 0
DWIDTH 24 0
BBX 17 18 4 -1
BITMAP
FFFF80
E0C180
706180
303180
181980
0C0D80
060F80
070780
038380
C1C180
60E180
307180
183980
1C1980
0E0D80
070780
030780
FFFF80
ENDCHAR
STARTCHAR C021113
ENCODING 8779
SWIDTH 2400 0
DWIDTH 24 0
BBX 17 18 4 -1
BITMAP
FFFF80
D99980
D99980
D99980
FFFF80
D99980
D99980
D99980
D99980
FFFF80
D99980
D99980
D99980
FFFF80
D99980
D99980
D99980
FFFF80
ENDCHAR
STARTCHAR C021114
ENCODING 8780
SWIDTH 2400 0
DWIDTH 24 0
BBX 17 18 4 -1
BITMAP
FFFF80
C3C380
E7C780
F66D80
DC3D80
DC3980
F67D80
E36780
C3C380
C1C380
E3C780
F66F80
DC3D80
CC1980
FE3D80
E36780
C1C380
FFFF80
ENDCHAR
STARTCHAR C021115
ENCODING 8781
SWIDTH 2400 0
DWIDTH 24 0
BBX 19 20 3 -2
BITMAP
006000
006000
03F000
03F000
07F000
07F000
07F000
07F000
07F800
03F800
03F800
03F800
1BFB00
33F1C0
67F0E0
E7B0E0
E780E0
7003C0
3C0F80
0FFE00
ENDCHAR
STARTCHAR C021116
ENCODING 8782
SWIDTH 2400 0
DWIDTH 24 0
BBX 21 15 2 0
BITMAP
01FC00
1F07C0
37FF60
6F9FB0
CFFF38
CFF7B8
FF9FF0
060F00
0E0780
1E06C0
3E06C0
3606C0
330C60
71F860
7FFFE0
ENDCHAR
STARTCHAR C021117
ENCODING 8783
SWIDTH 2400 0
DWIDTH 24 0
BBX 20 15 3 0
BITMAP
03FC00
1FFF80
7FFFC0
FF1FE0
FFFFF0
FFFFF0
F60EE0
0C0E00
0C0F00
1C0780
3C0780
3C0F80
3E0FC0
7F1FC0
7FFFC0
ENDCHAR
STARTCHAR C021120
ENCODING 8784
SWIDTH 2400 0
DWIDTH 24 0
BBX 20 9 2 4
BITMAP
00FE00
FF9FF0
E071F0
3FFC70
0FFC70
07FE70
07BB70
03F9F0
00FF00
ENDCHAR
STARTCHAR C021121
ENCODING 8785
SWIDTH 2400 0
DWIDTH 24 0
BBX 21 9 2 4
BITMAP
03F800
FFCFF8
FC7038
F1FFE0
F1FF00
F3FF00
F7FE00
FCFC00
67F800
ENDCHAR
STARTCHAR C021122
ENCODING 8786
SWIDTH 2400 0
DWIDTH 24 0
BBX 13 21 5 -3
BITMAP
0038
3FB8
73B8
E3B8
E3B8
E3B8
E3B8
73B8
3FB8
03B8
03B8
03B8
03B8
03B8
03B8
03B8
03B8
03B8
03B8
03B8
0038
ENDCHAR
STARTCHAR C021123
ENCODING 8787
SWIDTH 2400 0
DWIDTH 24 0
BBX 13 21 6 -3
BITMAP
0700
0700
0700
0700
0700
FFF8
FFF8
0700
0700
0700
0700
0700
0700
0700
0700
0700
0700
0700
0700
0700
0700
ENDCHAR
STARTCHAR C021124
ENCODING 8788
SWIDTH 2400 0
DWIDTH 24 0
BBX 13 21 6 -3
BITMAP
0700
0700
0700
FFF8
FFF8
0700
0700
FFF8
0700
0700
0700
0700
0700
0700
0700
0700
0700
0700
0700
0700
0700
ENDCHAR
STARTCHAR C021125
ENCODING 8789
SWIDTH 2400 0
DWIDTH 24 0
BBX 7 19 9 -2
BITMAP
38
7C
7C
FE
38
38
38
38
38
38
38
38
38
38
38
FE
7C
38
30
ENDCHAR
STARTCHAR C021126
ENCODING 8790
SWIDTH 2400 0
DWIDTH 24 0
BBX 14 14 4 0
BITMAP
007C
001C
003C
007C
00EC
01C0
0380
0700
0600
0C00
1800
3800
7000
E000
ENDCHAR
STARTCHAR C021127
ENCODING 8791
SWIDTH 2400 0
DWIDTH 24 0
BBX 14 14 6 1
BITMAP
001C
0038
0070
00E0
01C0
0380
0300
0600
0E00
DC00
F800
F000
E000
FC00
ENDCHAR
STARTCHAR C021130
ENCODING 8792
SWIDTH 2400 0
DWIDTH 24 0
BBX 14 14 6 0
BITMAP
FC00
F000
F000
F800
DC00
CE00
0700
0380
01C0
00E0
0070
0038
0018
001C
ENDCHAR
STARTCHAR C021131
ENCODING 8793
SWIDTH 2400 0
DWIDTH 24 0
BBX 13 15 6 0
BITMAP
C000
E000
6000
7000
3800
1C00
0E00
0700
0380
01D8
00F8
0078
0038
00F8
0180
ENDCHAR
STARTCHAR C021132
ENCODING 8794
SWIDTH 2400 0
DWIDTH 24 0
BBX 9 16 8 0
BITMAP
E000
E000
E000
E000
E000
EF00
FB00
E380
E380
E380
E380
E700
EE00
FC00
F800
E000
ENDCHAR
STARTCHAR C021133
ENCODING 8795
SWIDTH 2400 0
DWIDTH 24 0
BBX 6 20 9 -2
BITMAP
1C
1C
1C
1C
1C
1C
1C
1C
1C
1C
1C
1C
1C
1C
1C
1C
7C
F8
F0
E0
ENDCHAR
STARTCHAR C021134
ENCODING 8796
SWIDTH 2400 0
DWIDTH 24 0
BBX 11 18 6 -2
BITMAP
1800
1C00
1F00
1F80
1BC0
19C0
18E0
1860
1860
1860
18C0
1800
1800
1800
1800
F800
F000
E000
ENDCHAR
STARTCHAR C021135
ENCODING 8797
SWIDTH 2400 0
DWIDTH 24 0
BBX 16 18 4 -2
BITMAP
0FFF
0E07
0E07
0E07
0FFF
0E07
0E07
0E07
0E07
0E07
0E07
0E07
0E07
0E1F
3E3E
7C7C
F838
7000
ENDCHAR
STARTCHAR C021136
ENCODING 8798
SWIDTH 2400 0
DWIDTH 24 0
BBX 18 18 3 -1
BITMAP
03F800
0E0E00
1C0300
380380
771980
7731C0
E770C0
E7E000
E7E000
FFFFC0
0731C0
C739C0
E719C0
671F80
770F00
380700
1C1C00
07F000
ENDCHAR
STARTCHAR C021137
ENCODING 8799
SWIDTH 2400 0
DWIDTH 24 0
BBX 20 19 2 -2
BITMAP
0C0300
180180
3FFFC0
3070C0
70F8E0
61FC60
EF8F70
EE07F0
E00070
E00070
FFFFF0
E07070
607060
7070E0
3070C0
3871C0
187180
0C7300
060600
ENDCHAR
STARTCHAR C021140
ENCODING 8800
SWIDTH 2400 0
DWIDTH 24 0
BBX 21 17 2 0
BITMAP
C1C000
E1C000
E1C000
F1C000
F1C000
F9CF80
F9DFC0
EDF8E0
EDF8F0
EDF070
E7F070
E7F070
E3F070
E3F870
E1F8E0
E1FFD8
E0CF80
ENDCHAR
STARTCHAR C021141
ENCODING 8801
SWIDTH 2400 0
DWIDTH 24 0
BBX 21 17 2 0
BITMAP
3F0000
738000
E3C000
E1C000
C1C000
C00F80
C01DC0
C038E0
C07070
C07070
C07070
C1F070
C1F070
E1F070
E3F8E0
739DC0
3F0F98
ENDCHAR
STARTCHAR C021142
ENCODING 8802
SWIDTH 2400 0
DWIDTH 24 0
BBX 19 17 2 0
BITMAP
FFF0E0
FFF0E0
1C70E0
1C70E0
1C71E0
1C79E0
1C79E0
1C7BE0
1C7BE0
1C7BE0
1C7FE0
1C7FE0
1C7FE0
1C7FE0
1C7EE0
1C76E0
1C76E0
ENDCHAR
STARTCHAR C021143
ENCODING 8803
SWIDTH 2400 0
DWIDTH 24 0
BBX 21 12 2 0
BITMAP
303800
FC3FE0
CE3FE0
CE3FE0
0E3FE0
7E3FE0
FE3FE0
CE3FE0
CE3FE0
CE3FE0
DF3FE0
FFFFF8
ENDCHAR
STARTCHAR C021144
ENCODING 8804
SWIDTH 2400 0
DWIDTH 24 0
BBX 21 16 2 -4
BITMAP
E03800
FE3FE0
F73FE0
F3BFE0
E3BFE0
E3BFE0
E3BFE0
E3BFE0
E3BFE0
E3BFE0
F73FE0
FEFFF8
E00000
E00000
E00000
E00000
ENDCHAR
STARTCHAR C021145
ENCODING 8805
SWIDTH 2400 0
DWIDTH 24 0
BBX 19 17 2 0
BITMAP
FFE0E0
FFC0E0
0E00E0
0E00E0
0E00E0
0E38E0
0EFEE0
0F8EE0
0F87E0
0F87E0
0FFFE0
0FFFE0
0F80E0
0F87E0
0F87E0
0EFEE0
0E7CE0
ENDCHAR
STARTCHAR C021146
ENCODING 8806
SWIDTH 2400 0
DWIDTH 24 0
BBX 0 0 0 0
BITMAP
ENDCHAR
STARTCHAR C021147
ENCODING 8807
SWIDTH 2400 0
DWIDTH 24 0
BBX 0 0 0 0
BITMAP
ENDCHAR
STARTCHAR C021150
ENCODING 8808
SWIDTH 2400 0
DWIDTH 24 0
BBX 0 0 0 0
BITMAP
ENDCHAR
STARTCHAR C021151
ENCODING 8809
SWIDTH 2400 0
DWIDTH 24 0
BBX 1 2 24 16
BITMAP
80
80
ENDCHAR
STARTCHAR C021152
ENCODING 8810
SWIDTH 2400 0
DWIDTH 24 0
BBX 0 0 0 0
BITMAP
ENDCHAR
STARTCHAR C021153
ENCODING 8811
SWIDTH 2400 0
DWIDTH 24 0
BBX 0 0 0 0
BITMAP
ENDCHAR
STARTCHAR C021154
ENCODING 8812
SWIDTH 2400 0
DWIDTH 24 0
BBX 0 0 0 0
BITMAP
ENDCHAR
STARTCHAR C021155
ENCODING 8813
SWIDTH 2400 0
DWIDTH 24 0
BBX 0 0 0 0
BITMAP
ENDCHAR
STARTCHAR C021156
ENCODING 8814
SWIDTH 2400 0
DWIDTH 24 0
BBX 0 0 0 0
BITMAP
ENDCHAR
STARTCHAR C021157
ENCODING 8815
SWIDTH 2400 0
DWIDTH 24 0
BBX 0 0 0 0
BITMAP
ENDCHAR
STARTCHAR C021160
ENCODING 8816
SWIDTH 2400 0
DWIDTH 24 0
BBX 0 0 0 0
BITMAP
ENDCHAR
STARTCHAR C021161
ENCODING 8817
SWIDTH 2400 0
DWIDTH 24 0
BBX 0 0 0 0
BITMAP
ENDCHAR
STARTCHAR C021162
ENCODING 8818
SWIDTH 2400 0
DWIDTH 24 0
BBX 0 0 0 0
BITMAP
ENDCHAR
STARTCHAR C021163
ENCODING 8819
SWIDTH 2400 0
DWIDTH 24 0
BBX 1 21 24 -4
BITMAP
80
00
00
00
00
00
00
80
00
00
00
00
80
00
00
00
00
00
00
00
80
ENDCHAR
STARTCHAR C021164
ENCODING 8820
SWIDTH 2400 0
DWIDTH 24 0
BBX 0 0 0 0
BITMAP
ENDCHAR
STARTCHAR C021165
ENCODING 8821
SWIDTH 2400 0
DWIDTH 24 0
BBX 0 0 0 0
BITMAP
ENDCHAR
STARTCHAR C021166
ENCODING 8822
SWIDTH 2400 0
DWIDTH 24 0
BBX 0 0 0 0
BITMAP
ENDCHAR
STARTCHAR C021167
ENCODING 8823
SWIDTH 2400 0
DWIDTH 24 0
BBX 0 0 0 0
BITMAP
ENDCHAR
STARTCHAR C021170
ENCODING 8824
SWIDTH 2400 0
DWIDTH 24 0
BBX 1 2 24 16
BITMAP
80
80
ENDCHAR
STARTCHAR C021171
ENCODING 8825
SWIDTH 2400 0
DWIDTH 24 0
BBX 0 0 0 0
BITMAP
ENDCHAR
STARTCHAR C021172
ENCODING 8826
SWIDTH 2400 0
DWIDTH 24 0
BBX 0 0 0 0
BITMAP
ENDCHAR
STARTCHAR C021173
ENCODING 8827
SWIDTH 2400 0
DWIDTH 24 0
BBX 0 0 0 0
BITMAP
ENDCHAR
STARTCHAR C021174
ENCODING 8828
SWIDTH 2400 0
DWIDTH 24 0
BBX 0 0 0 0
BITMAP
ENDCHAR
STARTCHAR C021175
ENCODING 8829
SWIDTH 2400 0
DWIDTH 24 0
BBX 0 0 0 0
BITMAP
ENDCHAR
STARTCHAR C021176
ENCODING 8830
SWIDTH 2400 0
DWIDTH 24 0
BBX 0 0 0 0
BITMAP
ENDCHAR
STARTCHAR C021177
ENCODING 8831
SWIDTH 2400 0
DWIDTH 24 0
BBX 0 0 0 0
BITMAP
ENDCHAR
STARTCHAR C021440
ENCODING 8992
SWIDTH 2400 0
DWIDTH 24 0
BBX 1 19 24 -1
BITMAP
80
80
80
80
80
80
80
80
80
80
80
80
80
80
80
00
00
80
80
ENDCHAR
STARTCHAR C021441
ENCODING 8993
SWIDTH 2400 0
DWIDTH 24 0
BBX 3 20 11 -2
BITMAP
E0
E0
E0
E0
E0
E0
E0
E0
E0
E0
C0
C0
C0
C0
C0
00
00
E0
E0
60
ENDCHAR
STARTCHAR C021442
ENCODING 8994
SWIDTH 2400 0
DWIDTH 24 0
BBX 10 7 7 11
BITMAP
0CC0
1DC0
1B80
3B00
3600
6C00
CC00
ENDCHAR
STARTCHAR C021443
ENCODING 8995
SWIDTH 2400 0
DWIDTH 24 0
BBX 17 19 4 -2
BITMAP
030C00
070C00
071C00
061C00
061800
7FFF80
061800
0E1800
0E3800
0C3800
0C3000
0C3000
1C3000
FFFE00
187000
187000
186000
186000
186000
ENDCHAR
STARTCHAR C021444
ENCODING 8996
SWIDTH 2400 0
DWIDTH 24 0
BBX 17 20 4 -2
BITMAP
073000
07F000
1FFC00
3F7700
777380
777300
777000
7F7000
1FF000
07FC00
077F00
077380
077380
077380
E77380
777700
3F7E00
0FF800
077000
006000
ENDCHAR
STARTCHAR C021445
ENCODING 8997
SWIDTH 2400 0
DWIDTH 24 0
BBX 21 18 2 -1
BITMAP
1F8070
70C0E0
E061C0
E06380
E06700
E06E00
70FC00
39F800
0F7000
00EFE0
01DC70
03B838
073838
0E3838
1C3838
381C78
700EF0
0003C0
ENDCHAR
STARTCHAR C021446
ENCODING 8998
SWIDTH 2400 0
DWIDTH 24 0
BBX 13 17 6 0
BITMAP
0780
1FC0
18E0
1860
18E0
18C0
1FC0
0F00
3F00
7300
E398
C1D8
C0F8
C070
E0F0
73F8
1F98
ENDCHAR
STARTCHAR C021447
ENCODING 8999
SWIDTH 2400 0
DWIDTH 24 0
BBX 3 6 11 13
BITMAP
E0
E0
E0
60
60
C0
ENDCHAR
STARTCHAR C021450
ENCODING 9000
SWIDTH 2400 0
DWIDTH 24 0
BBX 8 21 8 -3
BITMAP
07
0E
1C
38
30
70
70
E0
E0
E0
E0
E0
E0
60
70
30
38
1C
1C
0F
03
ENDCHAR
STARTCHAR C021451
ENCODING 9001
SWIDTH 2400 0
DWIDTH 24 0
BBX 8 21 8 -3
BITMAP
E0
70
38
1C
0C
0E
0E
07
07
07
07
07
07
06
0E
0C
1C
38
30
E0
C0
ENDCHAR
STARTCHAR C021452
ENCODING 9002
SWIDTH 2400 0
DWIDTH 24 0
BBX 14 12 5 2
BITMAP
1CE0
1EF0
0EE0
0EC0
07C0
FFBC
FFFC
0380
06C0
0EE0
1EF0
1CF0
ENDCHAR
STARTCHAR C021453
ENCODING 9003
SWIDTH 2400 0
DWIDTH 24 0
BBX 19 18 3 -1
BITMAP
00E000
00E000
00E000
00E000
00E000
00E000
00E000
00E000
00E000
FFFFE0
00E000
00E000
00E000
00E000
00E000
00E000
00E000
00E000
ENDCHAR
STARTCHAR C021454
ENCODING 9004
SWIDTH 2400 0
DWIDTH 24 0
BBX 5 7 10 -3
BITMAP
60
F0
F8
78
30
70
E0
ENDCHAR
STARTCHAR C021455
ENCODING 9005
SWIDTH 2400 0
DWIDTH 24 0
BBX 18 1 4 7
BITMAP
FFFFC0
ENDCHAR
STARTCHAR C021456
ENCODING 9006
SWIDTH 2400 0
DWIDTH 24 0
BBX 4 3 11 -1
BITMAP
60
F0
F0
ENDCHAR
STARTCHAR C021457
ENCODING 9007
SWIDTH 2400 0
DWIDTH 24 0
BBX 10 20 8 -3
BITMAP
01C0
0180
0380
0300
0300
0700
0600
0E00
0C00
0C00
1C00
1800
3800
3000
3000
7000
6000
E000
C000
C000
ENDCHAR
STARTCHAR C021460
ENCODING 9008
SWIDTH 2400 0
DWIDTH 24 0
BBX 13 17 6 0
BITMAP
0F80
38E0
7070
7070
6070
E038
E038
E038
E038
E038
E038
E038
E030
7070
7070
38E0
0F80
ENDCHAR
STARTCHAR C021461
ENCODING 9009
SWIDTH 2400 0
DWIDTH 24 0
BBX 8 17 7 0
BITMAP
07
0F
1F
3F
77
E7
C7
07
07
07
07
07
07
07
07
07
07
ENDCHAR
STARTCHAR C021462
ENCODING 9010
SWIDTH 2400 0
DWIDTH 24 0
BBX 13 17 6 0
BITMAP
1FC0
7870
E030
E038
E038
0038
0078
00F0
01E0
0780
0F00
3C00
7800
7000
E000
E000
FFF8
ENDCHAR
STARTCHAR C021463
ENCODING 9011
SWIDTH 2400 0
DWIDTH 24 0
BBX 13 17 6 0
BITMAP
1FC0
70E0
E070
E070
0070
0070
0060
00C0
1FE0
00F0
0070
0038
C038
C030
E070
70E0
3FC0
ENDCHAR
STARTCHAR C021464
ENCODING 9012
SWIDTH 2400 0
DWIDTH 24 0
BBX 15 16 4 0
BITMAP
0078
00F8
01F8
01B8
03B8
0738
0E38
0C38
1C38
3838
7038
6038
FFFE
0038
0038
0038
ENDCHAR
STARTCHAR C021465
ENCODING 9013
SWIDTH 2400 0
DWIDTH 24 0
BBX 13 16 6 0
BITMAP
7FF0
E000
E000
E000
E000
E780
FFE0
F070
0038
0038
0038
C038
E038
E070
78E0
1FC0
ENDCHAR
STARTCHAR C021466
ENCODING 9014
SWIDTH 2400 0
DWIDTH 24 0
BBX 13 17 6 0
BITMAP
0FE0
1870
3030
7030
6000
E000
EFC0
F8F0
F070
E038
E038
E038
E038
6038
7070
38E0
1FC0
ENDCHAR
STARTCHAR C021467
ENCODING 9015
SWIDTH 2400 0
DWIDTH 24 0
BBX 12 16 7 0
BITMAP
FFF0
0070
0060
00E0
00C0
01C0
0180
0300
0700
0600
0E00
0C00
1C00
3800
3000
7000
ENDCHAR
STARTCHAR C021470
ENCODING 9016
SWIDTH 2400 0
DWIDTH 24 0
BBX 13 17 6 0
BITMAP
1FC0
38E0
7070
6030
6030
6030
7030
38E0
3FE0
78F0
E038
E038
E018
E038
6030
38E0
1FC0
ENDCHAR
STARTCHAR C021471
ENCODING 9017
SWIDTH 2400 0
DWIDTH 24 0
BBX 13 17 6 0
BITMAP
1F80
38E0
7030
E030
E030
E018
E018
E038
E038
7078
38F8
1FB8
0030
E030
E070
70E0
3FC0
ENDCHAR
STARTCHAR C021472
ENCODING 9018
SWIDTH 2400 0
DWIDTH 24 0
BBX 3 15 11 0
BITMAP
E0
E0
E0
00
00
00
00
00
00
00
00
00
E0
E0
E0
ENDCHAR
STARTCHAR C021473
ENCODING 9019
SWIDTH 2400 0
DWIDTH 24 0
BBX 4 17 11 -2
BITMAP
E0
E0
E0
00
00
00
00
00
00
00
00
00
F0
F0
70
60
C0
ENDCHAR
STARTCHAR C021474
ENCODING 9020
SWIDTH 2400 0
DWIDTH 24 0
BBX 18 18 3 -1
BITMAP
0001C0
000780
001E00
007800
01E000
078000
0E0000
3C0000
F00000
E00000
780000
1E0000
078000
01E000
007800
003C00
000F00
0003C0
ENDCHAR
STARTCHAR C021475
ENCODING 9021
SWIDTH 2400 0
DWIDTH 24 0
BBX 18 6 4 5
BITMAP
FFFFC0
000000
000000
000000
000000
FFFFC0
ENDCHAR
STARTCHAR C021476
ENCODING 9022
SWIDTH 2400 0
DWIDTH 24 0
BBX 17 19 4 -1
BITMAP
C00000
F00000
3C0000
0F0000
03C000
00F000
003C00
001E00
000780
000180
000380
000F00
003C00
00F000
03C000
0F0000
3C0000
F00000
E00000
ENDCHAR
STARTCHAR C021477
ENCODING 9023
SWIDTH 2400 0
DWIDTH 24 0
BBX 16 20 4 -2
BITMAP
0FF0
381C
700E
6007
E007
E007
700F
3C1E
1C3C
00F0
01C0
01C0
01C0
01C0
01C0
01C0
0000
0000
0000
01C0
ENDCHAR
STARTCHAR C021500
ENCODING 9024
SWIDTH 2400 0
DWIDTH 24 0
BBX 20 19 3 -2
BITMAP
07FE00
1E0780
3803C0
7000C0
600CE0
E1FC60
C3BC70
C71C70
C71C70
C71C70
C71C70
C71C70
E39EE0
63FFC0
70E380
380000
1E0000
07FE00
01F800
ENDCHAR
STARTCHAR C021501
ENCODING 9025
SWIDTH 2400 0
DWIDTH 24 0
BBX 17 18 4 0
BITMAP
01C000
01C000
03E000
036000
076000
077000
063000
0E3800
0C3800
1C1800
1C1C00
180C00
380E00
3FFE00
300600
700700
600300
E00380
ENDCHAR
STARTCHAR C021502
ENCODING 9026
SWIDTH 2400 0
DWIDTH 24 0
BBX 14 18 6 0
BITMAP
FFE0
C030
C018
C018
C018
C018
C018
C038
FFE0
C038
C00C
C00C
C00C
C00C
C00C
C018
C018
FFF0
ENDCHAR
STARTCHAR C021503
ENCODING 9027
SWIDTH 2400 0
DWIDTH 24 0
BBX 16 18 5 0
BITMAP
07F8
0E1C
180E
3007
7007
7003
E000
E000
E000
E000
E000
E000
E003
7003
3007
180E
0E1C
07F0
ENDCHAR
STARTCHAR C021504
ENCODING 9028
SWIDTH 2400 0
DWIDTH 24 0
BBX 15 17 6 0
BITMAP
FFC0
E070
E038
E01C
E01C
E00E
E00E
E00E
E00E
E00E
E00E
E00E
E00C
E01C
E018
E078
FFE0
ENDCHAR
STARTCHAR C021505
ENCODING 9029
SWIDTH 2400 0
DWIDTH 24 0
BBX 14 17 6 0
BITMAP
FFFC
E000
E000
E000
E000
E000
E000
E000
FFF8
E000
E000
E000
E000
E000
E000
E000
FFFC
ENDCHAR
STARTCHAR C021506
ENCODING 9030
SWIDTH 2400 0
DWIDTH 24 0
BBX 13 18 7 -1
BITMAP
FFF8
C000
C000
C000
C000
C000
C000
C000
FFF0
C000
C000
C000
C000
C000
C000
C000
C000
C000
ENDCHAR
STARTCHAR C021507
ENCODING 9031
SWIDTH 2400 0
DWIDTH 24 0
BBX 15 19 5 -1
BITMAP
0FE0
1C38
301C
700C
E00E
E000
C000
C000
C000
C1FE
C006
C006
C006
E006
E00C
F00C
7018
3C70
0FC0
ENDCHAR
STARTCHAR C021510
ENCODING 9032
SWIDTH 2400 0
DWIDTH 24 0
BBX 14 18 5 0
BITMAP
E01C
E01C
E01C
E01C
E01C
E01C
E01C
E01C
FFFC
E01C
E01C
E01C
E01C
E01C
E01C
E01C
E01C
E01C
ENDCHAR
STARTCHAR C021511
ENCODING 9033
SWIDTH 2400 0
DWIDTH 24 0
BBX 3 18 11 0
BITMAP
E0
E0
E0
E0
E0
E0
E0
E0
E0
E0
E0
E0
E0
E0
E0
E0
E0
E0
ENDCHAR
STARTCHAR C021512
ENCODING 9034
SWIDTH 2400 0
DWIDTH 24 0
BBX 13 18 5 0
BITMAP
0038
0038
0038
0038
0038
0038
0038
0038
0038
0038
0038
E038
E038
E038
7070
7070
38E0
1F80
ENDCHAR
STARTCHAR C021513
ENCODING 9035
SWIDTH 2400 0
DWIDTH 24 0
BBX 14 19 7 -1
BITMAP
E018
E038
E070
E0E0
E1C0
E380
E600
FC00
F800
F800
FC00
EF00
E380
E1C0
E0E0
E070
E038
E01C
000C
ENDCHAR
STARTCHAR C021514
ENCODING 9036
SWIDTH 2400 0
DWIDTH 24 0
BBX 14 18 7 0
BITMAP
C000
C000
C000
C000
C000
C000
C000
C000
C000
C000
C000
C000
C000
C000
C000
C000
C000
FFFC
ENDCHAR
STARTCHAR C021515
ENCODING 9037
SWIDTH 2400 0
DWIDTH 24 0
BBX 18 18 4 0
BITMAP
C00180
C003C0
E003C0
E007C0
F007C0
F00FC0
D80DC0
D80DC0
DC19C0
CC19C0
CC31C0
C631C0
C671C0
C761C0
C3E1C0
C3C1C0
C1C1C0
C181C0
ENDCHAR
STARTCHAR C021516
ENCODING 9038
SWIDTH 2400 0
DWIDTH 24 0
BBX 14 18 6 0
BITMAP
C01C
E01C
E01C
F01C
D81C
D81C
CC1C
CE1C
C61C
C31C
C31C
C19C
C0DC
C0DC
C07C
C07C
C03C
C01C
ENDCHAR
STARTCHAR C021517
ENCODING 9039
SWIDTH 2400 0
DWIDTH 24 0
BBX 16 19 5 -1
BITMAP
0FE0
3C78
701C
601C
E00E
E00E
C007
C007
C007
C007
C007
C007
C007
E00E
E00E
E00C
701C
3C78
0FE0
ENDCHAR
STARTCHAR C021520
ENCODING 9040
SWIDTH 2400 0
DWIDTH 24 0
BBX 16 9 6 8
BITMAP
FFF8
C01E
C00F
C007
C007
C007
C00E
C01E
FFF8
ENDCHAR
STARTCHAR C021521
ENCODING 9041
SWIDTH 2400 0
DWIDTH 24 0
BBX 16 21 4 -3
BITMAP
07E0
1C38
381C
700E
700E
E007
E007
E007
E007
E007
E007
E007
E007
700E
700E
381C
1C78
0FE0
3CE0
7078
001F
ENDCHAR
STARTCHAR C021522
ENCODING 9042
SWIDTH 2400 0
DWIDTH 24 0
BBX 15 17 5 0
BITMAP
FFF8
E01C
E00E
E00E
E00E
E00E
E01C
E03C
FFF8
E038
E018
E01C
E00C
E00C
E00C
E00E
E00E
ENDCHAR
STARTCHAR C021523
ENCODING 9043
SWIDTH 2400 0
DWIDTH 24 0
BBX 15 19 5 -1
BITMAP
0FE0
3878
7018
E01C
E00C
E000
F000
7C00
3FC0
07F8
007C
001E
000E
C00E
E00E
E00E
701C
3C38
0FE0
ENDCHAR
STARTCHAR C021524
ENCODING 9044
SWIDTH 2400 0
DWIDTH 24 0
BBX 15 18 5 -1
BITMAP
FFFE
0380
0380
0380
0380
0380
0380
0380
0380
0380
0380
0380
0380
0380
0380
0380
0380
0380
ENDCHAR
STARTCHAR C021525
ENCODING 9045
SWIDTH 2400 0
DWIDTH 24 0
BBX 14 18 6 0
BITMAP
C01C
C01C
C01C
C01C
C01C
C01C
C01C
C01C
C01C
C01C
C01C
C01C
C01C
C01C
E038
E038
78F0
1FC0
ENDCHAR
STARTCHAR C021526
ENCODING 9046
SWIDTH 2400 0
DWIDTH 24 0
BBX 15 18 5 -1
BITMAP
E00E
E00C
600C
601C
7018
3018
3038
3830
1830
1870
1C60
0C60
0C60
0EE0
06C0
06C0
07C0
0380
ENDCHAR
STARTCHAR C021527
ENCODING 9047
SWIDTH 2400 0
DWIDTH 24 0
BBX 21 18 2 -1
BITMAP
E07038
E07038
607030
607830
70F830
70D870
30D860
30DC60
39DC60
39CCE0
198CC0
198EC0
198EC0
1F86C0
0F07C0
0F0780
0F0780
060300
ENDCHAR
STARTCHAR C021530
ENCODING 9048
SWIDTH 2400 0
DWIDTH 24 0
BBX 15 18 5 0
BITMAP
600C
701C
3838
1830
1C70
0EE0
07C0
03C0
0380
07C0
06C0
0EE0
1C70
1838
3818
701C
600E
C006
ENDCHAR
STARTCHAR C021531
ENCODING 9049
SWIDTH 2400 0
DWIDTH 24 0
BBX 15 18 5 0
BITMAP
C006
E00E
701C
3018
3838
1870
1CE0
0EE0
07C0
0780
0380
0380
0380
0380
0380
0380
0380
0380
ENDCHAR
STARTCHAR C021532
ENCODING 9050
SWIDTH 2400 0
DWIDTH 24 0
BBX 14 17 5 0
BITMAP
7FFC
001C
0038
0070
0070
00E0
01C0
0380
0700
0700
0E00
1C00
3800
7000
7000
E000
FFFC
ENDCHAR
STARTCHAR C021533
ENCODING 9051
SWIDTH 2400 0
DWIDTH 24 0
BBX 9 21 8 -3
BITMAP
7F80
E000
E000
E000
E000
E000
E000
E000
E000
E000
E000
E000
E000
E000
E000
E000
E000
E000
E000
FF80
7C00
ENDCHAR
STARTCHAR C021534
ENCODING 9052
SWIDTH 2400 0
DWIDTH 24 0
BBX 21 18 2 -1
BITMAP
607030
707030
70F870
30F870
30D860
30D860
FFFFF8
38DCE0
19DCE0
198CC0
198CC0
FFFFF8
1D8DC0
1F8FC0
0F0780
0F0780
0F0780
060300
ENDCHAR
STARTCHAR C021535
ENCODING 9053
SWIDTH 2400 0
DWIDTH 24 0
BBX 9 21 7 -3
BITMAP
FF00
0380
0380
0380
0380
0380
0380
0380
0380
0380
0380
0380
0380
0380
0380
0380
0380
0380
0380
0380
FF00
ENDCHAR
STARTCHAR C021536
ENCODING 9054
SWIDTH 2400 0
DWIDTH 24 0
BBX 9 3 8 15
BITMAP
3E00
7700
C180
ENDCHAR
STARTCHAR C021537
ENCODING 9055
SWIDTH 2400 0
DWIDTH 24 0
BBX 22 1 2 -3
BITMAP
FFFFFC
ENDCHAR
STARTCHAR C021540
ENCODING 9056
SWIDTH 2400 0
DWIDTH 24 0
BBX 4 5 10 14
BITMAP
60
E0
70
70
30
ENDCHAR
STARTCHAR C021541
ENCODING 9057
SWIDTH 2400 0
DWIDTH 24 0
BBX 11 12 7 0
BITMAP
3F80
70C0
E0E0
00E0
03E0
7EE0
C0E0
C0E0
00E0
C1E0
C3E0
7F60
ENDCHAR
STARTCHAR C021542
ENCODING 9058
SWIDTH 2400 0
DWIDTH 24 0
BBX 12 16 7 0
BITMAP
E000
E000
E000
E000
EF80
F9C0
F0E0
E070
E070
E070
E070
E070
E070
F0E0
F9E0
EF80
ENDCHAR
STARTCHAR C021543
ENCODING 9059
SWIDTH 2400 0
DWIDTH 24 0
BBX 11 12 7 0
BITMAP
1F80
71C0
E0E0
E060
C000
C000
C000
C000
E060
E0E0
71C0
1F80
ENDCHAR
STARTCHAR C021544
ENCODING 9060
SWIDTH 2400 0
DWIDTH 24 0
BBX 11 16 7 0
BITMAP
00E0
00E0
00E0
00E0
1FE0
7BE0
71E0
E0E0
E0E0
E0E0
E0E0
E0E0
E0E0
71E0
7BE0
1EE0
ENDCHAR
STARTCHAR C021545
ENCODING 9061
SWIDTH 2400 0
DWIDTH 24 0
BBX 11 12 7 0
BITMAP
1F00
71C0
60E0
C060
C060
FFE0
C000
C000
E060
60E0
71C0
1F80
ENDCHAR
STARTCHAR C021546
ENCODING 9062
SWIDTH 2400 0
DWIDTH 24 0
BBX 10 15 7 0
BITMAP
0FC0
1CC0
1C00
1C00
1C00
FFC0
1C00
1C00
1C00
1C00
1C00
1C00
1C00
1C00
1C00
ENDCHAR
STARTCHAR C021547
ENCODING 9063
SWIDTH 2400 0
DWIDTH 24 0
BBX 12 15 6 -3
BITMAP
1F70
79F0
70F0
E070
E070
E070
E070
E070
70F0
39F0
1FF0
0070
0060
F1C0
3F80
ENDCHAR
STARTCHAR C021550
ENCODING 9064
SWIDTH 2400 0
DWIDTH 24 0
BBX 10 16 8 0
BITMAP
C000
C000
C000
C000
FF00
E380
C1C0
C1C0
C1C0
C1C0
C1C0
C1C0
C1C0
C1C0
C1C0
C1C0
ENDCHAR
STARTCHAR C021551
ENCODING 9065
SWIDTH 2400 0
DWIDTH 24 0
BBX 3 17 11 0
BITMAP
E0
00
00
00
E0
E0
E0
E0
E0
E0
E0
E0
E0
E0
E0
E0
E0
ENDCHAR
STARTCHAR C021552
ENCODING 9066
SWIDTH 2400 0
DWIDTH 24 0
BBX 8 20 7 -3
BITMAP
07
00
00
00
07
07
07
07
07
07
07
07
07
07
07
07
07
07
0E
FC
ENDCHAR
STARTCHAR C021553
ENCODING 9067
SWIDTH 2400 0
DWIDTH 24 0
BBX 10 16 8 0
BITMAP
E000
E000
E000
E180
E380
E700
FC00
F800
F000
F800
FC00
EE00
E700
E380
E180
E1C0
ENDCHAR
STARTCHAR C021554
ENCODING 9068
SWIDTH 2400 0
DWIDTH 24 0
BBX 3 16 11 0
BITMAP
E0
E0
E0
E0
E0
E0
E0
E0
E0
E0
E0
E0
E0
E0
E0
E0
ENDCHAR
STARTCHAR C021555
ENCODING 9069
SWIDTH 2400 0
DWIDTH 24 0
BBX 16 13 5 0
BITMAP
FC7C
FFFE
E387
E387
E387
E387
E387
E387
E387
E387
E387
E387
E387
ENDCHAR
STARTCHAR C021556
ENCODING 9070
SWIDTH 2400 0
DWIDTH 24 0
BBX 10 13 7 0
BITMAP
CE00
FF80
F180
E1C0
E1C0
E1C0
E1C0
E1C0
E1C0
E1C0
E1C0
E1C0
E1C0
ENDCHAR
STARTCHAR C021557
ENCODING 9071
SWIDTH 2400 0
DWIDTH 24 0
BBX 12 13 7 0
BITMAP
3F80
71C0
E0E0
C0E0
C070
C070
C070
C070
C070
E0E0
E0E0
71C0
3F00
ENDCHAR
STARTCHAR C021560
ENCODING 9072
SWIDTH 2400 0
DWIDTH 24 0
BBX 11 16 7 -3
BITMAP
C000
FF00
F380
E1C0
E0E0
E0E0
E0E0
E0E0
E0E0
E0E0
F1C0
FBC0
FF00
E000
E000
E000
ENDCHAR
STARTCHAR C021561
ENCODING 9073
SWIDTH 2400 0
DWIDTH 24 0
BBX 11 15 7 -3
BITMAP
3FE0
F3E0
E1E0
C0E0
C0E0
C0E0
C0E0
C0E0
C0E0
E1E0
7FE0
3EE0
00E0
00E0
00E0
ENDCHAR
STARTCHAR C021562
ENCODING 9074
SWIDTH 2400 0
DWIDTH 24 0
BBX 10 13 9 0
BITMAP
6F00
FF80
F1C0
E000
E000
E000
E000
E000
E000
E000
E000
E000
E000
ENDCHAR
STARTCHAR C021563
ENCODING 9075
SWIDTH 2400 0
DWIDTH 24 0
BBX 11 13 7 0
BITMAP
1F00
7F80
61C0
60C0
6000
7800
1F00
03C0
00C0
E0E0
60E0
71C0
3F80
ENDCHAR
STARTCHAR C021564
ENCODING 9076
SWIDTH 2400 0
DWIDTH 24 0
BBX 10 16 8 0
BITMAP
3800
3800
3800
3800
FF80
3800
3800
3800
3800
3800
3800
3800
3800
38C0
1FC0
0F00
ENDCHAR
STARTCHAR C021565
ENCODING 9077
SWIDTH 2400 0
DWIDTH 24 0
BBX 11 13 7 0
BITMAP
E060
E0E0
E0E0
E0E0
E0E0
E0E0
E0E0
E0E0
E0E0
E0E0
E1E0
73E0
3F60
ENDCHAR
STARTCHAR C021566
ENCODING 9078
SWIDTH 2400 0
DWIDTH 24 0
BBX 11 13 7 0
BITMAP
C060
C060
C0E0
E0C0
60C0
71C0
3180
3380
3B00
1B00
1F00
0E00
0E00
ENDCHAR
STARTCHAR C021567
ENCODING 9079
SWIDTH 2400 0
DWIDTH 24 0
BBX 17 13 4 0
BITMAP
C18180
C1C180
E1C380
63E300
636300
636700
776600
367600
363600
3E3E00
1C3C00
1C1C00
1C1C00
ENDCHAR
STARTCHAR C021570
ENCODING 9080
SWIDTH 2400 0
DWIDTH 24 0
BBX 12 13 7 0
BITMAP
E0E0
70C0
3180
3B80
1F00
0E00
0F00
1F00
3B80
71C0
60E0
C070
C000
ENDCHAR
STARTCHAR C021571
ENCODING 9081
SWIDTH 2400 0
DWIDTH 24 0
BBX 12 16 6 -3
BITMAP
6030
6070
7060
30E0
38C0
18C0
1DC0
0D80
0D80
0F80
0700
0700
0600
0600
0C00
FC00
ENDCHAR
STARTCHAR C021572
ENCODING 9082
SWIDTH 2400 0
DWIDTH 24 0
BBX 11 13 7 0
BITMAP
FFC0
01C0
01C0
0380
0700
0E00
0E00
1C00
3800
7000
7000
E000
FFE0
ENDCHAR
STARTCHAR C021573
ENCODING 9083
SWIDTH 2400 0
DWIDTH 24 0
BBX 8 21 9 -3
BITMAP
1F
3C
38
38
38
38
38
38
38
38
F0
78
38
38
38
38
38
38
38
3C
1F
ENDCHAR
STARTCHAR C021574
ENCODING 9084
SWIDTH 2400 0
DWIDTH 24 0
BBX 3 20 11 -2
BITMAP
E0
E0
E0
E0
E0
E0
E0
E0
E0
E0
E0
E0
E0
E0
E0
E0
E0
E0
E0
E0
ENDCHAR
STARTCHAR C021575
ENCODING 9085
SWIDTH 2400 0
DWIDTH 24 0
BBX 7 21 9 -3
BITMAP
E0
38
38
38
38
38
38
18
18
38
1E
3C
38
38
38
38
38
38
38
78
E0
ENDCHAR
STARTCHAR C021576
ENCODING 9086
SWIDTH 2400 0
DWIDTH 24 0
BBX 14 1 6 7
BITMAP
FFFC
ENDCHAR
STARTCHAR C021577
ENCODING 9087
SWIDTH 2400 0
DWIDTH 24 0
BBX 0 0 0 0
BITMAP
ENDCHAR
STARTCHAR C022040
ENCODING 9248
SWIDTH 2400 0
DWIDTH 24 0
BBX 1 1 24 11
BITMAP
80
ENDCHAR
STARTCHAR C022041
ENCODING 9249
SWIDTH 2400 0
DWIDTH 24 0
BBX 14 12 5 0
BITMAP
FFFC
001C
001C
001C
001C
001C
001C
001C
001C
001C
001C
001C
ENDCHAR
STARTCHAR C022042
ENCODING 9250
SWIDTH 2400 0
DWIDTH 24 0
BBX 16 12 4 0
BITMAP
FFFF
0307
0307
0307
0307
0307
0307
0307
0307
0307
0307
0307
ENDCHAR
STARTCHAR C022043
ENCODING 9251
SWIDTH 2400 0
DWIDTH 24 0
BBX 18 12 3 0
BITMAP
FF9C00
039C00
039C00
039C00
039C00
039C00
03BE00
03B600
03B700
03E380
03E1C0
03C0C0
ENDCHAR
STARTCHAR C022044
ENCODING 9252
SWIDTH 2400 0
DWIDTH 24 0
BBX 16 12 5 0
BITMAP
E000
E000
E000
E000
E000
E000
E000
E000
E000
E000
E000
FFFF
ENDCHAR
STARTCHAR C022045
ENCODING 9253
SWIDTH 2400 0
DWIDTH 24 0
BBX 18 12 4 0
BITMAP
E1FFC0
E01C00
E01C00
E01C00
E01C00
E03E00
E03E00
E07700
E06300
E0E380
EFC1C0
FD80C0
ENDCHAR
STARTCHAR C022046
ENCODING 9254
SWIDTH 2400 0
DWIDTH 24 0
BBX 18 13 4 -1
BITMAP
E07E00
E00000
E00000
E3FFC0
E00000
E00000
E07E00
E0E300
E1C300
E1C300
FFC300
FCE300
007E00
ENDCHAR
STARTCHAR C022047
ENCODING 9255
SWIDTH 2400 0
DWIDTH 24 0
BBX 15 12 5 0
BITMAP
FFFE
E000
E000
E000
E000
E000
E000
E000
E000
E000
E000
FFFE
ENDCHAR
STARTCHAR C022050
ENCODING 9256
SWIDTH 2400 0
DWIDTH 24 0
BBX 18 12 4 0
BITMAP
FFFF80
E06000
E06000
E06000
E06000
E06000
E06000
E06000
E06000
E3E000
FF6000
F07FC0
ENDCHAR
STARTCHAR C022051
ENCODING 9257
SWIDTH 2400 0
DWIDTH 24 0
BBX 15 12 5 0
BITMAP
FFFC
001C
001C
001C
001C
7FFC
6000
6000
6000
6000
6000
7FFE
ENDCHAR
STARTCHAR C022052
ENCODING 9258
SWIDTH 2400 0
DWIDTH 24 0
BBX 18 12 3 0
BITMAP
FFFFC0
0381C0
0381C0
0381C0
0381C0
FF81C0
E001C0
E001C0
E001C0
E001C0
E7C1C0
FE01C0
ENDCHAR
STARTCHAR C022053
ENCODING 9259
SWIDTH 2400 0
DWIDTH 24 0
BBX 18 12 3 0
BITMAP
FF3FC0
0339C0
0339C0
0339C0
0339C0
7F39C0
7039C0
7039C0
7039C0
7039C0
73F9C0
7FBFC0
ENDCHAR
STARTCHAR C022054
ENCODING 9260
SWIDTH 2400 0
DWIDTH 24 0
BBX 18 12 3 0
BITMAP
7F81C0
01B1C0
01B1C0
01B1C0
01B1C0
FFBFC0
E031C0
E031C0
E039C0
E039C0
E7B9C0
FF3FC0
ENDCHAR
STARTCHAR C022055
ENCODING 9261
SWIDTH 2400 0
DWIDTH 24 0
BBX 19 12 3 0
BITMAP
FF0E00
070E00
070E00
070E00
070E00
FF0E00
E01F00
E01B00
E01B80
E031C0
E7F0E0
FEE060
ENDCHAR
STARTCHAR C022056
ENCODING 9262
SWIDTH 2400 0
DWIDTH 24 0
BBX 19 12 3 0
BITMAP
FFBFE0
03B800
03B800
03B800
03B800
FFBFC0
E03800
E03800
E03800
E03800
E7F800
FF3FE0
ENDCHAR
STARTCHAR C022057
ENCODING 9263
SWIDTH 2400 0
DWIDTH 24 0
BBX 19 12 3 0
BITMAP
FFFFE0
070000
070000
077180
077180
FF3380
E03380
E03300
E03300
E03B00
EFBB00
FEFFE0
ENDCHAR
STARTCHAR C022060
ENCODING 9264
SWIDTH 2400 0
DWIDTH 24 0
BBX 19 13 3 -1
BITMAP
FF3F80
070000
070000
07FFE0
070000
FF0000
E01F80
E031C0
E060E0
E060E0
E7E0E0
FE31C0
001F80
ENDCHAR
STARTCHAR C022061
ENCODING 9265
SWIDTH 2400 0
DWIDTH 24 0
BBX 13 12 6 0
BITMAP
FFF8
C018
C018
C018
C018
C018
C018
C018
C018
C018
C018
FFF8
ENDCHAR
STARTCHAR C022062
ENCODING 9266
SWIDTH 2400 0
DWIDTH 24 0
BBX 13 12 6 0
BITMAP
C038
C038
C038
C038
C038
FFF8
C038
C038
C038
C038
C038
FFF8
ENDCHAR
STARTCHAR C022063
ENCODING 9267
SWIDTH 2400 0
DWIDTH 24 0
BBX 17 12 4 0
BITMAP
E77380
E77380
E77380
E77380
E77380
FF7F80
E77380
E77380
E77380
E77380
E77380
FF7F80
ENDCHAR
STARTCHAR C022064
ENCODING 9268
SWIDTH 2400 0
DWIDTH 24 0
BBX 18 12 4 0
BITMAP
C01C00
C71C00
C71C00
C71C00
C71C00
FF1C00
C73E00
C73600
C73700
C76380
C7E1C0
FFC0C0
ENDCHAR
STARTCHAR C022065
ENCODING 9269
SWIDTH 2400 0
DWIDTH 24 0
BBX 17 12 4 0
BITMAP
01C000
01C000
01C000
01C000
01C000
03E000
036000
073000
0E3800
1C1E00
780F00
E00380
ENDCHAR
STARTCHAR C022066
ENCODING 9270
SWIDTH 2400 0
DWIDTH 24 0
BBX 19 13 3 -1
BITMAP
0E0E00
0E0E00
0E0E00
0E0E00
0E0E00
0E0E00
1F1F00
1B1F00
3B9B80
71F980
6071C0
C0E0E0
00C000
ENDCHAR
STARTCHAR C022067
ENCODING 9271
SWIDTH 2400 0
DWIDTH 24 0
BBX 15 12 5 0
BITMAP
0FE0
3838
600C
C00E
C006
C006
C006
C006
E00E
600C
3838
0FE0
ENDCHAR
STARTCHAR C022070
ENCODING 9272
SWIDTH 2400 0
DWIDTH 24 0
BBX 16 12 4 0
BITMAP
FFFF
0180
01C0
01C0
03C0
03E0
0760
0E70
0C38
381C
700F
6003
ENDCHAR
STARTCHAR C022071
ENCODING 9273
SWIDTH 2400 0
DWIDTH 24 0
BBX 19 12 3 0
BITMAP
7FFFE0
0E0E00
0E0E00
0E0E00
0E0E00
1F1F00
1B1B00
1B9B80
31F180
70F1C0
E0E0E0
C0C060
ENDCHAR
STARTCHAR C022072
ENCODING 9274
SWIDTH 2400 0
DWIDTH 24 0
BBX 16 12 4 0
BITMAP
0FF8
0000
0000
7FFF
0180
01C0
03C0
0760
0E70
1C38
F80F
C003
ENDCHAR
STARTCHAR C022073
ENCODING 9275
SWIDTH 2400 0
DWIDTH 24 0
BBX 16 12 4 0
BITMAP
FFFF
0007
0007
0007
0007
0036
FFF6
0006
0006
000E
000C
000C
ENDCHAR
STARTCHAR C022074
ENCODING 9276
SWIDTH 2400 0
DWIDTH 24 0
BBX 14 12 6 0
BITMAP
FFFC
C000
C000
C000
C000
FFFC
C000
C000
C000
C000
C000
FFFC
ENDCHAR
STARTCHAR C022075
ENCODING 9277
SWIDTH 2400 0
DWIDTH 24 0
BBX 17 12 4 0
BITMAP
7FFF00
000000
000000
000000
0C1800
0C1800
0C1800
0C1800
0C3800
0C3800
0E3000
FFFF80
ENDCHAR
STARTCHAR C022076
ENCODING 9278
SWIDTH 2400 0
DWIDTH 24 0
BBX 16 14 4 -1
BITMAP
1FF8
0000
0000
0000
FFFF
0000
07E0
1E38
380C
380C
380C
380C
1E38
07E0
ENDCHAR
STARTCHAR C022077
ENCODING 9279
SWIDTH 2400 0
DWIDTH 24 0
BBX 8 20 10 -4
BITMAP
C0
C0
C0
C0
C0
C0
C0
C0
C0
FF
C0
C0
C0
C0
C0
C0
C0
C0
C0
C0
ENDCHAR
STARTCHAR C022100
ENCODING 9280
SWIDTH 2400 0
DWIDTH 24 0
BBX 8 20 8 -4
BITMAP
E7
E7
E7
E7
E7
E7
E7
E7
E7
FF
E7
E7
E7
E7
E7
E7
E7
E7
E7
07
ENDCHAR
STARTCHAR C022101
ENCODING 9281
SWIDTH 2400 0
DWIDTH 24 0
BBX 8 20 10 -4
BITMAP
E0
E0
E0
E0
E0
E0
FF
E0
E0
E0
E0
E0
FF
E0
E0
E0
E0
E0
E0
E0
ENDCHAR
STARTCHAR C022102
ENCODING 9282
SWIDTH 2400 0
DWIDTH 24 0
BBX 8 20 8 -4
BITMAP
E7
E7
E7
E7
E7
E7
FF
E7
E7
E7
E7
FF
E7
E7
E7
E7
E7
E7
E7
07
ENDCHAR
STARTCHAR C022103
ENCODING 9283
SWIDTH 2400 0
DWIDTH 24 0
BBX 9 20 7 -4
BITMAP
0380
0380
0380
0380
0380
0380
0380
0380
0380
FF80
0380
0380
0380
0380
0380
0380
0380
0380
0380
0380
ENDCHAR
STARTCHAR C022104
ENCODING 9284
SWIDTH 2400 0
DWIDTH 24 0
BBX 12 20 5 -4
BITMAP
0070
0770
0770
0770
0770
0770
0770
0770
0770
FF70
0770
0770
0770
0770
0770
0770
0770
0770
0770
0070
ENDCHAR
STARTCHAR C022105
ENCODING 9285
SWIDTH 2400 0
DWIDTH 24 0
BBX 10 21 6 -4
BITMAP
01C0
01C0
01C0
01C0
01C0
01C0
01C0
FFC0
01C0
01C0
01C0
01C0
01C0
FFC0
01C0
01C0
01C0
01C0
01C0
01C0
01C0
ENDCHAR
STARTCHAR C022106
ENCODING 9286
SWIDTH 2400 0
DWIDTH 24 0
BBX 12 20 5 -4
BITMAP
0030
0730
0730
0730
0730
0730
FF30
0730
0730
0730
0730
0730
FF30
0730
0730
0730
0730
0730
0030
0030
ENDCHAR
STARTCHAR C022107
ENCODING 9287
SWIDTH 2400 0
DWIDTH 24 0
BBX 20 11 2 1
BITMAP
006000
006000
006000
006000
006000
006000
006000
006000
006000
006000
FFFFF0
ENDCHAR
STARTCHAR C022110
ENCODING 9288
SWIDTH 2400 0
DWIDTH 24 0
BBX 20 21 2 -4
BITMAP
000700
000700
000700
000700
000700
038700
038700
038700
038700
038700
0387F0
038700
038700
038F00
FFFF00
FF0700
000700
000700
000700
000700
000700
ENDCHAR
STARTCHAR C022111
ENCODING 9289
SWIDTH 2400 0
DWIDTH 24 0
BBX 18 21 2 -4
BITMAP
0001C0
001DC0
001DC0
001DC0
001DC0
071DC0
071DC0
071DC0
071DC0
071DC0
071DC0
071FC0
071DC0
07FDC0
FFDDC0
001DC0
001DC0
001DC0
001DC0
001DC0
0001C0
ENDCHAR
STARTCHAR C022112
ENCODING 9290
SWIDTH 2400 0
DWIDTH 24 0
BBX 17 20 3 -4
BITMAP
000380
000380
000380
000380
000380
038380
038380
038380
038380
038380
038380
038380
039F80
3FFB80
F80380
000380
000380
000380
000380
000380
ENDCHAR
STARTCHAR C022113
ENCODING 9291
SWIDTH 2400 0
DWIDTH 24 0
BBX 20 11 2 1
BITMAP
000600
030600
030600
030E00
030E00
030E00
030E00
030C00
030C00
030C00
FFFFF0
ENDCHAR
STARTCHAR C022114
ENCODING 9292
SWIDTH 2400 0
DWIDTH 24 0
BBX 20 16 2 -3
BITMAP
FFFFF0
006000
006000
006000
006000
006000
006000
006000
006000
006000
006000
006000
006000
006000
006000
006000
ENDCHAR
STARTCHAR C022115
ENCODING 9293
SWIDTH 2400 0
DWIDTH 24 0
BBX 17 21 3 -4
BITMAP
000380
000380
000380
000380
000380
000380
0FFF80
FFC380
038380
038380
038380
03FF80
038380
038380
038380
038380
038380
038380
038380
000380
000380
ENDCHAR
STARTCHAR C022116
ENCODING 9294
SWIDTH 2400 0
DWIDTH 24 0
BBX 17 20 3 -4
BITMAP
001B80
001B80
001B80
001B80
001B80
007B80
FFFB80
0E1B80
0E1B80
0E1B80
0FFB80
0E1B80
0E1B80
0E1B80
0E1B80
0E1B80
0E1B80
001B80
001B80
000380
ENDCHAR
STARTCHAR C022117
ENCODING 9295
SWIDTH 2400 0
DWIDTH 24 0
BBX 16 20 3 -4
BITMAP
0007
0007
0007
0007
0007
0007
03FF
FFFF
0187
0187
0187
0187
0187
0187
0187
0187
0187
0187
0007
0007
ENDCHAR
STARTCHAR C022120
ENCODING 9296
SWIDTH 2400 0
DWIDTH 24 0
BBX 19 16 3 -3
BITMAP
FFFFE0
070C00
070C00
070C00
070C00
070C00
070C00
070C00
070C00
070C00
070C00
070C00
070C00
070C00
070C00
070C00
ENDCHAR
STARTCHAR C022121
ENCODING 9297
SWIDTH 2400 0
DWIDTH 24 0
BBX 19 1 3 6
BITMAP
FFFFE0
ENDCHAR
STARTCHAR C022122
ENCODING 9298
SWIDTH 2400 0
DWIDTH 24 0
BBX 16 20 3 -4
BITMAP
0007
0007
0007
0007
0007
0007
0007
0007
0007
0007
000F
07FF
FF07
0007
0007
0007
0007
0007
0007
0007
ENDCHAR
STARTCHAR C022123
ENCODING 9299
SWIDTH 2400 0
DWIDTH 24 0
BBX 2 21 11 -4
BITMAP
C0
C0
C0
C0
C0
C0
C0
C0
C0
C0
C0
C0
C0
C0
C0
C0
C0
C0
C0
C0
C0
ENDCHAR
STARTCHAR C022124
ENCODING 9300
SWIDTH 2400 0
DWIDTH 24 0
BBX 1 11 24 0
BITMAP
80
80
80
80
80
80
80
80
80
80
80
ENDCHAR
STARTCHAR C022125
ENCODING 9301
SWIDTH 2400 0
DWIDTH 24 0
BBX 18 12 4 0
BITMAP
00E000
C0E000
C0E000
C0E000
C0E000
C0E000
C0E000
C0E000
C0E000
C3E000
FFE000
F8FFC0
ENDCHAR
STARTCHAR C022126
ENCODING 9302
SWIDTH 2400 0
DWIDTH 24 0
BBX 18 12 4 0
BITMAP
C00000
C0FF80
C0E000
C0E000
C0E000
C0E000
C0E000
C0E000
C0E000
C7E000
FEE000
00FFC0
ENDCHAR
STARTCHAR C022127
ENCODING 9303
SWIDTH 2400 0
DWIDTH 24 0
BBX 18 12 4 0
BITMAP
001C00
C01C00
C01C00
C01C00
C01C00
C01C00
C03E00
C03600
C03300
C06180
FEC1C0
FC00C0
ENDCHAR
STARTCHAR C022130
ENCODING 9304
SWIDTH 2400 0
DWIDTH 24 0
BBX 17 12 4 0
BITMAP
C00000
C01800
C03C00
C03C00
C03C00
C07E00
C06600
C06700
C0E300
C6C300
FEC380
01FF80
ENDCHAR
STARTCHAR C022131
ENCODING 9305
SWIDTH 2400 0
DWIDTH 24 0
BBX 20 12 3 0
BITMAP
000380
FFF380
0C7380
0C7380
0C7380
FC7380
E077C0
E076C0
E076E0
E37E60
FF7C70
007000
ENDCHAR
STARTCHAR C022132
ENCODING 9306
SWIDTH 2400 0
DWIDTH 24 0
BBX 19 11 3 0
BITMAP
FFBFE0
03B800
03B800
03B800
7FB800
703800
703800
703800
703800
71F800
7FBFE0
ENDCHAR
STARTCHAR C022133
ENCODING 9307
SWIDTH 2400 0
DWIDTH 24 0
BBX 20 12 3 0
BITMAP
003800
FFBB80
0FBB80
0FBB80
0FBB80
7FFB80
63BBC0
63BFC0
63BEC0
63BE60
7FBC60
03FC30
ENDCHAR
STARTCHAR C022134
ENCODING 9308
SWIDTH 2400 0
DWIDTH 24 0
BBX 18 12 4 0
BITMAP
001800
FF1C00
031C00
033E00
033E00
FF3600
E07700
E06300
E06380
E0E180
E0E180
FFFFC0
ENDCHAR
STARTCHAR C022135
ENCODING 9309
SWIDTH 2400 0
DWIDTH 24 0
BBX 19 11 3 0
BITMAP
FFFFE0
030000
030000
031F00
FF3180
E060C0
E060C0
E060C0
E060C0
EFF180
FF1F00
ENDCHAR
STARTCHAR C022136
ENCODING 9310
SWIDTH 2400 0
DWIDTH 24 0
BBX 17 12 4 0
BITMAP
006180
FF6180
C76180
C76180
C76180
C77F80
C76180
C76180
C76180
C76180
C76180
FF7F80
ENDCHAR
STARTCHAR C022137
ENCODING 9311
SWIDTH 2400 0
DWIDTH 24 0
BBX 18 12 4 0
BITMAP
001C00
FF1C00
C71C00
C71C00
C71C00
C71C00
C73E00
C73600
C73300
C76380
C7C1C0
FF00C0
ENDCHAR
STARTCHAR C022140
ENCODING 9312
SWIDTH 2400 0
DWIDTH 24 0
BBX 18 12 4 0
BITMAP
000C00
FF1C00
C71C00
C71E00
C73E00
C73600
C73700
C77300
C76380
C76180
C7E180
FFFFC0
ENDCHAR
STARTCHAR C022141
ENCODING 9313
SWIDTH 2400 0
DWIDTH 24 0
BBX 11 17 7 -3
BITMAP
FFE0
C0E0
C0E0
C0E0
C0E0
C0E0
C0E0
FFE0
0000
0000
3F80
60C0
C060
C060
C060
60C0
3F80
ENDCHAR
STARTCHAR C022142
ENCODING 9314
SWIDTH 2400 0
DWIDTH 24 0
BBX 17 12 4 0
BITMAP
C70000
C7FF80
C70380
C70380
C70380
FF0380
C70380
C70380
C70380
C70380
C70380
FF0380
ENDCHAR
STARTCHAR C022143
ENCODING 9315
SWIDTH 2400 0
DWIDTH 24 0
BBX 17 12 4 0
BITMAP
C70000
C7FF80
C7E000
C7E000
C7E000
FFE000
C7E000
C7E000
C7E000
C7E000
C7E000
FFFF80
ENDCHAR
STARTCHAR C022144
ENCODING 9316
SWIDTH 2400 0
DWIDTH 24 0
BBX 17 12 4 0
BITMAP
DC0000
DDDF80
DDC180
DDC180
DDC180
FDC180
DDE180
DFE180
DF6180
DF3180
DE3180
FE1980
ENDCHAR
STARTCHAR C022145
ENCODING 9317
SWIDTH 2400 0
DWIDTH 24 0
BBX 19 12 3 0
BITMAP
EEE000
EEE7E0
EEE600
EEE600
EEE600
FEE600
EEF600
EFB600
EFBE00
EF9E00
EF1E00
FE07E0
ENDCHAR
STARTCHAR C022146
ENCODING 9318
SWIDTH 2400 0
DWIDTH 24 0
BBX 18 12 4 0
BITMAP
C70000
C7FFC0
C71C00
C71C00
C71C00
FF1C00
C73E00
C73600
C77700
C7E380
C7C180
FF81C0
ENDCHAR
STARTCHAR C022147
ENCODING 9319
SWIDTH 2400 0
DWIDTH 24 0
BBX 17 12 4 0
BITMAP
C70000
C77F80
C76000
C76000
C76000
FF7F00
C76000
C76000
C76000
C76000
C76000
FF7F80
ENDCHAR
STARTCHAR C022150
ENCODING 9320
SWIDTH 2400 0
DWIDTH 24 0
BBX 11 18 7 -3
BITMAP
C000
C0E0
C0E0
C0E0
FFE0
C0E0
C0E0
C0E0
FFE0
0000
0000
3F80
60C0
C060
C060
C060
60C0
3F80
ENDCHAR
STARTCHAR C022151
ENCODING 9321
SWIDTH 2400 0
DWIDTH 24 0
BBX 15 19 5 -3
BITMAP
EFCE
EFCE
EFCE
EFCE
FFFE
EFCE
EFCE
EFCE
EFCE
FFFE
0000
0000
0FE0
1830
3018
3018
3018
1830
0FE0
ENDCHAR
STARTCHAR C022152
ENCODING 9322
SWIDTH 2400 0
DWIDTH 24 0
BBX 17 12 4 0
BITMAP
1C0000
1CFF80
1C0380
1C0380
1C0380
1C0380
3E0380
370380
730380
618380
C1C380
00C380
ENDCHAR
STARTCHAR C022153
ENCODING 9323
SWIDTH 2400 0
DWIDTH 24 0
BBX 19 12 3 0
BITMAP
007000
1C7000
1C7000
1C7000
1C7000
1C7000
3E7000
367000
337000
63F000
E1F000
C0FFE0
ENDCHAR
STARTCHAR C022154
ENCODING 9324
SWIDTH 2400 0
DWIDTH 24 0
BBX 19 12 3 0
BITMAP
1C0000
1C7FC0
1C7000
1C7000
1C7000
1C7000
3E7000
377000
737000
61F000
C1F000
007FE0
ENDCHAR
STARTCHAR C022155
ENCODING 9325
SWIDTH 2400 0
DWIDTH 24 0
BBX 18 12 3 0
BITMAP
0000C0
1C70C0
1C70C0
1C70C0
1C70C0
1C7FC0
3E70C0
3670C0
3370C0
63F0C0
E1F0C0
C0FFC0
ENDCHAR
STARTCHAR C022156
ENCODING 9326
SWIDTH 2400 0
DWIDTH 24 0
BBX 18 12 4 0
BITMAP
1C0000
1DFFC0
1C1C00
1C1C00
1C1C00
1C1C00
3E3E00
373600
737700
60E380
C1C180
0181C0
ENDCHAR
STARTCHAR C022157
ENCODING 9327
SWIDTH 2400 0
DWIDTH 24 0
BBX 13 12 6 0
BITMAP
0600
0700
0F00
0F80
1D80
19C0
38C0
3060
7070
6030
E038
FFF8
ENDCHAR
STARTCHAR C022160
ENCODING 9328
SWIDTH 2400 0
DWIDTH 24 0
BBX 17 11 4 0
BITMAP
7C3E00
EE7700
C7E380
C7E380
C7E380
C7E380
C7E380
C7E380
C7E380
EE7700
7C3E00
ENDCHAR
STARTCHAR C022161
ENCODING 9329
SWIDTH 2400 0
DWIDTH 24 0
BBX 15 16 5 -1
BITMAP
0380
0380
0380
07C0
1FF0
7FFC
783C
F01E
E00E
E00E
E00E
E00E
701C
701C
3C78
0FE0
ENDCHAR
STARTCHAR C022162
ENCODING 9330
SWIDTH 2400 0
DWIDTH 24 0
BBX 18 13 4 0
BITMAP
380000
380000
381C00
FC1C00
FE1C00
EF1C00
C71C00
C73E00
C73600
C73300
C66380
EEE1C0
7DC0C0
ENDCHAR
STARTCHAR C022163
ENCODING 9331
SWIDTH 2400 0
DWIDTH 24 0
BBX 18 13 4 0
BITMAP
380000
380000
381C00
FC1C00
FE3C00
E73E00
C33600
C37700
C36300
C36300
C6E380
E6C180
7CFFC0
ENDCHAR
STARTCHAR C022164
ENCODING 9332
SWIDTH 2400 0
DWIDTH 24 0
BBX 16 17 4 -2
BITMAP
7FFE
0000
0000
0C30
0C30
0C30
0C30
0E30
FFFF
0000
0000
07E0
1C38
1818
1818
1C38
07E0
ENDCHAR
STARTCHAR C022165
ENCODING 9333
SWIDTH 2400 0
DWIDTH 24 0
BBX 20 14 2 -1
BITMAP
3F8FE0
000000
000000
FFFFF0
000000
000000
000000
1F0FC0
71DCE0
60D860
60D860
60D860
71DCE0
3F0FC0
ENDCHAR
STARTCHAR C022166
ENCODING 9334
SWIDTH 2400 0
DWIDTH 24 0
BBX 18 14 3 -1
BITMAP
FFFFC0
000000
000000
000000
000000
000000
03F000
061800
0C0C00
0C0C00
0C0C00
0C0C00
061800
03F000
ENDCHAR
STARTCHAR C022167
ENCODING 9335
SWIDTH 2400 0
DWIDTH 24 0
BBX 19 20 3 -4
BITMAP
000600
000600
000600
00E600
1CE600
1CE600
1CE600
1CE7E0
1CE600
1CE600
1CE600
1CE600
1CFFE0
FFFE00
FC0600
000600
000600
000600
000600
000600
ENDCHAR
STARTCHAR C022170
ENCODING 9336
SWIDTH 2400 0
DWIDTH 24 0
BBX 17 21 3 -4
BITMAP
000380
000380
003B80
003B80
003B80
1C3B80
1FBB80
1FBF80
1FBB80
1FBB80
1FBB80
1FBB80
1FFF80
FFFB80
F83B80
003B80
003B80
003B80
003B80
003B80
000380
ENDCHAR
STARTCHAR C022171
ENCODING 9337
SWIDTH 2400 0
DWIDTH 24 0
BBX 16 20 3 -4
BITMAP
0007
0007
0007
0007
1CC7
1CC7
1CC7
1CC7
1CC7
1CC7
1CC7
1CC7
1CC7
FFFF
FC07
0007
0007
0007
0007
0007
ENDCHAR
STARTCHAR C022172
ENCODING 9338
SWIDTH 2400 0
DWIDTH 24 0
BBX 16 20 3 -4
BITMAP
0003
0003
0003
0003
0003
01FF
FFFF
1DC3
1DC3
1DFF
1DC3
1DC3
1DC3
1DFF
1DC3
1DC3
1DC3
1DC3
0003
0003
ENDCHAR
STARTCHAR C022173
ENCODING 9339
SWIDTH 2400 0
DWIDTH 24 0
BBX 17 21 3 -4
BITMAP
000380
001F80
001F80
001F80
001F80
001F80
07FF80
FFDF80
3B9F80
3B9F80
3BFF80
3B9F80
3B9F80
3B9F80
3BFF80
3B9F80
3B9F80
3B9F80
3B9F80
001F80
000380
ENDCHAR
STARTCHAR C022174
ENCODING 9340
SWIDTH 2400 0
DWIDTH 24 0
BBX 16 20 4 -4
BITMAP
0007
0007
0007
0007
0007
0007
01FF
FFFF
1CE7
1CE7
1CE7
1CE7
1CE7
1CE7
1CE7
1CE7
1CE7
1CE7
0007
0007
ENDCHAR
STARTCHAR C022175
ENCODING 9341
SWIDTH 2400 0
DWIDTH 24 0
BBX 4 4 10 4
BITMAP
F0
F0
F0
F0
ENDCHAR
STARTCHAR C022176
ENCODING 9342
SWIDTH 2400 0
DWIDTH 24 0
BBX 11 20 6 -4
BITMAP
0060
0060
0060
0060
0060
0060
0060
0060
F060
F060
F060
F060
0060
0060
0060
0060
0060
0060
0060
0060
ENDCHAR
STARTCHAR C022177
ENCODING 9343
SWIDTH 2400 0
DWIDTH 24 0
BBX 0 0 0 0
BITMAP
ENDCHAR
STARTCHAR C022440
ENCODING 9504
SWIDTH 2400 0
DWIDTH 24 0
BBX 0 0 0 0
BITMAP
ENDCHAR
STARTCHAR C022441
ENCODING 9505
SWIDTH 2400 0
DWIDTH 24 0
BBX 3 18 11 0
BITMAP
E0
00
00
00
00
00
E0
E0
E0
E0
E0
E0
E0
E0
E0
E0
E0
E0
ENDCHAR
STARTCHAR C022442
ENCODING 9506
SWIDTH 2400 0
DWIDTH 24 0
BBX 9 18 8 0
BITMAP
E380
0000
0000
0000
0000
0000
E380
E380
E380
E380
E380
E380
E380
E380
E380
E380
E380
E380
ENDCHAR
STARTCHAR C022443
ENCODING 9507
SWIDTH 2400 0
DWIDTH 24 0
BBX 13 18 6 0
BITMAP
E738
0000
0000
0000
0000
0000
C738
C738
C738
C738
C738
C738
C738
C738
C738
C738
C738
C738
ENDCHAR
STARTCHAR C022444
ENCODING 9508
SWIDTH 2400 0
DWIDTH 24 0
BBX 12 18 6 0
BITMAP
E000
0000
0000
0000
0000
0000
6C30
6E30
6630
6670
6760
6360
6360
63C0
61C0
61C0
61C0
6000
ENDCHAR
STARTCHAR C022445
ENCODING 9509
SWIDTH 2400 0
DWIDTH 24 0
BBX 9 12 8 0
BITMAP
C180
C300
E300
6300
6600
7600
3600
3C00
3C00
1C00
1800
1800
ENDCHAR
STARTCHAR C022446
ENCODING 9510
SWIDTH 2400 0
DWIDTH 24 0
BBX 14 18 5 0
BITMAP
001C
0000
0000
0000
0000
0000
C19C
C19C
631C
631C
731C
361C
361C
3E1C
1E1C
1C1C
0C1C
0C1C
ENDCHAR
STARTCHAR C022447
ENCODING 9511
SWIDTH 2400 0
DWIDTH 24 0
BBX 16 18 4 0
BITMAP
0077
0000
0000
0000
0000
0000
C337
E737
6637
6637
7637
3E37
3C37
3C37
3C37
1837
1837
1837
ENDCHAR
STARTCHAR C022450
ENCODING 9512
SWIDTH 2400 0
DWIDTH 24 0
BBX 18 18 3 0
BITMAP
00FDC0
000000
000000
000000
000000
000000
C36FC0
E76FC0
666FC0
666FC0
666FC0
7C6FC0
3C6FC0
3C6FC0
3C6FC0
186FC0
186FC0
186FC0
ENDCHAR
STARTCHAR C022451
ENCODING 9513
SWIDTH 2400 0
DWIDTH 24 0
BBX 13 18 6 0
BITMAP
E000
0000
0000
0000
0000
0000
E618
E630
E330
E360
E1E0
E1C0
E1C0
E1E0
E3E0
E370
E630
E638
ENDCHAR
STARTCHAR C022452
ENCODING 9514
SWIDTH 2400 0
DWIDTH 24 0
BBX 8 12 8 0
BITMAP
C3
E3
66
36
3C
18
18
3C
3E
66
63
C3
ENDCHAR
STARTCHAR C022453
ENCODING 9515
SWIDTH 2400 0
DWIDTH 24 0
BBX 0 0 0 0
BITMAP
ENDCHAR
STARTCHAR C022454
ENCODING 9516
SWIDTH 2400 0
DWIDTH 24 0
BBX 0 0 0 0
BITMAP
ENDCHAR
STARTCHAR C022455
ENCODING 9517
SWIDTH 2400 0
DWIDTH 24 0
BBX 0 0 0 0
BITMAP
ENDCHAR
STARTCHAR C022456
ENCODING 9518
SWIDTH 2400 0
DWIDTH 24 0
BBX 0 0 0 0
BITMAP
ENDCHAR
STARTCHAR C022457
ENCODING 9519
SWIDTH 2400 0
DWIDTH 24 0
BBX 0 0 0 0
BITMAP
ENDCHAR
STARTCHAR C022460
ENCODING 9520
SWIDTH 2400 0
DWIDTH 24 0
BBX 3 17 11 0
BITMAP
E0
E0
E0
E0
E0
E0
E0
E0
E0
E0
E0
E0
E0
E0
E0
E0
E0
ENDCHAR
STARTCHAR C022461
ENCODING 9521
SWIDTH 2400 0
DWIDTH 24 0
BBX 10 17 7 0
BITMAP
E1C0
E1C0
E1C0
E1C0
E1C0
E1C0
E1C0
E1C0
E1C0
E1C0
E1C0
E1C0
E1C0
E1C0
E1C0
E1C0
E1C0
ENDCHAR
STARTCHAR C022462
ENCODING 9522
SWIDTH 2400 0
DWIDTH 24 0
BBX 13 17 6 0
BITMAP
C738
C738
C738
C738
C738
C738
C738
C738
C738
C738
C738
C738
C738
C738
C738
C738
C738
ENDCHAR
STARTCHAR C022463
ENCODING 9523
SWIDTH 2400 0
DWIDTH 24 0
BBX 13 17 6 0
BITMAP
F818
FC18
EC18
EC38
EE30
EE30
E630
E660
E760
E360
E360
E3C0
E3C0
E1C0
E1C0
E180
E180
ENDCHAR
STARTCHAR C022464
ENCODING 9524
SWIDTH 2400 0
DWIDTH 24 0
BBX 10 17 7 0
BITMAP
C0C0
C0C0
E0C0
61C0
6180
7180
7180
3380
3300
3B00
1F00
1E00
1E00
0E00
0E00
0C00
0C00
ENDCHAR
STARTCHAR C022465
ENCODING 9525
SWIDTH 2400 0
DWIDTH 24 0
BBX 13 17 5 0
BITMAP
C0D8
C198
E198
6198
6198
6318
7318
3318
3318
3F18
1E18
1E18
1E18
1E18
0C18
0C18
0C18
ENDCHAR
STARTCHAR C022466
ENCODING 9526
SWIDTH 2400 0
DWIDTH 24 0
BBX 17 17 3 0
BITMAP
C0DF80
E1DF80
619F80
619F80
619F80
739F80
331F80
331F80
331F80
3B1F80
1E1F80
1E1F80
1E1F80
0E1F80
0C1F80
0C1F80
0C1F80
ENDCHAR
STARTCHAR C022467
ENCODING 9527
SWIDTH 2400 0
DWIDTH 24 0
BBX 18 17 3 0
BITMAP
C37FC0
C37FC0
E37FC0
E37FC0
677FC0
667FC0
667FC0
767FC0
367FC0
3C7FC0
3C7FC0
3C7FC0
3C7FC0
1C7FC0
187FC0
187FC0
187FC0
ENDCHAR
STARTCHAR C022470
ENCODING 9528
SWIDTH 2400 0
DWIDTH 24 0
BBX 13 17 6 0
BITMAP
CC38
CC30
CE30
C660
C760
C3E0
C3C0
C1C0
C180
C1C0
C3C0
C3C0
C360
C660
C670
CC30
CC38
ENDCHAR
STARTCHAR C022471
ENCODING 9529
SWIDTH 2400 0
DWIDTH 24 0
BBX 9 17 8 0
BITMAP
C180
C300
E300
6600
7600
3E00
3C00
1C00
1800
1C00
3C00
3E00
7600
6700
6300
C300
C180
ENDCHAR
STARTCHAR C022472
ENCODING 9530
SWIDTH 2400 0
DWIDTH 24 0
BBX 0 0 0 0
BITMAP
ENDCHAR
STARTCHAR C022473
ENCODING 9531
SWIDTH 2400 0
DWIDTH 24 0
BBX 0 0 0 0
BITMAP
ENDCHAR
STARTCHAR C022474
ENCODING 9532
SWIDTH 2400 0
DWIDTH 24 0
BBX 0 0 0 0
BITMAP
ENDCHAR
STARTCHAR C022475
ENCODING 9533
SWIDTH 2400 0
DWIDTH 24 0
BBX 0 0 0 0
BITMAP
ENDCHAR
STARTCHAR C022476
ENCODING 9534
SWIDTH 2400 0
DWIDTH 24 0
BBX 0 0 0 0
BITMAP
ENDCHAR
STARTCHAR C022477
ENCODING 9535
SWIDTH 2400 0
DWIDTH 24 0
BBX 0 0 0 0
BITMAP
ENDCHAR
STARTCHAR C022500
ENCODING 9536
SWIDTH 2400 0
DWIDTH 24 0
BBX 0 0 0 0
BITMAP
ENDCHAR
STARTCHAR C022501
ENCODING 9537
SWIDTH 2400 0
DWIDTH 24 0
BBX 14 17 5 0
BITMAP
0030
0070
0070
00F0
01F0
0370
0378
0638
0C38
0C38
1838
1838
3FF8
3018
6018
E01C
C01C
ENDCHAR
STARTCHAR C022502
ENCODING 9538
SWIDTH 2400 0
DWIDTH 24 0
BBX 13 17 6 0
BITMAP
0FE0
0FF0
1C18
1818
1818
1818
3838
39F0
3FC0
3060
7070
6030
6030
6070
E070
C1E0
FF80
ENDCHAR
STARTCHAR C022503
ENCODING 9539
SWIDTH 2400 0
DWIDTH 24 0
BBX 14 17 5 0
BITMAP
007C
07FC
0E00
0C00
0C00
0C00
1C00
1800
1800
3800
3000
3000
3000
7000
6000
6000
E000
ENDCHAR
STARTCHAR C022504
ENCODING 9540
SWIDTH 2400 0
DWIDTH 24 0
BBX 14 17 4 0
BITMAP
0038
0038
00F8
00F8
01B8
0338
033C
063C
0C3C
0C1C
181C
301C
301C
601C
C01C
C01C
FFFC
ENDCHAR
STARTCHAR C022505
ENCODING 9541
SWIDTH 2400 0
DWIDTH 24 0
BBX 15 17 5 0
BITMAP
07FE
0FFC
0C00
0C00
1C00
1800
1800
1C00
3FF0
3000
3000
7000
6000
6000
6000
E000
FFE0
ENDCHAR
STARTCHAR C022506
ENCODING 9542
SWIDTH 2400 0
DWIDTH 24 0
BBX 16 17 4 0
BITMAP
0FFF
0FFE
000E
001C
0038
0070
0060
00C0
01C0
0380
0700
0E00
0C00
1800
3800
7000
FFF8
ENDCHAR
STARTCHAR C022507
ENCODING 9543
SWIDTH 2400 0
DWIDTH 24 0
BBX 16 17 4 0
BITMAP
0003
0C03
0C03
0C03
1C06
1806
1806
380E
3FFC
300C
301C
7018
6018
6018
E038
C030
C030
ENDCHAR
STARTCHAR C022510
ENCODING 9544
SWIDTH 2400 0
DWIDTH 24 0
BBX 14 17 5 0
BITMAP
07E0
0C38
181C
300C
700C
600C
600C
E00C
DFEC
C00C
C01C
C018
C038
E030
6070
3DC0
0F80
ENDCHAR
STARTCHAR C022511
ENCODING 9545
SWIDTH 2400 0
DWIDTH 24 0
BBX 5 17 10 0
BITMAP
18
38
38
30
30
30
30
70
60
60
60
60
E0
C0
C0
C0
C0
ENDCHAR
STARTCHAR C022512
ENCODING 9546
SWIDTH 2400 0
DWIDTH 24 0
BBX 13 17 6 0
BITMAP
1818
1830
1860
18C0
3980
3300
3700
3F00
3B00
7380
7180
6180
60C0
60C0
6060
E060
E070
ENDCHAR
STARTCHAR C022513
ENCODING 9547
SWIDTH 2400 0
DWIDTH 24 0
BBX 12 17 6 0
BITMAP
00C0
01C0
01C0
03C0
03E0
06E0
06E0
0C60
0C60
1C60
1860
1870
3070
3070
6030
6030
C030
ENDCHAR
STARTCHAR C022514
ENCODING 9548
SWIDTH 2400 0
DWIDTH 24 0
BBX 17 17 4 0
BITMAP
180300
3C0780
3C0700
3C0F00
3C0F00
3C1B00
3E1F00
7E3700
6E3600
666600
666600
66C600
67CE00
E78E00
E78C00
C30C00
C30C00
ENDCHAR
STARTCHAR C022515
ENCODING 9549
SWIDTH 2400 0
DWIDTH 24 0
BBX 14 17 5 0
BITMAP
000C
1C0C
1C0C
1E0C
1E1C
3E18
3718
3318
3318
33B8
71B8
61B0
61F0
60F0
60F0
E0F0
C060
ENDCHAR
STARTCHAR C022516
ENCODING 9550
SWIDTH 2400 0
DWIDTH 24 0
BBX 14 17 5 0
BITMAP
0FFC
1FFC
0000
0000
0000
0000
0000
0000
1FF0
0000
0000
0000
0000
0000
0000
0000
FFF0
ENDCHAR
STARTCHAR C022517
ENCODING 9551
SWIDTH 2400 0
DWIDTH 24 0
BBX 14 17 5 0
BITMAP
03C0
1FF0
3838
301C
701C
600C
E00C
E00C
C00C
C01C
C01C
C018
C038
E030
6070
78E0
1FC0
ENDCHAR
STARTCHAR C022520
ENCODING 9552
SWIDTH 2400 0
DWIDTH 24 0
BBX 14 16 5 0
BITMAP
1FFC
180C
380C
301C
3018
3018
3018
7018
6038
6038
6030
6030
6030
E030
C070
C070
ENDCHAR
STARTCHAR C022521
ENCODING 9553
SWIDTH 2400 0
DWIDTH 24 0
BBX 13 16 6 0
BITMAP
1FE0
1870
3830
3038
3030
3030
3070
7FC0
6000
6000
6000
6000
E000
C000
C000
C000
ENDCHAR
STARTCHAR C022522
ENCODING 9554
SWIDTH 2400 0
DWIDTH 24 0
BBX 14 17 6 0
BITMAP
1FFC
3FFC
1C00
0C00
0E00
0700
0300
0380
0380
0700
0E00
0C00
1800
3800
7000
E000
FFF0
ENDCHAR
STARTCHAR C022523
ENCODING 9555
SWIDTH 2400 0
DWIDTH 24 0
BBX 13 16 6 0
BITMAP
FFF8
0700
0600
0600
0600
0600
0E00
0E00
0C00
0C00
0C00
0C00
1C00
1C00
1800
1800
ENDCHAR
STARTCHAR C022524
ENCODING 9556
SWIDTH 2400 0
DWIDTH 24 0
BBX 12 16 7 0
BITMAP
C030
E060
60E0
61C0
3180
3300
3F00
1E00
1C00
1C00
1800
1800
1800
1800
3800
3800
ENDCHAR
STARTCHAR C022525
ENCODING 9557
SWIDTH 2400 0
DWIDTH 24 0
BBX 15 17 4 0
BITMAP
00C0
00C0
07F0
1CFC
38CC
70C6
61C6
E1C6
E1C6
E186
E186
F386
7B8C
3FB8
1FE0
0600
0600
ENDCHAR
STARTCHAR C022526
ENCODING 9558
SWIDTH 2400 0
DWIDTH 24 0
BBX 13 17 5 0
BITMAP
1818
0C38
0C30
0E60
06E0
07C0
0380
0300
0780
0780
0D80
18C0
38C0
30E0
6060
E060
C000
ENDCHAR
STARTCHAR C022527
ENCODING 9559
SWIDTH 2400 0
DWIDTH 24 0
BBX 15 16 5 0
BITMAP
6186
618E
638E
638C
E30C
E30C
C30C
C31C
C71C
F738
3FF0
0600
0600
0E00
0C00
0C00
ENDCHAR
STARTCHAR C022530
ENCODING 9560
SWIDTH 2400 0
DWIDTH 24 0
BBX 16 17 4 0
BITMAP
01E0
0FF8
1C0C
180E
3807
3007
3007
3007
7007
3006
300E
300C
1818
0CF0
0CC0
0CC0
FDFE
ENDCHAR
STARTCHAR C022531
ENCODING 9561
SWIDTH 2400 0
DWIDTH 24 0
BBX 0 0 0 0
BITMAP
ENDCHAR
STARTCHAR C022532
ENCODING 9562
SWIDTH 2400 0
DWIDTH 24 0
BBX 0 0 0 0
BITMAP
ENDCHAR
STARTCHAR C022533
ENCODING 9563
SWIDTH 2400 0
DWIDTH 24 0
BBX 0 0 0 0
BITMAP
ENDCHAR
STARTCHAR C022534
ENCODING 9564
SWIDTH 2400 0
DWIDTH 24 0
BBX 0 0 0 0
BITMAP
ENDCHAR
STARTCHAR C022535
ENCODING 9565
SWIDTH 2400 0
DWIDTH 24 0
BBX 0 0 0 0
BITMAP
ENDCHAR
STARTCHAR C022536
ENCODING 9566
SWIDTH 2400 0
DWIDTH 24 0
BBX 0 0 0 0
BITMAP
ENDCHAR
STARTCHAR C022537
ENCODING 9567
SWIDTH 2400 0
DWIDTH 24 0
BBX 0 0 0 0
BITMAP
ENDCHAR
STARTCHAR C022540
ENCODING 9568
SWIDTH 2400 0
DWIDTH 24 0
BBX 1 7 24 2
BITMAP
80
80
80
80
80
80
80
ENDCHAR
STARTCHAR C022541
ENCODING 9569
SWIDTH 2400 0
DWIDTH 24 0
BBX 11 13 7 0
BITMAP
1FE0
33C0
61C0
61C0
C0C0
C1C0
C1C0
C180
C180
C380
C380
7F80
3DC0
ENDCHAR
STARTCHAR C022542
ENCODING 9570
SWIDTH 2400 0
DWIDTH 24 0
BBX 11 22 8 -4
BITMAP
0300
0FC0
1FE0
18E0
30E0
30E0
31C0
3380
7E00
7F80
63C0
61C0
61C0
61C0
61C0
61C0
F380
DF00
C000
C000
C000
C000
ENDCHAR
STARTCHAR C022543
ENCODING 9571
SWIDTH 2400 0
DWIDTH 24 0
BBX 10 18 7 -4
BITMAP
00C0
F0C0
71C0
7180
7180
7300
7300
7700
3600
3E00
3C00
3C00
3800
3800
3800
7800
7800
3000
ENDCHAR
STARTCHAR C022544
ENCODING 9572
SWIDTH 2400 0
DWIDTH 24 0
BBX 12 18 7 0
BITMAP
3FF0
1800
0C00
0600
0700
1F00
3B80
71C0
E1C0
C0C0
C0C0
C0C0
C0C0
C180
C180
C300
6600
3C00
ENDCHAR
STARTCHAR C022545
ENCODING 9573
SWIDTH 2400 0
DWIDTH 24 0
BBX 11 13 7 0
BITMAP
1F80
3FC0
30E0
70E0
3800
3F00
3F00
7000
E0E0
E0C0
E0C0
71C0
3F80
ENDCHAR
STARTCHAR C022546
ENCODING 9574
SWIDTH 2400 0
DWIDTH 24 0
BBX 11 21 7 -3
BITMAP
3FE0
01E0
01C0
0380
0700
0600
0E00
1C00
3800
3000
6000
E000
C000
C000
E000
7800
1F00
0380
0380
0300
1F00
ENDCHAR
STARTCHAR C022547
ENCODING 9575
SWIDTH 2400 0
DWIDTH 24 0
BBX 10 17 7 -4
BITMAP
FF80
79C0
70C0
70C0
60C0
60C0
61C0
6180
E180
E180
C180
C180
C380
0380
0300
0300
0300
ENDCHAR
STARTCHAR C022550
ENCODING 9576
SWIDTH 2400 0
DWIDTH 24 0
BBX 11 18 7 0
BITMAP
0F80
19C0
38C0
30E0
60E0
6060
E060
E0E0
FFC0
C0C0
C0C0
C0C0
C1C0
C180
C180
C300
6700
3C00
ENDCHAR
STARTCHAR C022551
ENCODING 9577
SWIDTH 2400 0
DWIDTH 24 0
BBX 4 13 10 0
BITMAP
30
30
70
60
60
60
60
60
E0
E0
C0
E0
F0
ENDCHAR
STARTCHAR C022552
ENCODING 9578
SWIDTH 2400 0
DWIDTH 24 0
BBX 12 13 7 0
BITMAP
30F0
3180
3300
3600
7E00
7E00
7600
6600
6700
6300
6300
E380
C180
ENDCHAR
STARTCHAR C022553
ENCODING 9579
SWIDTH 2400 0
DWIDTH 24 0
BBX 11 17 7 0
BITMAP
1E00
0700
0700
0700
0700
0700
0F00
0F00
1F80
1B80
3380
3380
6380
6380
E380
C3C0
C1E0
ENDCHAR
STARTCHAR C022554
ENCODING 9580
SWIDTH 2400 0
DWIDTH 24 0
BBX 10 17 7 -4
BITMAP
30C0
30C0
30C0
30C0
70C0
71C0
61C0
6180
6180
6380
6380
F7C0
DDC0
C000
C000
C000
C000
ENDCHAR
STARTCHAR C022555
ENCODING 9581
SWIDTH 2400 0
DWIDTH 24 0
BBX 9 13 8 0
BITMAP
E180
E180
E380
E300
E700
6600
6600
7C00
7C00
7800
7800
7000
7000
ENDCHAR
STARTCHAR C022556
ENCODING 9582
SWIDTH 2400 0
DWIDTH 24 0
BBX 11 21 7 -3
BITMAP
7FE0
0E00
1C00
1800
1800
1800
1800
0F80
1F80
7000
6000
E000
C000
C000
E000
7800
3E00
0700
0300
0700
3E00
ENDCHAR
STARTCHAR C022557
ENCODING 9583
SWIDTH 2400 0
DWIDTH 24 0
BBX 10 13 7 0
BITMAP
1F80
3980
70C0
60C0
60C0
E0C0
C0C0
C0C0
C1C0
C180
6380
7700
3E00
ENDCHAR
STARTCHAR C022560
ENCODING 9584
SWIDTH 2400 0
DWIDTH 24 0
BBX 12 13 7 0
BITMAP
FFF0
70C0
61C0
61C0
6180
6180
6180
E180
C180
C380
C380
C300
C300
ENDCHAR
STARTCHAR C022561
ENCODING 9585
SWIDTH 2400 0
DWIDTH 24 0
BBX 11 17 7 -4
BITMAP
0780
1DC0
18E0
3060
3060
3060
7060
6060
60C0
60C0
71C0
F380
FF00
C000
C000
C000
C000
ENDCHAR
STARTCHAR C022562
ENCODING 9586
SWIDTH 2400 0
DWIDTH 24 0
BBX 12 13 7 0
BITMAP
1FF0
39C0
70C0
60C0
60C0
E0C0
C0C0
C0C0
C0C0
E180
6180
7300
1E00
ENDCHAR
STARTCHAR C022563
ENCODING 9587
SWIDTH 2400 0
DWIDTH 24 0
BBX 9 13 8 0
BITMAP
FF80
1800
1800
1800
1800
1800
3800
3800
3800
3000
3000
3E00
1E00
ENDCHAR
STARTCHAR C022564
ENCODING 9588
SWIDTH 2400 0
DWIDTH 24 0
BBX 10 13 7 0
BITMAP
30C0
70C0
70C0
60C0
61C0
6180
6180
6180
E180
C180
C300
E700
7E00
ENDCHAR
STARTCHAR C022565
ENCODING 9589
SWIDTH 2400 0
DWIDTH 24 0
BBX 13 17 6 -4
BITMAP
1FF0
3F78
3338
7338
6638
E638
E638
E638
E670
E670
66E0
7FE0
1F80
0600
0E00
0C00
0C00
ENDCHAR
STARTCHAR C022566
ENCODING 9590
SWIDTH 2400 0
DWIDTH 24 0
BBX 10 16 7 -3
BITMAP
70C0
38C0
1980
1B00
1B00
0E00
0E00
0C00
0E00
1E00
1E00
3600
7700
6300
E300
C3C0
ENDCHAR
STARTCHAR C022567
ENCODING 9591
SWIDTH 2400 0
DWIDTH 24 0
BBX 15 18 5 -4
BITMAP
6180
718E
718C
718C
738C
638C
631C
631C
6318
6318
E718
6738
7FF0
3FE0
0600
0600
0E00
0E00
ENDCHAR
STARTCHAR C022570
ENCODING 9592
SWIDTH 2400 0
DWIDTH 24 0
BBX 13 13 6 0
BITMAP
1EE0
3870
7038
6038
E318
C718
C638
C638
C638
C630
CE70
FBE0
79C0
ENDCHAR
STARTCHAR C022571
ENCODING 9593
SWIDTH 2400 0
DWIDTH 24 0
BBX 0 0 0 0
BITMAP
ENDCHAR
STARTCHAR C022572
ENCODING 9594
SWIDTH 2400 0
DWIDTH 24 0
BBX 0 0 0 0
BITMAP
ENDCHAR
STARTCHAR C022573
ENCODING 9595
SWIDTH 2400 0
DWIDTH 24 0
BBX 0 0 0 0
BITMAP
ENDCHAR
STARTCHAR C022574
ENCODING 9596
SWIDTH 2400 0
DWIDTH 24 0
BBX 0 0 0 0
BITMAP
ENDCHAR
STARTCHAR C022575
ENCODING 9597
SWIDTH 2400 0
DWIDTH 24 0
BBX 0 0 0 0
BITMAP
ENDCHAR
STARTCHAR C022576
ENCODING 9598
SWIDTH 2400 0
DWIDTH 24 0
BBX 0 0 0 0
BITMAP
ENDCHAR
STARTCHAR C022577
ENCODING 9599
SWIDTH 2400 0
DWIDTH 24 0
BBX 1 21 24 -4
BITMAP
80
00
00
00
00
00
00
80
00
00
00
00
80
00
00
00
00
00
00
00
80
ENDCHAR
STARTCHAR C023040
ENCODING 9760
SWIDTH 2400 0
DWIDTH 24 0
BBX 1 1 24 7
BITMAP
80
ENDCHAR
STARTCHAR C023041
ENCODING 9761
SWIDTH 2400 0
DWIDTH 24 0
BBX 25 24 0 -5
BITMAP
00000080
00000080
00000080
00000080
00000080
00000080
00000080
00000080
00000080
00000080
00000080
FFFFFF80
00000080
00000080
00000080
00000080
00000080
00000080
00000080
00000080
00000080
00000080
00000080
00000080
ENDCHAR
STARTCHAR C023042
ENCODING 9762
SWIDTH 2400 0
DWIDTH 24 0
BBX 2 24 12 -5
BITMAP
C0
C0
C0
C0
C0
C0
C0
C0
C0
C0
C0
C0
C0
C0
C0
C0
C0
C0
C0
C0
C0
C0
C0
C0
ENDCHAR
STARTCHAR C023043
ENCODING 9763
SWIDTH 2400 0
DWIDTH 24 0
BBX 12 13 12 -5
BITMAP
FFF0
C000
C000
C000
C000
C000
C000
C000
C000
C000
C000
C000
C000
ENDCHAR
STARTCHAR C023044
ENCODING 9764
SWIDTH 2400 0
DWIDTH 24 0
BBX 25 23 0 -5
BITMAP
00000080
00000080
00000000
00000000
00000000
00000000
00000000
00000000
00000000
00000000
FFFC0000
000C0000
000C0000
000C0000
000C0000
000C0000
000C0000
000C0000
000C0000
000C0000
000C0000
000C0000
000C0000
ENDCHAR
STARTCHAR C023045
ENCODING 9765
SWIDTH 2400 0
DWIDTH 24 0
BBX 25 12 0 7
BITMAP
000C0080
000C0080
000C0080
000C0080
000C0080
000C0080
000C0080
000C0080
000C0080
000C0080
000C0080
FFFC0080
ENDCHAR
STARTCHAR C023046
ENCODING 9766
SWIDTH 2400 0
DWIDTH 24 0
BBX 12 12 12 7
BITMAP
C000
C000
C000
C000
C000
C000
C000
C000
C000
C000
C000
FFF0
ENDCHAR
STARTCHAR C023047
ENCODING 9767
SWIDTH 2400 0
DWIDTH 24 0
BBX 13 24 12 -5
BITMAP
C000
C000
C000
C000
C000
C000
C000
C000
C000
C000
C000
FFF0
C000
C000
C000
C000
C000
C000
C000
C000
C000
C000
C000
C000
ENDCHAR
STARTCHAR C023050
ENCODING 9768
SWIDTH 2400 0
DWIDTH 24 0
BBX 25 13 0 -5
BITMAP
FFFFFF80
000C0000
000C0000
000C0000
000C0000
000C0000
000C0000
000C0000
000C0000
000C0000
000C0000
000C0000
000C0000
ENDCHAR
STARTCHAR C023051
ENCODING 9769
SWIDTH 2400 0
DWIDTH 24 0
BBX 14 24 0 -5
BITMAP
000C
000C
000C
000C
000C
000C
000C
000C
000C
000C
000C
FFFC
000C
000C
000C
000C
000C
000C
000C
000C
000C
000C
000C
000C
ENDCHAR
STARTCHAR C023052
ENCODING 9770
SWIDTH 2400 0
DWIDTH 24 0
BBX 25 12 0 7
BITMAP
000C0000
000C0000
000C0000
000C0000
000C0000
000C0000
000C0000
000C0000
000C0000
000C0000
000C0000
FFFFFF80
ENDCHAR
STARTCHAR C023053
ENCODING 9771
SWIDTH 2400 0
DWIDTH 24 0
BBX 25 24 0 -5
BITMAP
000C0000
000C0000
000C0000
000C0000
000C0000
000C0000
000C0000
000C0000
000C0000
000C0000
000C0000
FFFFFF80
000C0000
000C0000
000C0000
000C0000
000C0000
000C0000
000C0000
000C0000
000C0000
000C0000
000C0000
000C0000
ENDCHAR
STARTCHAR C023054
ENCODING 9772
SWIDTH 2400 0
DWIDTH 24 0
BBX 25 24 0 -5
BITMAP
00000080
00000080
00000080
00000080
00000080
00000080
00000080
00000080
00000080
00000080
00000080
FFFFFF80
00000080
00000080
00000080
00000080
00000080
00000080
00000080
00000080
00000080
00000080
00000080
00000080
ENDCHAR
STARTCHAR C023055
ENCODING 9773
SWIDTH 2400 0
DWIDTH 24 0
BBX 3 24 11 -5
BITMAP
E0
E0
E0
E0
E0
E0
E0
E0
E0
E0
E0
E0
E0
E0
E0
E0
E0
E0
E0
E0
E0
E0
E0
E0
ENDCHAR
STARTCHAR C023056
ENCODING 9774
SWIDTH 2400 0
DWIDTH 24 0
BBX 13 13 11 -5
BITMAP
FFF8
E000
E000
E000
E000
E000
E000
E000
E000
E000
E000
E000
E000
ENDCHAR
STARTCHAR C023057
ENCODING 9775
SWIDTH 2400 0
DWIDTH 24 0
BBX 25 13 0 -5
BITMAP
FFFC0080
001C0000
001C0000
001C0000
001C0000
001C0000
001C0000
001C0000
001C0000
001C0000
001C0000
001C0000
001C0000
ENDCHAR
STARTCHAR C023060
ENCODING 9776
SWIDTH 2400 0
DWIDTH 24 0
BBX 25 12 0 7
BITMAP
001C0080
001C0080
001C0080
001C0080
001C0080
001C0080
001C0080
001C0080
001C0080
001C0080
001C0080
FFFC0080
ENDCHAR
STARTCHAR C023061
ENCODING 9777
SWIDTH 2400 0
DWIDTH 24 0
BBX 13 12 11 7
BITMAP
E000
E000
E000
E000
E000
E000
E000
E000
E000
E000
E000
FFF8
ENDCHAR
STARTCHAR C023062
ENCODING 9778
SWIDTH 2400 0
DWIDTH 24 0
BBX 14 24 11 -5
BITMAP
E000
E000
E000
E000
E000
E000
E000
E000
E000
E000
E000
FFF8
E000
E000
E000
E000
E000
E000
E000
E000
E000
E000
E000
E000
ENDCHAR
STARTCHAR C023063
ENCODING 9779
SWIDTH 2400 0
DWIDTH 24 0
BBX 25 23 0 -5
BITMAP
00000080
00000080
00000000
00000000
00000000
00000000
00000000
00000000
00000000
00000000
FFFFFF00
001C0000
001C0000
001C0000
001C0000
001C0000
001C0000
001C0000
001C0000
001C0000
001C0000
001C0000
001C0000
ENDCHAR
STARTCHAR C023064
ENCODING 9780
SWIDTH 2400 0
DWIDTH 24 0
BBX 25 24 0 -5
BITMAP
001C0000
001C0000
001C0000
001C0000
001C0000
001C0000
001C0000
001C0000
001C0000
001C0000
001C0000
FFFC0080
001C0000
001C0000
001C0000
001C0000
001C0000
001C0000
001C0000
001C0000
001C0000
001C0000
001C0000
001C0000
ENDCHAR
STARTCHAR C023065
ENCODING 9781
SWIDTH 2400 0
DWIDTH 24 0
BBX 25 12 0 7
BITMAP
001C0000
001C0000
001C0000
001C0000
001C0000
001C0000
001C0000
001C0000
001C0000
001C0000
001C0000
FFFFFF80
ENDCHAR
STARTCHAR C023066
ENCODING 9782
SWIDTH 2400 0
DWIDTH 24 0
BBX 25 24 0 -5
BITMAP
001C0080
001C0080
001C0080
001C0080
001C0080
001C0080
001C0080
001C0080
001C0080
001C0080
001C0080
FFFFFF80
001C0080
001C0080
001C0080
001C0080
001C0080
001C0080
001C0080
001C0080
001C0080
001C0080
001C0080
001C0080
ENDCHAR
STARTCHAR C023067
ENCODING 9783
SWIDTH 2400 0
DWIDTH 24 0
BBX 14 24 11 -5
BITMAP
E000
E000
E000
E000
E000
E000
E000
E000
E000
E000
E000
FFF8
E000
E000
E000
E000
E000
E000
E000
E000
E000
E000
E000
E000
ENDCHAR
STARTCHAR C023070
ENCODING 9784
SWIDTH 2400 0
DWIDTH 24 0
BBX 24 13 0 -5
BITMAP
FFFFFF
000C00
000C00
000C00
000C00
000C00
000C00
000C00
000C00
000C00
000C00
000C00
000C00
ENDCHAR
STARTCHAR C023071
ENCODING 9785
SWIDTH 2400 0
DWIDTH 24 0
BBX 25 24 0 -5
BITMAP
001C0000
001C0000
001C0000
001C0000
001C0000
001C0000
001C0000
001C0000
001C0000
001C0000
001C0000
FFFC0080
001C0000
001C0000
001C0000
001C0000
001C0000
001C0000
001C0000
001C0000
001C0000
001C0000
001C0000
001C0000
ENDCHAR
STARTCHAR C023072
ENCODING 9786
SWIDTH 2400 0
DWIDTH 24 0
BBX 25 12 0 7
BITMAP
000C0000
000C0000
000C0000
000C0000
000C0000
000C0000
000C0000
000C0000
000C0000
000C0000
000C0000
FFFFFF80
ENDCHAR
STARTCHAR C023073
ENCODING 9787
SWIDTH 2400 0
DWIDTH 24 0
BBX 25 24 0 -5
BITMAP
000C0080
000C0080
000C0080
000C0080
000C0080
000C0080
000C0080
000C0080
000C0080
000C0080
000C0080
FFFFFF80
000C0080
000C0080
000C0080
000C0080
000C0080
000C0080
000C0080
000C0080
000C0080
000C0080
000C0080
000C0080
ENDCHAR
STARTCHAR C023074
ENCODING 9788
SWIDTH 2400 0
DWIDTH 24 0
BBX 13 24 12 -5
BITMAP
C000
C000
C000
C000
C000
C000
C000
C000
C000
C000
C000
FFF0
C000
C000
C000
C000
C000
C000
C000
C000
C000
C000
C000
C000
ENDCHAR
STARTCHAR C023075
ENCODING 9789
SWIDTH 2400 0
DWIDTH 24 0
BBX 25 22 0 -5
BITMAP
00000080
00000000
00000000
00000000
00000000
00000000
00000000
00000080
00000000
FFFFFF00
001C0000
001C0000
001C0080
001C0000
001C0000
001C0000
001C0000
001C0000
001C0000
001C0000
001C0080
001C0000
ENDCHAR
STARTCHAR C023076
ENCODING 9790
SWIDTH 2400 0
DWIDTH 24 0
BBX 25 24 0 -5
BITMAP
000C0000
000C0000
000C0000
000C0000
000C0000
000C0000
000C0000
000C0000
000C0000
000C0000
000C0000
FFFC0080
000C0000
000C0000
000C0000
000C0000
000C0000
000C0000
000C0000
000C0000
000C0000
000C0000
000C0000
000C0000
ENDCHAR
STARTCHAR C023077
ENCODING 9791
SWIDTH 2400 0
DWIDTH 24 0
BBX 25 12 0 7
BITMAP
001C0000
001C0000
001C0000
001C0000
001C0000
001C0000
001C0000
001C0000
001C0000
001C0000
001C0000
FFFFFF80
ENDCHAR
STARTCHAR C023100
ENCODING 9792
SWIDTH 2400 0
DWIDTH 24 0
BBX 25 24 0 -5
BITMAP
001C0000
001C0000
001C0000
001C0000
001C0000
001C0000
001C0000
001C0000
001C0000
001C0000
001C0000
FFFFFF80
001C0000
001C0000
001C0000
001C0000
001C0000
001C0000
001C0000
001C0000
001C0000
001C0000
001C0000
001C0000
ENDCHAR
STARTCHAR C023101
ENCODING 9793
SWIDTH 2400 0
DWIDTH 24 0
BBX 25 13 0 -5
BITMAP
FFFC0080
001C0000
001C0000
001C0000
001C0000
001C0000
001C0000
001C0000
001C0000
001C0000
001C0000
001C0000
001C0000
ENDCHAR
STARTCHAR C023102
ENCODING 9794
SWIDTH 2400 0
DWIDTH 24 0
BBX 25 23 0 -5
BITMAP
00000080
00000080
00000000
00000000
00000000
00000000
00000000
00000000
00000000
00000000
FFFC0000
000C0000
000C0000
000C0000
000C0000
000C0000
000C0000
000C0000
000C0000
000C0000
000C0000
000C0000
000C0000
ENDCHAR
STARTCHAR C023103
ENCODING 9795
SWIDTH 2400 0
DWIDTH 24 0
BBX 25 12 0 7
BITMAP
001C0000
001C0000
001C0000
001C0000
001C0000
001C0000
001C0000
001C0000
001C0000
001C0000
001C0000
FFFC0080
ENDCHAR
STARTCHAR C023104
ENCODING 9796
SWIDTH 2400 0
DWIDTH 24 0
BBX 25 12 0 7
BITMAP
000C0080
000C0080
000C0080
000C0080
000C0080
000C0080
000C0080
000C0080
000C0080
000C0080
000C0080
FFFC0080
ENDCHAR
STARTCHAR C023105
ENCODING 9797
SWIDTH 2400 0
DWIDTH 24 0
BBX 13 12 11 7
BITMAP
E000
E000
E000
E000
E000
E000
E000
E000
E000
E000
E000
FFF8
ENDCHAR
STARTCHAR C023106
ENCODING 9798
SWIDTH 2400 0
DWIDTH 24 0
BBX 12 12 12 7
BITMAP
C000
C000
C000
C000
C000
C000
C000
C000
C000
C000
C000
FFF0
ENDCHAR
STARTCHAR C023107
ENCODING 9799
SWIDTH 2400 0
DWIDTH 24 0
BBX 13 13 11 -5
BITMAP
FFF8
E000
E000
E000
E000
E000
E000
E000
E000
E000
E000
E000
E000
ENDCHAR
STARTCHAR C023110
ENCODING 9800
SWIDTH 2400 0
DWIDTH 24 0
BBX 12 13 12 -5
BITMAP
FFF0
C000
C000
C000
C000
C000
C000
C000
C000
C000
C000
C000
C000
ENDCHAR
STARTCHAR C023111
ENCODING 9801
SWIDTH 2400 0
DWIDTH 24 0
BBX 14 24 11 -5
BITMAP
E000
E000
E000
E000
E000
E000
E000
E000
E000
E000
E000
FFF8
6000
6000
6000
6000
6000
6000
6000
6000
6000
6000
6000
6000
ENDCHAR
STARTCHAR C023112
ENCODING 9802
SWIDTH 2400 0
DWIDTH 24 0
BBX 14 24 11 -5
BITMAP
6000
6000
6000
6000
6000
6000
6000
6000
6000
6000
6000
7FF8
E000
E000
E000
E000
E000
E000
E000
E000
E000
E000
E000
E000
ENDCHAR
STARTCHAR C023113
ENCODING 9803
SWIDTH 2400 0
DWIDTH 24 0
BBX 14 24 11 -5
BITMAP
E000
E000
E000
E000
E000
E000
E000
E000
E000
E000
E000
FFF8
6000
6000
6000
6000
6000
6000
6000
6000
6000
6000
6000
6000
ENDCHAR
STARTCHAR C023114
ENCODING 9804
SWIDTH 2400 0
DWIDTH 24 0
BBX 14 24 11 -5
BITMAP
6000
6000
6000
6000
6000
6000
6000
6000
6000
6000
6000
7FF8
E000
E000
E000
E000
E000
E000
E000
E000
E000
E000
E000
E000
ENDCHAR
STARTCHAR C023115
ENCODING 9805
SWIDTH 2400 0
DWIDTH 24 0
BBX 25 24 0 -5
BITMAP
001C0000
001C0000
001C0000
001C0000
001C0000
001C0000
001C0000
001C0000
001C0000
001C0000
001C0000
FFFC0080
000C0000
000C0000
000C0000
000C0000
000C0000
000C0000
000C0000
000C0000
000C0000
000C0000
000C0000
000C0000
ENDCHAR
STARTCHAR C023116
ENCODING 9806
SWIDTH 2400 0
DWIDTH 24 0
BBX 25 24 0 -5
BITMAP
000C0000
000C0000
000C0000
000C0000
000C0000
000C0000
000C0000
000C0000
000C0000
000C0000
000C0000
FFFC0080
001C0000
001C0000
001C0000
001C0000
001C0000
001C0000
001C0000
001C0000
001C0000
001C0000
001C0000
001C0000
ENDCHAR
STARTCHAR C023117
ENCODING 9807
SWIDTH 2400 0
DWIDTH 24 0
BBX 25 24 0 -5
BITMAP
001C0000
001C0000
001C0000
001C0000
001C0000
001C0000
001C0000
001C0000
001C0000
001C0000
001C0000
FFFC0080
000C0000
000C0000
000C0000
000C0000
000C0000
000C0000
000C0000
000C0000
000C0000
000C0000
000C0000
000C0000
ENDCHAR
STARTCHAR C023120
ENCODING 9808
SWIDTH 2400 0
DWIDTH 24 0
BBX 25 24 0 -5
BITMAP
000C0000
000C0000
000C0000
000C0000
000C0000
000C0000
000C0000
000C0000
000C0000
000C0000
000C0000
FFFC0080
001C0000
001C0000
001C0000
001C0000
001C0000
001C0000
001C0000
001C0000
001C0000
001C0000
001C0000
001C0000
ENDCHAR
STARTCHAR C023121
ENCODING 9809
SWIDTH 2400 0
DWIDTH 24 0
BBX 25 23 0 -5
BITMAP
00000080
00000080
00000000
00000000
00000000
00000000
00000000
00000000
00000000
00000000
FFFFFF00
000C0000
000C0000
000C0000
000C0000
000C0000
000C0000
000C0000
000C0000
000C0000
000C0000
000C0000
000C0000
ENDCHAR
STARTCHAR C023122
ENCODING 9810
SWIDTH 2400 0
DWIDTH 24 0
BBX 25 13 0 -5
BITMAP
FFFFFF80
000C0000
000C0000
000C0000
000C0000
000C0000
000C0000
000C0000
000C0000
000C0000
000C0000
000C0000
000C0000
ENDCHAR
STARTCHAR C023123
ENCODING 9811
SWIDTH 2400 0
DWIDTH 24 0
BBX 25 13 0 -5
BITMAP
FFFFFF80
001C0000
001C0000
001C0000
001C0000
001C0000
001C0000
001C0000
001C0000
001C0000
001C0000
001C0000
001C0000
ENDCHAR
STARTCHAR C023124
ENCODING 9812
SWIDTH 2400 0
DWIDTH 24 0
BBX 25 13 0 -5
BITMAP
FFFFFF80
001C0000
001C0000
001C0000
001C0000
001C0000
001C0000
001C0000
001C0000
001C0000
001C0000
001C0000
001C0000
ENDCHAR
STARTCHAR C023125
ENCODING 9813
SWIDTH 2400 0
DWIDTH 24 0
BBX 25 12 0 7
BITMAP
000C0000
000C0000
000C0000
000C0000
000C0000
000C0000
000C0000
000C0000
000C0000
000C0000
000C0000
FFFFFF80
ENDCHAR
STARTCHAR C023126
ENCODING 9814
SWIDTH 2400 0
DWIDTH 24 0
BBX 24 12 0 7
BITMAP
000C00
000C00
000C00
000C00
000C00
000C00
000C00
000C00
000C00
000C00
000C00
FFFFFF
ENDCHAR
STARTCHAR C023127
ENCODING 9815
SWIDTH 2400 0
DWIDTH 24 0
BBX 25 12 0 7
BITMAP
001C0000
001C0000
001C0000
001C0000
001C0000
001C0000
001C0000
001C0000
001C0000
001C0000
001C0000
FFFFFF80
ENDCHAR
STARTCHAR C023130
ENCODING 9816
SWIDTH 2400 0
DWIDTH 24 0
BBX 25 12 0 7
BITMAP
001C0000
001C0000
001C0000
001C0000
001C0000
001C0000
001C0000
001C0000
001C0000
001C0000
001C0000
FFFFFF80
ENDCHAR
STARTCHAR C023131
ENCODING 9817
SWIDTH 2400 0
DWIDTH 24 0
BBX 25 24 0 -5
BITMAP
000C0000
000C0000
000C0000
000C0000
000C0000
000C0000
000C0000
000C0000
000C0000
000C0000
000C0000
FFFFFF80
000C0000
000C0000
000C0000
000C0000
000C0000
000C0000
000C0000
000C0000
000C0000
000C0000
000C0000
000C0000
ENDCHAR
STARTCHAR C023132
ENCODING 9818
SWIDTH 2400 0
DWIDTH 24 0
BBX 25 24 0 -5
BITMAP
000C0000
000C0000
000C0000
000C0000
000C0000
000C0000
000C0000
000C0000
000C0000
000C0000
000C0000
FFFFFF80
000C0000
000C0000
000C0000
000C0000
000C0000
000C0000
000C0000
000C0000
000C0000
000C0000
000C0000
000C0000
ENDCHAR
STARTCHAR C023133
ENCODING 9819
SWIDTH 2400 0
DWIDTH 24 0
BBX 25 24 0 -5
BITMAP
001C0000
001C0000
001C0080
001C0000
001C0000
001C0000
001C0000
001C0000
001C0000
001C0080
001C0000
FFFFFF00
000C0000
000C0000
000C0080
000C0000
000C0000
000C0000
000C0000
000C0000
000C0000
000C0000
000C0080
000C0000
ENDCHAR
STARTCHAR C023134
ENCODING 9820
SWIDTH 2400 0
DWIDTH 24 0
BBX 25 24 0 -5
BITMAP
000C0000
000C0000
000C0000
000C0000
000C0000
000C0000
000C0000
000C0000
000C0000
000C0000
000C0000
FFFFFF80
001C0000
001C0000
001C0000
001C0000
001C0000
001C0000
001C0000
001C0000
001C0000
001C0000
001C0000
001C0000
ENDCHAR
STARTCHAR C023135
ENCODING 9821
SWIDTH 2400 0
DWIDTH 24 0
BBX 25 24 0 -5
BITMAP
001C0000
001C0000
001C0000
001C0000
001C0000
001C0000
001C0000
001C0000
001C0000
001C0000
001C0000
FFFFFF80
000C0000
000C0000
000C0000
000C0000
000C0000
000C0000
000C0000
000C0000
000C0000
000C0000
000C0000
000C0000
ENDCHAR
STARTCHAR C023136
ENCODING 9822
SWIDTH 2400 0
DWIDTH 24 0
BBX 25 24 0 -5
BITMAP
001C0000
001C0000
001C0000
001C0000
001C0000
001C0000
001C0000
001C0000
001C0000
001C0000
001C0000
FFFFFF80
000C0000
000C0000
000C0000
000C0000
000C0000
000C0000
000C0000
000C0000
000C0000
000C0000
000C0000
000C0000
ENDCHAR
STARTCHAR C023137
ENCODING 9823
SWIDTH 2400 0
DWIDTH 24 0
BBX 25 24 0 -5
BITMAP
000C0000
000C0000
000C0000
000C0000
000C0000
000C0000
000C0000
000C0000
000C0000
000C0000
000C0000
FFFFFF80
001C0000
001C0000
001C0000
001C0000
001C0000
001C0000
001C0000
001C0000
001C0000
001C0000
001C0000
001C0000
ENDCHAR
STARTCHAR C023140
ENCODING 9824
SWIDTH 2400 0
DWIDTH 24 0
BBX 25 24 0 -5
BITMAP
000C0000
000C0080
000C0080
000C0000
000C0000
000C0000
000C0000
000C0000
000C0000
000C0000
000C0000
FFFFFF00
001C0000
001C0000
001C0000
001C0000
001C0000
001C0000
001C0000
001C0000
001C0000
001C0000
001C0000
001C0000
ENDCHAR
STARTCHAR C023141
ENCODING 9825
SWIDTH 2400 0
DWIDTH 24 0
BBX 25 24 0 -5
BITMAP
001C0000
001C0000
001C0000
001C0000
001C0000
001C0000
001C0000
001C0000
001C0000
001C0000
001C0000
FFFFFF80
000C0000
000C0000
000C0000
000C0000
000C0000
000C0000
000C0000
000C0000
000C0000
000C0000
000C0000
000C0000
ENDCHAR
STARTCHAR C023142
ENCODING 9826
SWIDTH 2400 0
DWIDTH 24 0
BBX 25 24 0 -5
BITMAP
000C0000
000C0000
000C0000
000C0000
000C0000
000C0000
000C0000
000C0000
000C0000
000C0000
000C0000
FFFFFF80
001C0000
001C0000
001C0000
001C0000
001C0000
001C0000
001C0000
001C0000
001C0000
001C0000
001C0000
001C0000
ENDCHAR
STARTCHAR C023143
ENCODING 9827
SWIDTH 2400 0
DWIDTH 24 0
BBX 25 24 0 -5
BITMAP
001C0000
001C0000
001C0000
001C0000
001C0000
001C0000
001C0000
001C0000
001C0000
001C0000
001C0000
FFFFFF80
001C0000
001C0000
001C0000
001C0000
001C0000
001C0000
001C0000
001C0000
001C0000
001C0000
001C0000
001C0000
ENDCHAR
STARTCHAR C023144
ENCODING 9828
SWIDTH 2400 0
DWIDTH 24 0
BBX 24 24 0 -5
BITMAP
001C00
001C00
001C00
001C00
001C00
001C00
001C00
001C00
001C00
001C00
001C00
FFFFFF
001C00
001C00
001C00
001C00
001C00
001C00
001C00
001C00
001C00
001C00
001C00
001C00
ENDCHAR
STARTCHAR C023145
ENCODING 9829
SWIDTH 2400 0
DWIDTH 24 0
BBX 0 0 0 0
BITMAP
ENDCHAR
STARTCHAR C023146
ENCODING 9830
SWIDTH 2400 0
DWIDTH 24 0
BBX 0 0 0 0
BITMAP
ENDCHAR
STARTCHAR C023147
ENCODING 9831
SWIDTH 2400 0
DWIDTH 24 0
BBX 0 0 0 0
BITMAP
ENDCHAR
STARTCHAR C023150
ENCODING 9832
SWIDTH 2400 0
DWIDTH 24 0
BBX 0 0 0 0
BITMAP
ENDCHAR
STARTCHAR C023151
ENCODING 9833
SWIDTH 2400 0
DWIDTH 24 0
BBX 0 0 0 0
BITMAP
ENDCHAR
STARTCHAR C023152
ENCODING 9834
SWIDTH 2400 0
DWIDTH 24 0
BBX 1 21 24 -4
BITMAP
80
00
00
00
00
00
00
80
00
00
00
00
80
00
00
00
00
00
00
00
80
ENDCHAR
STARTCHAR C023153
ENCODING 9835
SWIDTH 2400 0
DWIDTH 24 0
BBX 0 0 0 0
BITMAP
ENDCHAR
STARTCHAR C023154
ENCODING 9836
SWIDTH 2400 0
DWIDTH 24 0
BBX 0 0 0 0
BITMAP
ENDCHAR
STARTCHAR C023155
ENCODING 9837
SWIDTH 2400 0
DWIDTH 24 0
BBX 0 0 0 0
BITMAP
ENDCHAR
STARTCHAR C023156
ENCODING 9838
SWIDTH 2400 0
DWIDTH 24 0
BBX 0 0 0 0
BITMAP
ENDCHAR
STARTCHAR C023157
ENCODING 9839
SWIDTH 2400 0
DWIDTH 24 0
BBX 1 2 24 16
BITMAP
80
80
ENDCHAR
STARTCHAR C023160
ENCODING 9840
SWIDTH 2400 0
DWIDTH 24 0
BBX 0 0 0 0
BITMAP
ENDCHAR
STARTCHAR C023161
ENCODING 9841
SWIDTH 2400 0
DWIDTH 24 0
BBX 0 0 0 0
BITMAP
ENDCHAR
STARTCHAR C023162
ENCODING 9842
SWIDTH 2400 0
DWIDTH 24 0
BBX 0 0 0 0
BITMAP
ENDCHAR
STARTCHAR C023163
ENCODING 9843
SWIDTH 2400 0
DWIDTH 24 0
BBX 0 0 0 0
BITMAP
ENDCHAR
STARTCHAR C023164
ENCODING 9844
SWIDTH 2400 0
DWIDTH 24 0
BBX 0 0 0 0
BITMAP
ENDCHAR
STARTCHAR C023165
ENCODING 9845
SWIDTH 2400 0
DWIDTH 24 0
BBX 0 0 0 0
BITMAP
ENDCHAR
STARTCHAR C023166
ENCODING 9846
SWIDTH 2400 0
DWIDTH 24 0
BBX 0 0 0 0
BITMAP
ENDCHAR
STARTCHAR C023167
ENCODING 9847
SWIDTH 2400 0
DWIDTH 24 0
BBX 0 0 0 0
BITMAP
ENDCHAR
STARTCHAR C023170
ENCODING 9848
SWIDTH 2400 0
DWIDTH 24 0
BBX 0 0 0 0
BITMAP
ENDCHAR
STARTCHAR C023171
ENCODING 9849
SWIDTH 2400 0
DWIDTH 24 0
BBX 1 21 24 -4
BITMAP
80
00
00
00
00
00
00
80
00
00
00
00
80
00
00
00
00
00
00
00
80
ENDCHAR
STARTCHAR C023172
ENCODING 9850
SWIDTH 2400 0
DWIDTH 24 0
BBX 0 0 0 0
BITMAP
ENDCHAR
STARTCHAR C023173
ENCODING 9851
SWIDTH 2400 0
DWIDTH 24 0
BBX 0 0 0 0
BITMAP
ENDCHAR
STARTCHAR C023174
ENCODING 9852
SWIDTH 2400 0
DWIDTH 24 0
BBX 0 0 0 0
BITMAP
ENDCHAR
STARTCHAR C023175
ENCODING 9853
SWIDTH 2400 0
DWIDTH 24 0
BBX 0 0 0 0
BITMAP
ENDCHAR
STARTCHAR C023176
ENCODING 9854
SWIDTH 2400 0
DWIDTH 24 0
BBX 1 2 24 16
BITMAP
80
80
ENDCHAR
STARTCHAR C023177
ENCODING 9855
SWIDTH 2400 0
DWIDTH 24 0
BBX 0 0 0 0
BITMAP
ENDCHAR
STARTCHAR C023440
ENCODING 10016
SWIDTH 2400 0
DWIDTH 24 0
BBX 1 1 24 -2
BITMAP
80
ENDCHAR
STARTCHAR C023441
ENCODING 10017
SWIDTH 2400 0
DWIDTH 24 0
BBX 20 20 2 -2
BITMAP
0001E0
0003F0
000330
063730
0E3630
0C3660
0C3C60
0C6C60
186C60
186CC0
18ECC0
38CD80
30CF30
30CE30
319E30
718670
7B8760
7F03C0
600000
C00000
ENDCHAR
STARTCHAR C023442
ENCODING 10018
SWIDTH 2400 0
DWIDTH 24 0
BBX 19 18 3 0
BITMAP
000380
0007C0
000CC0
000CC0
0018C0
FF98C0
F9B1C0
D9B180
D9B180
D9B380
D9B300
D9B700
D9BE60
D9BCE0
D9F8C0
D9F8C0
D99DC0
D98F80
ENDCHAR
STARTCHAR C023443
ENCODING 10019
SWIDTH 2400 0
DWIDTH 24 0
BBX 19 18 3 0
BITMAP
018380
0187C0
018EC0
018CC0
3F9CC0
7798C0
63B8C0
E1B980
C1B980
C1B180
C1B300
C1B700
C1BE60
C1BCE0
61F8C0
6398C0
739DC0
3F8F80
ENDCHAR
STARTCHAR C023444
ENCODING 10020
SWIDTH 2400 0
DWIDTH 24 0
BBX 9 18 7 0
BITMAP
0700
0F80
1980
3980
3180
3380
6300
6300
6300
6600
6600
6C00
7D80
7980
F180
F180
3B00
1E00
ENDCHAR
STARTCHAR C023445
ENCODING 10021
SWIDTH 2400 0
DWIDTH 24 0
BBX 19 18 3 0
BITMAP
E003C0
E007E0
E00CE0
E01CE0
E198E0
E398C0
E331C0
E631C0
EC31C0
F83380
F83380
F83700
F83E60
EC3C60
E67860
E778C0
E39DC0
E18F80
ENDCHAR
STARTCHAR C023446
ENCODING 10022
SWIDTH 2400 0
DWIDTH 24 0
BBX 19 15 3 0
BITMAP
1F0F80
3B9DC0
71B8C0
61F0E0
E07000
E07000
E07000
E07000
E07000
E07060
E0F060
60F8E0
71F8C0
3B9DC0
1F0F80
ENDCHAR
STARTCHAR C023447
ENCODING 10023
SWIDTH 2400 0
DWIDTH 24 0
BBX 20 18 2 0
BITMAP
000060
0000F0
000030
000070
0000F0
FF7FF0
FB7B60
FB7B00
FB7B00
FB7B00
FB7B00
FB7B00
FB7B00
FB7B00
FB7B00
FB7B00
FB7B00
FB7B00
ENDCHAR
STARTCHAR C023450
ENCODING 10024
SWIDTH 2400 0
DWIDTH 24 0
BBX 21 18 2 0
BITMAP
000030
000078
000018
000030
180078
7EFF78
6FDB30
E7DB00
C7DB00
C6DB00
C0DB00
C0DB00
C0DB00
C6DB00
C6DB00
E6DB00
7EDB00
3CDB00
ENDCHAR
STARTCHAR C023451
ENCODING 10025
SWIDTH 2400 0
DWIDTH 24 0
BBX 21 18 2 0
BITMAP
000070
000070
000030
000070
0000D8
FF7EF8
F3EF00
E1C700
E1C700
E1C700
E1C700
E1C700
E1C700
E1C700
E1C700
E1C700
E1C700
E1C700
ENDCHAR
STARTCHAR C023452
ENCODING 10026
SWIDTH 2400 0
DWIDTH 24 0
BBX 21 18 2 0
BITMAP
E00070
E00078
E00030
E00070
E000D8
E6FF78
EEFF00
ECDB00
FCDB00
F8DB00
F8DB00
F8DB00
F8DB00
FCDB00
ECDB00
EEDB00
E6DB00
E7DB00
ENDCHAR
STARTCHAR C023453
ENCODING 10027
SWIDTH 2400 0
DWIDTH 24 0
BBX 19 18 3 0
BITMAP
070000
1F8000
180000
180000
180000
FFFFE0
187760
186660
186660
186660
186660
186660
186660
186660
186660
186660
186660
186660
ENDCHAR
STARTCHAR C023454
ENCODING 10028
SWIDTH 2400 0
DWIDTH 24 0
BBX 19 14 3 0
BITMAP
FC0000
F77FE0
E37660
C37660
C37660
C37660
C37660
C376E0
C376E0
C376E0
C376E0
C376E0
C376E0
C37660
ENDCHAR
STARTCHAR C023455
ENCODING 10029
SWIDTH 2400 0
DWIDTH 24 0
BBX 20 15 2 -2
BITMAP
0C6FF0
0C6DB0
0C6DB0
1CCDB0
18CDB0
18CDB0
19CDB0
318DB0
318DB0
318DB0
738DB0
7F8DB0
7F8DB0
E00000
C00000
ENDCHAR
STARTCHAR C023456
ENCODING 10030
SWIDTH 2400 0
DWIDTH 24 0
BBX 19 14 3 0
BITMAP
003000
FFBFE0
F9B660
F9B660
F9B660
F9B660
F9B660
F9B660
F9B660
F9B660
F9B660
F9B660
F9B660
F9B660
ENDCHAR
STARTCHAR C023457
ENCODING 10031
SWIDTH 2400 0
DWIDTH 24 0
BBX 19 13 3 0
BITMAP
7E7FE0
EE66E0
E766E0
C766E0
C066E0
C066E0
C066E0
C066E0
C3E6E0
C3E6E0
E3E6E0
E766E0
7E6660
ENDCHAR
STARTCHAR C023460
ENCODING 10032
SWIDTH 2400 0
DWIDTH 24 0
BBX 19 18 3 0
BITMAP
C00000
C00000
C00000
C00000
C00000
C7FFC0
C6E6E0
CCE6E0
DCE6E0
D8E6E0
F0E6E0
F0E6E0
F8E660
DCE660
CCE660
CEE6E0
C7E6E0
C3E6E0
ENDCHAR
STARTCHAR C023461
ENCODING 10033
SWIDTH 2400 0
DWIDTH 24 0
BBX 21 18 2 0
BITMAP
000070
000070
000030
000060
007860
FF7FF8
DB6D80
DB6D80
DB6D80
DB6D80
DB6D80
DB6D80
DB6D80
DB6D80
DB6D80
DB6D80
DB6D80
DB6D80
ENDCHAR
STARTCHAR C023462
ENCODING 10034
SWIDTH 2400 0
DWIDTH 24 0
BBX 21 18 2 0
BITMAP
000070
000078
000038
000070
000060
7EFFF8
7EFF80
67FF80
E7FF80
E7FF80
E0FF80
E0FF80
E0FF80
E7FF80
E7FF80
77FF80
7EFF80
3EFF80
ENDCHAR
STARTCHAR C023463
ENCODING 10035
SWIDTH 2400 0
DWIDTH 24 0
BBX 21 18 2 0
BITMAP
000070
0000F8
000030
000060
000060
FF7E78
F3E700
E1C700
E1C700
E1C700
E1C700
E1C700
E1C700
E1C700
E1C700
E1C700
E1C700
E1C700
ENDCHAR
STARTCHAR C023464
ENCODING 10036
SWIDTH 2400 0
DWIDTH 24 0
BBX 21 18 2 0
BITMAP
E00070
E00078
E00030
E00070
E00060
E6FFF8
EEFD80
ECD980
FCD980
F8D980
F8D980
F0D980
F8D980
F8D980
ECD980
EED980
E6D980
E7D980
ENDCHAR
STARTCHAR C023465
ENCODING 10037
SWIDTH 2400 0
DWIDTH 24 0
BBX 19 18 3 0
BITMAP
C00000
C00000
C00000
C00000
CC0000
FF1F80
E3B8C0
C1B0E0
C180E0
C181E0
C18FE0
C19C60
C1B860
C3B860
C3B860
C3B860
C3B8E0
C39FE0
ENDCHAR
STARTCHAR C023466
ENCODING 10038
SWIDTH 2400 0
DWIDTH 24 0
BBX 21 17 2 -2
BITMAP
000030
0007F0
0C6C60
0CF860
1CD870
18CC60
18CFC0
19D800
399C00
318FE0
339C70
33B838
733838
7F1830
7F0FE0
600000
E00000
ENDCHAR
STARTCHAR C023467
ENCODING 10039
SWIDTH 2400 0
DWIDTH 24 0
BBX 19 15 3 0
BITMAP
000060
000FE0
FF1FC0
FB38C0
DB30C0
DB30C0
DB1980
DB3F00
DB3000
DB1F80
DB31E0
DB6060
DB6060
DB7060
DB1FC0
ENDCHAR
STARTCHAR C023470
ENCODING 10040
SWIDTH 2400 0
DWIDTH 24 0
BBX 19 18 3 0
BITMAP
E00000
E00000
E00000
E000E0
E01FC0
E33180
E670C0
EE70C0
FC31C0
F83F80
F06000
F83800
F83F80
FC71C0
EE60E0
E66060
E770E0
E3BF80
ENDCHAR
STARTCHAR C023471
ENCODING 10041
SWIDTH 2400 0
DWIDTH 24 0
BBX 19 18 3 0
BITMAP
E01800
E01C00
E01C00
E01C00
E01C00
E19C00
E3FFC0
E71C00
EE1C00
FC1C00
F81C00
F81C00
FC1C00
EC1C00
EE1C00
E71C60
E38EE0
E18780
ENDCHAR
STARTCHAR C023472
ENCODING 10042
SWIDTH 2400 0
DWIDTH 24 0
BBX 19 18 3 0
BITMAP
000060
000060
000060
000060
000060
7C7E60
EEE660
E6C760
C60760
C60F60
C07F60
C0F360
C0E360
C6C360
C6C360
E6C360
EEE760
3C7F60
ENDCHAR
STARTCHAR C023473
ENCODING 10043
SWIDTH 2400 0
DWIDTH 24 0
BBX 19 18 3 0
BITMAP
E000E0
E000E0
E000E0
E000E0
EC00E0
EDDEE0
FB73E0
FB73E0
FE63E0
F667E0
F61FE0
F61BE0
F633E0
FE73E0
FE73E0
FF73E0
FFFFE0
EDDFE0
ENDCHAR
STARTCHAR C023474
ENCODING 10044
SWIDTH 2400 0
DWIDTH 24 0
BBX 19 18 3 0
BITMAP
01BF80
01B0C0
01B060
01B060
01B060
3FB060
73B060
61B0C0
C1BF80
C1B0C0
C1B060
C1B060
C1B060
C1B060
C1B060
61B060
73B0C0
1FBF80
ENDCHAR
STARTCHAR C023475
ENCODING 10045
SWIDTH 2400 0
DWIDTH 24 0
BBX 19 19 3 -2
BITMAP
FFC060
ECC0C0
CCC180
CCC300
CCC600
CCCC00
CCD800
003000
006000
00C000
019F80
0338C0
063000
0C3800
181FC0
3000E0
703060
E038E0
001FC0
ENDCHAR
STARTCHAR C023476
ENCODING 10046
SWIDTH 2400 0
DWIDTH 24 0
BBX 20 20 2 -2
BITMAP
C00000
FFE030
CEE060
CCE0C0
CCE180
CCE300
CCE600
CCEC70
001830
003070
006060
00C070
019F00
033980
063000
0C1F00
1801C0
3030C0
6038C0
001F80
ENDCHAR
STARTCHAR C023477
ENCODING 10047
SWIDTH 2400 0
DWIDTH 24 0
BBX 19 15 3 -2
BITMAP
DE0F80
F739C0
E330E0
C1B000
C1B800
C19E00
C187C0
C181E0
C18060
E33060
E73060
FE38C0
C01F80
C00000
C00000
ENDCHAR
STARTCHAR C023500
ENCODING 10048
SWIDTH 2400 0
DWIDTH 24 0
BBX 19 14 3 0
BITMAP
1E0000
FF8F80
E3B9C0
C3B0E0
C3B000
C3B800
C39E00
C18780
C181E0
C18060
C1B060
C1B060
C1B8C0
C19F80
ENDCHAR
STARTCHAR C023501
ENCODING 10049
SWIDTH 2400 0
DWIDTH 24 0
BBX 21 15 2 -2
BITMAP
0C67E0
186C70
18FC30
18DC00
18CE00
30C780
31C1E0
318070
318038
719C38
731C38
7F0E30
7F87E0
E00000
C00000
ENDCHAR
STARTCHAR C023502
ENCODING 10050
SWIDTH 2400 0
DWIDTH 24 0
BBX 19 13 3 0
BITMAP
7F8F80
FFB8E0
DBB0E0
DBB000
DBB800
DB9F00
DB87C0
DB80E0
DB8060
DBB060
DBB060
DBB8E0
DB8F80
ENDCHAR
STARTCHAR C023503
ENCODING 10051
SWIDTH 2400 0
DWIDTH 24 0
BBX 19 21 3 -3
BITMAP
006060
006060
007060
0030E0
DC30C0
FE30C0
E330C0
C3B8C0
C199C0
C19980
C19980
C19D80
C19D80
C18F80
E30F00
F70F00
FE0F00
C00700
C00000
C00000
C00000
ENDCHAR
STARTCHAR C023504
ENCODING 10052
SWIDTH 2400 0
DWIDTH 24 0
BBX 19 18 3 0
BITMAP
006060
006060
007060
0030E0
1E30C0
FFB0C0
E1B0C0
C1B8C0
C199C0
C19980
C1D980
C1DD80
C1CD80
C1CF80
C1CF00
C1CF00
C1CF00
C1C700
ENDCHAR
STARTCHAR C023505
ENCODING 10053
SWIDTH 2400 0
DWIDTH 24 0
BBX 21 20 2 -2
BITMAP
003818
001830
001830
001830
001C30
0C7C70
1C6C60
18CC60
18CC60
18CE60
18C6E0
3186C0
3186C0
3186C0
3387C0
7303C0
7F0380
7F0380
600000
E00000
ENDCHAR
STARTCHAR C023506
ENCODING 10054
SWIDTH 2400 0
DWIDTH 24 0
BBX 19 18 3 0
BITMAP
006060
007060
007060
0030E0
0030C0
FFB0C0
D9B8C0
D9B8C0
D999C0
D99980
D99980
D99D80
D98D80
D98F80
D98F00
D98F00
D98700
D98700
ENDCHAR
STARTCHAR C023507
ENCODING 10055
SWIDTH 2400 0
DWIDTH 24 0
BBX 19 18 3 0
BITMAP
C06060
C06060
C07060
C030E0
C030C0
C3B0C0
C738C0
CE38C0
DC19C0
D81980
F01980
F01D80
F80D80
DC0F80
CE0F00
C70F00
C38F00
C18700
ENDCHAR
STARTCHAR C023510
ENCODING 10056
SWIDTH 2400 0
DWIDTH 24 0
BBX 19 18 3 0
BITMAP
E3E060
E3F060
E3B060
E3B060
F7B0E0
F7B8C0
F7B8C0
F798C0
F798C0
F799C0
F79D80
FD8D80
FD8D80
FD8D80
DD8F80
DD8F00
DD8700
D98700
ENDCHAR
STARTCHAR C023511
ENCODING 10057
SWIDTH 2400 0
DWIDTH 24 0
BBX 19 21 3 -3
BITMAP
000700
000F00
000F00
000F00
000F80
FE0D80
F71D80
E39980
C19980
C199C0
C198C0
C1B8C0
C1BFC0
C1B0C0
E330E0
E73060
FE7060
C00060
C00000
C00000
C00000
ENDCHAR
STARTCHAR C023512
ENCODING 10058
SWIDTH 2400 0
DWIDTH 24 0
BBX 19 18 3 0
BITMAP
000700
000700
000F00
000F00
1E0F80
F70D80
C31D80
C31980
C31980
C319C0
C318C0
C338C0
C33FC0
C330C0
C330E0
C33060
C37060
C36060
ENDCHAR
STARTCHAR C023513
ENCODING 10059
SWIDTH 2400 0
DWIDTH 24 0
BBX 21 20 2 -2
BITMAP
000380
000380
0003C0
0003C0
0007C0
0C36C0
0C76E0
1C66E0
186660
186E60
18EC60
38CC70
30CFF0
30CC30
31DC30
719830
7B9838
6F9800
600000
E00000
ENDCHAR
STARTCHAR C023514
ENCODING 10060
SWIDTH 2400 0
DWIDTH 24 0
BBX 19 18 3 0
BITMAP
000700
000700
000F00
000F80
000F80
7F8D80
FD8D80
D99D80
D999C0
D999C0
D998C0
D998C0
D9BFC0
D9B0E0
D9B060
D9B060
D9F060
D98060
ENDCHAR
STARTCHAR C023515
ENCODING 10061
SWIDTH 2400 0
DWIDTH 24 0
BBX 19 18 3 0
BITMAP
E00700
E00F00
E00F00
E00F00
E00F80
E30F80
E61D80
EE1980
FC1980
F819C0
F019C0
F838C0
F83FC0
FC30C0
EE30E0
E630E0
E37060
E3E060
ENDCHAR
STARTCHAR C023516
ENCODING 10062
SWIDTH 2400 0
DWIDTH 24 0
BBX 19 21 3 -3
BITMAP
00EE60
00EE60
00EE60
00EE60
00EE60
DEEF60
F7EFE0
E3FFE0
C1FFE0
C1FFC0
C1FBC0
C1FBC0
C1FBC0
C1FBC0
E3F9C0
E379C0
FE79C0
CC79C0
C00000
C00000
C00000
ENDCHAR
STARTCHAR C023517
ENCODING 10063
SWIDTH 2400 0
DWIDTH 24 0
BBX 19 18 3 0
BITMAP
00EE60
00EE60
00EE60
00EE60
DEEF60
F7EFE0
C3EFE0
C3FFE0
C3FFC0
C3FFC0
C3FBC0
C3FBC0
C3FBC0
C3F9C0
C3F9C0
C3F9C0
C3F9C0
C3B1C0
ENDCHAR
STARTCHAR C023520
ENCODING 10064
SWIDTH 2400 0
DWIDTH 24 0
BBX 21 20 2 -2
BITMAP
003B98
003B98
003B98
003B98
003B98
31FBB8
31BBF8
31BFF8
31BFF8
31BFF0
319EF0
719EF0
639EF0
631EF0
631EF0
731E70
779E70
7F9E70
600000
C00000
ENDCHAR
STARTCHAR C023521
ENCODING 10065
SWIDTH 2400 0
DWIDTH 24 0
BBX 19 18 3 0
BITMAP
00EE60
00EE60
00EE60
00EE60
00EE60
7FEEE0
DBEFE0
DBFFE0
DBFFE0
DBFFC0
DB7BC0
DB7BC0
DB7BC0
DB7BC0
DB7BC0
DB79C0
DB79C0
DB71C0
ENDCHAR
STARTCHAR C023522
ENCODING 10066
SWIDTH 2400 0
DWIDTH 24 0
BBX 19 18 3 0
BITMAP
E19C60
E19C60
E19C60
E19C60
E1DC60
E7DE60
EEDEC0
ECFEC0
FCFEC0
F8FEC0
F0FEC0
F0F6C0
F8F3C0
FC73C0
EC73C0
E673C0
E773C0
E37380
ENDCHAR
STARTCHAR C023523
ENCODING 10067
SWIDTH 2400 0
DWIDTH 24 0
BBX 19 18 3 0
BITMAP
E3E760
E3E760
E3E760
E7E760
E7F760
F7FF60
F7BFC0
F7BFC0
FDBFC0
FDBFC0
FDBFC0
FDBFC0
FDBFC0
FD9FC0
FD9FC0
F99FC0
F99F80
D99F80
ENDCHAR
STARTCHAR C023524
ENCODING 10068
SWIDTH 2400 0
DWIDTH 24 0
BBX 19 18 3 0
BITMAP
C18000
C18000
C18000
C18000
C18000
C1BFE0
C180C0
C181C0
FF8180
C18300
C18300
C18600
C18E00
C18C00
C19800
C1B800
C1B000
01BFE0
ENDCHAR
STARTCHAR C023525
ENCODING 10069
SWIDTH 2400 0
DWIDTH 24 0
BBX 21 18 2 0
BITMAP
C18C00
C18C00
C18C00
C18C00
C18C00
CF8FF8
CD8C30
D98C70
D9FC60
F18C60
F18CE0
F98CC0
D98CC0
D98D80
CD8D80
CD8F00
C78F00
C78FF0
ENDCHAR
STARTCHAR C023526
ENCODING 10070
SWIDTH 2400 0
DWIDTH 24 0
BBX 21 18 2 0
BITMAP
E76600
E76600
E76600
E76600
E76600
E767F8
FF6630
FF6630
FF7E30
FF6660
FF6660
FF66C0
FF66C0
FF66C0
FF6780
FF6780
DF6780
DF67F8
ENDCHAR
STARTCHAR C023527
ENCODING 10071
SWIDTH 2400 0
DWIDTH 24 0
BBX 21 18 2 0
BITMAP
3CCC00
76CC00
63CC00
63CC00
C3CC00
C0CDF8
C0CC38
C0CC30
C0FC30
CFCC60
C3CC60
C3CC60
C3CCC0
C3CCC0
C3CCC0
63CD80
77CD80
3FCDF8
ENDCHAR
STARTCHAR C023530
ENCODING 10072
SWIDTH 2400 0
DWIDTH 24 0
BBX 21 18 2 0
BITMAP
FFCC00
18CC00
18CC00
18CC00
18CC00
18CDF8
18CC30
18CC30
18FC70
18CC60
18CC60
18CCC0
18CCC0
18CCC0
18CD80
18CD80
18CD80
18CFF0
ENDCHAR
STARTCHAR C023531
ENCODING 10073
SWIDTH 2400 0
DWIDTH 24 0
BBX 15 17 5 0
BITMAP
1FE0
3870
7038
6018
C00C
C00C
C00C
C00C
C00C
6018
7038
3870
0EE0
06C0
06C0
06C0
FEFE
ENDCHAR
STARTCHAR C023532
ENCODING 10074
SWIDTH 2400 0
DWIDTH 24 0
BBX 20 18 3 0
BITMAP
C01F00
C03BC0
C071E0
C060E0
C0C070
C6C070
CEC070
CCC070
D8C070
F8C070
F060E0
F070E0
F839C0
D83F80
CC1F00
CE1F00
C71F00
C3FFE0
ENDCHAR
STARTCHAR C023533
ENCODING 10075
SWIDTH 2400 0
DWIDTH 24 0
BBX 20 18 3 0
BITMAP
E71F80
E739C0
E770E0
E770E0
E7E070
E7E070
FFE070
FFE070
FFE070
FFF070
FF70E0
FF79C0
FF3FC0
FF1F00
FF1F00
FF1F00
DF1F00
DFFFE0
ENDCHAR
STARTCHAR C023534
ENCODING 10076
SWIDTH 2400 0
DWIDTH 24 0
BBX 19 21 3 -3
BITMAP
003FE0
003000
003000
003000
DC3000
FF3000
E33000
C3BFE0
C1B000
C1B000
C1B000
C1B000
C1B000
C1B000
E33000
F73000
FE3000
E03000
E00000
E00000
E00000
ENDCHAR
STARTCHAR C023535
ENCODING 10077
SWIDTH 2400 0
DWIDTH 24 0
BBX 19 18 3 0
BITMAP
003FE0
003000
003000
003000
1F3000
FFB000
E3B000
C3BFC0
C3B000
C3B000
C3B000
C1B000
C1B000
C1B000
C1B000
C1B000
C1B000
C1B000
ENDCHAR
STARTCHAR C023536
ENCODING 10078
SWIDTH 2400 0
DWIDTH 24 0
BBX 21 20 2 -2
BITMAP
000FF8
000C00
000C00
000C00
000C00
0C6C00
1C6C00
186FF0
18CC00
18CC00
38CC00
30CC00
318C00
318C00
718C00
738C00
778C00
7F8C00
E00000
C00000
ENDCHAR
STARTCHAR C023537
ENCODING 10079
SWIDTH 2400 0
DWIDTH 24 0
BBX 19 18 3 0
BITMAP
000060
000060
000060
000060
000060
FFBC60
FFF660
DBE660
DBE360
DBE360
DBE360
DBE360
DBE360
DBE360
DBE360
DBE660
DBF660
DBBC60
ENDCHAR
STARTCHAR C023540
ENCODING 10080
SWIDTH 2400 0
DWIDTH 24 0
BBX 19 18 3 0
BITMAP
000060
000060
000060
000060
000060
3F0FE0
739CE0
71D860
E1F860
E03860
E03860
E03860
E03860
E0F860
E0D860
70D860
39CCE0
1F07E0
ENDCHAR
STARTCHAR C023541
ENCODING 10081
SWIDTH 2400 0
DWIDTH 24 0
BBX 19 18 3 0
BITMAP
0000E0
0000E0
0000E0
0000E0
0003E0
FFE7E0
F676E0
E67C60
E67C60
E0FC60
E3FC60
E73C60
E73C60
EE3C60
EE3C60
E73C60
E776E0
E3F7E0
ENDCHAR
STARTCHAR C023542
ENCODING 10082
SWIDTH 2400 0
DWIDTH 24 0
BBX 19 20 3 -2
BITMAP
000600
000600
000600
000600
FFBE00
EDE600
C3E600
CFE600
D9E600
CDFEE0
CFDFC0
000700
001E00
003BC0
00E360
01C700
0703C0
0E0060
380760
7003E0
ENDCHAR
STARTCHAR C023543
ENCODING 10083
SWIDTH 2400 0
DWIDTH 24 0
BBX 21 20 2 -2
BITMAP
000600
000600
000600
C31E00
FFBE00
CDE600
C7E600
CDE600
D9E670
CFFEF0
C603F8
000730
000C78
003BC0
0066C0
01C700
0301C0
0E06C0
1C06C0
300380
ENDCHAR
STARTCHAR C023544
ENCODING 10084
SWIDTH 2400 0
DWIDTH 24 0
BBX 18 13 3 0
BITMAP
3E37C0
63BE00
C3BC00
C03800
E03800
783800
1F3800
03B800
01B800
C1B800
C1B800
E3B800
3E3800
ENDCHAR
STARTCHAR C023545
ENCODING 10085
SWIDTH 2400 0
DWIDTH 24 0
BBX 19 18 3 0
BITMAP
FE0000
E38000
E18000
E0C000
E0C000
E0CFC0
E0DCE0
E1F860
E18060
FF00E0
FC0FE0
E018E0
E030E0
E060E0
E060E0
E060E0
E031E0
E01F60
ENDCHAR
STARTCHAR C023546
ENCODING 10086
SWIDTH 2400 0
DWIDTH 24 0
BBX 19 18 3 0
BITMAP
C1F000
C1B800
C19800
C19800
C19800
CD9BC0
D99E60
D99E60
F19860
F1B8E0
F1F1E0
F18360
F98660
D98660
D98660
DD8660
CD87E0
CD83E0
ENDCHAR
STARTCHAR C023547
ENCODING 10087
SWIDTH 2400 0
DWIDTH 24 0
BBX 20 18 2 0
BITMAP
E77C00
E76E00
E76600
E76600
E76660
E767F0
FF67B0
FF6630
FF6630
FF6C70
FF78F0
FF61B0
FF61B0
FF61B0
FF61B0
FF61B0
DF61B0
DF60F0
ENDCHAR
STARTCHAR C023550
ENCODING 10088
SWIDTH 2400 0
DWIDTH 24 0
BBX 20 18 2 0
BITMAP
3CF800
36DC00
63CC00
63CC00
C3CFE0
C0CF30
C0CE30
C0CE30
C0CC30
CFDCF0
C3F9F0
C3C3B0
C3C330
C3C330
C3C330
67C330
7FC1F0
3FC1F0
ENDCHAR
STARTCHAR C023551
ENCODING 10089
SWIDTH 2400 0
DWIDTH 24 0
BBX 19 18 3 0
BITMAP
DED800
DED800
DED800
DED800
DED800
DEDFC0
DF9CC0
DF98E0
DF9860
FF9860
FF9860
F79860
F79860
F79860
F79860
F798C0
F79DC0
F71F80
ENDCHAR
STARTCHAR C023552
ENCODING 10090
SWIDTH 2400 0
DWIDTH 24 0
BBX 17 18 4 0
BITMAP
E00000
E00000
E00000
E00000
E00000
E7FF00
E73980
E63180
E63180
E63180
E63180
E63180
E63180
E63180
E63180
E63180
E63180
E63180
ENDCHAR
STARTCHAR C023553
ENCODING 10091
SWIDTH 2400 0
DWIDTH 24 0
BBX 15 18 5 0
BITMAP
E000
E000
E000
E000
E000
E60E
E30C
E398
E198
E0F0
E0F0
E060
E0F0
E0F0
E198
E19C
E30C
E706
ENDCHAR
STARTCHAR C023554
ENCODING 10092
SWIDTH 2400 0
DWIDTH 24 0
BBX 19 20 3 -2
BITMAP
FE0000
C30000
C18000
C18000
C18000
C19FE0
C1B8E0
C33860
FF7060
C3F060
C3F060
C1F060
C1F060
C1B860
C1B8E0
C39FE0
C70060
FE0060
000060
000060
ENDCHAR
STARTCHAR C023555
ENCODING 10093
SWIDTH 2400 0
DWIDTH 24 0
BBX 19 21 3 -3
BITMAP
3E0000
F30000
E18000
C18000
C18000
C03060
C03860
C018E0
C018C0
CF98C0
C19DC0
C18D80
C18D80
C18F80
C18F00
E38700
738700
3F8600
000600
000E00
003C00
ENDCHAR
STARTCHAR C023556
ENCODING 10094
SWIDTH 2400 0
DWIDTH 24 0
BBX 19 18 3 0
BITMAP
3F0000
638000
E1C000
C1C000
C00000
E01860
601860
7018E0
1C1CC0
070CC0
038CC0
01CDC0
00CF80
C0C780
C0C780
C0C780
618700
3F0300
ENDCHAR
STARTCHAR C023557
ENCODING 10095
SWIDTH 2400 0
DWIDTH 24 0
BBX 21 20 2 -3
BITMAP
78C000
D8C000
D98000
C18000
C18000
C30000
DBC000
FFC000
76C000
06C000
0CD9F0
0CFB60
0CF370
18F3E0
18DBE0
30DB00
30CFF0
300618
600738
0003F0
ENDCHAR
STARTCHAR C023560
ENCODING 10096
SWIDTH 2400 0
DWIDTH 24 0
BBX 0 0 0 0
BITMAP
ENDCHAR
STARTCHAR C023561
ENCODING 10097
SWIDTH 2400 0
DWIDTH 24 0
BBX 0 0 0 0
BITMAP
ENDCHAR
STARTCHAR C023562
ENCODING 10098
SWIDTH 2400 0
DWIDTH 24 0
BBX 0 0 0 0
BITMAP
ENDCHAR
STARTCHAR C023563
ENCODING 10099
SWIDTH 2400 0
DWIDTH 24 0
BBX 1 21 24 -4
BITMAP
80
00
00
00
00
00
00
80
00
00
00
00
80
00
00
00
00
00
00
00
80
ENDCHAR
STARTCHAR C023564
ENCODING 10100
SWIDTH 2400 0
DWIDTH 24 0
BBX 0 0 0 0
BITMAP
ENDCHAR
STARTCHAR C023565
ENCODING 10101
SWIDTH 2400 0
DWIDTH 24 0
BBX 0 0 0 0
BITMAP
ENDCHAR
STARTCHAR C023566
ENCODING 10102
SWIDTH 2400 0
DWIDTH 24 0
BBX 0 0 0 0
BITMAP
ENDCHAR
STARTCHAR C023567
ENCODING 10103
SWIDTH 2400 0
DWIDTH 24 0
BBX 0 0 0 0
BITMAP
ENDCHAR
STARTCHAR C023570
ENCODING 10104
SWIDTH 2400 0
DWIDTH 24 0
BBX 1 2 24 16
BITMAP
80
80
ENDCHAR
STARTCHAR C023571
ENCODING 10105
SWIDTH 2400 0
DWIDTH 24 0
BBX 0 0 0 0
BITMAP
ENDCHAR
STARTCHAR C023572
ENCODING 10106
SWIDTH 2400 0
DWIDTH 24 0
BBX 0 0 0 0
BITMAP
ENDCHAR
STARTCHAR C023573
ENCODING 10107
SWIDTH 2400 0
DWIDTH 24 0
BBX 0 0 0 0
BITMAP
ENDCHAR
STARTCHAR C023574
ENCODING 10108
SWIDTH 2400 0
DWIDTH 24 0
BBX 0 0 0 0
BITMAP
ENDCHAR
STARTCHAR C023575
ENCODING 10109
SWIDTH 2400 0
DWIDTH 24 0
BBX 0 0 0 0
BITMAP
ENDCHAR
STARTCHAR C023576
ENCODING 10110
SWIDTH 2400 0
DWIDTH 24 0
BBX 0 0 0 0
BITMAP
ENDCHAR
STARTCHAR C023577
ENCODING 10111
SWIDTH 2400 0
DWIDTH 24 0
BBX 0 0 0 0
BITMAP
ENDCHAR
STARTCHAR C024040
ENCODING 10272
SWIDTH 2400 0
DWIDTH 24 0
BBX 1 2 24 1
BITMAP
80
80
ENDCHAR
STARTCHAR C024041
ENCODING 10273
SWIDTH 2400 0
DWIDTH 24 0
BBX 19 16 3 0
BITMAP
00FFC0
01FFE0
03C000
03C000
07C000
06C000
0CC000
0CFFC0
18FFC0
1DC000
3FC000
70C000
60C000
E0C000
C0E000
00FFE0
ENDCHAR
STARTCHAR C024042
ENCODING 10274
SWIDTH 2400 0
DWIDTH 24 0
BBX 16 16 4 0
BITMAP
0FC0
1FF8
1C0C
1C06
1C07
1C03
1C03
FF83
3E03
1C03
1C03
1C03
1C06
1C0E
1E7C
1FF0
ENDCHAR
STARTCHAR C024043
ENCODING 10275
SWIDTH 2400 0
DWIDTH 24 0
BBX 12 15 7 0
BITMAP
3F80
61C0
60C0
60C0
07C0
3DC0
71C0
E1C0
E1C0
E3C0
FFE0
3CF0
0000
0000
FFE0
ENDCHAR
STARTCHAR C024044
ENCODING 10276
SWIDTH 2400 0
DWIDTH 24 0
BBX 17 16 4 0
BITMAP
380C00
380C00
FFFF80
FFFF80
380C00
380C00
380C00
3FFC00
380C00
380C00
380C00
380C00
380C00
380C00
380C00
380C00
ENDCHAR
STARTCHAR C024045
ENCODING 10277
SWIDTH 2400 0
DWIDTH 24 0
BBX 1 15 24 0
BITMAP
80
80
80
80
80
80
80
80
80
80
80
80
80
80
80
ENDCHAR
STARTCHAR C024046
ENCODING 10278
SWIDTH 2400 0
DWIDTH 24 0
BBX 12 15 6 0
BITMAP
E030
E030
E030
E030
E030
E030
E030
E030
E030
FC30
FC30
FC30
FC30
EE60
E7C0
ENDCHAR
STARTCHAR C024047
ENCODING 10279
SWIDTH 2400 0
DWIDTH 24 0
BBX 1 2 24 16
BITMAP
80
80
ENDCHAR
STARTCHAR C024050
ENCODING 10280
SWIDTH 2400 0
DWIDTH 24 0
BBX 11 15 7 0
BITMAP
E000
E000
E000
E000
E000
E000
E700
E700
E000
E000
E000
E000
E000
F000
FFE0
ENDCHAR
STARTCHAR C024051
ENCODING 10281
SWIDTH 2400 0
DWIDTH 24 0
BBX 15 15 5 0
BITMAP
1C00
1CC0
1D80
1F00
1F00
1E00
1C00
1C00
3C00
7C00
FC00
DC00
1C00
1E00
1FFE
ENDCHAR
STARTCHAR C024052
ENCODING 10282
SWIDTH 2400 0
DWIDTH 24 0
BBX 16 18 4 -1
BITMAP
0003
07E6
1E7E
181C
381C
303E
706E
70C6
60C6
6186
7306
760E
3C0E
3C0C
181C
3E78
67E0
C000
ENDCHAR
STARTCHAR C024053
ENCODING 10283
SWIDTH 2400 0
DWIDTH 24 0
BBX 21 16 2 0
BITMAP
0FDFF8
3CFFF8
387000
707000
707000
E07000
E07000
E07FF0
E07FE0
E07000
E07000
F07000
707000
787000
3C7800
1FFFF8
ENDCHAR
STARTCHAR C024054
ENCODING 10284
SWIDTH 2400 0
DWIDTH 24 0
BBX 11 15 7 0
BITMAP
3F80
71C0
71C0
E0E0
E0E0
E0E0
E0E0
E0E0
E1E0
71C0
3F80
0E00
0000
0000
FFE0
ENDCHAR
STARTCHAR C024055
ENCODING 10285
SWIDTH 2400 0
DWIDTH 24 0
BBX 12 15 7 1
BITMAP
E000
E000
E000
E000
FFC0
FBE0
E0F0
E070
E070
E070
E0E0
FFC0
E000
E000
E000
ENDCHAR
STARTCHAR C024056
ENCODING 10286
SWIDTH 2400 0
DWIDTH 24 0
BBX 13 15 6 1
BITMAP
FFF8
0780
0700
0700
0700
0700
0700
0700
7FF0
0700
0700
0700
0700
0700
0700
ENDCHAR
STARTCHAR C024057
ENCODING 10287
SWIDTH 2400 0
DWIDTH 24 0
BBX 11 18 7 -1
BITMAP
C000
FFC0
F1C0
E0E0
C0E0
C0E0
C0E0
C0E0
C0E0
C0E0
C0E0
C0E0
C0E0
C0E0
C0E0
C1C0
CFC0
0C00
ENDCHAR
STARTCHAR C024060
ENCODING 10288
SWIDTH 2400 0
DWIDTH 24 0
BBX 1 7 24 4
BITMAP
80
80
80
80
80
80
80
ENDCHAR
STARTCHAR C024061
ENCODING 10289
SWIDTH 2400 0
DWIDTH 24 0
BBX 20 20 2 -3
BITMAP
03FC00
0F0700
1C0380
3000C0
7000E0
7FFF60
E00760
C00730
C00730
C00730
C00730
C00630
C00E30
600E60
600060
7000E0
3000C0
1C0380
0F0700
03FC00
ENDCHAR
STARTCHAR C024062
ENCODING 10290
SWIDTH 2400 0
DWIDTH 24 0
BBX 20 20 2 -3
BITMAP
03FC00
0F0700
1C0380
3000C0
7000E0
600060
EE0060
CE0030
CE0030
CE0030
CE0030
CE0030
CE0030
6E0060
6FFFE0
7000E0
3000C0
1C0380
0F0700
03FC00
ENDCHAR
STARTCHAR C024063
ENCODING 10291
SWIDTH 2400 0
DWIDTH 24 0
BBX 20 20 2 -3
BITMAP
03FC00
0F0700
1C0380
3000C0
7000E0
6FFFE0
EE0060
CE0030
CE0030
CE0030
CE0030
CE0030
CE0030
6E0060
6FFFE0
7000E0
3000C0
1C0380
0F0700
03FC00
ENDCHAR
STARTCHAR C024064
ENCODING 10292
SWIDTH 2400 0
DWIDTH 24 0
BBX 20 20 2 -3
BITMAP
03FC00
0F0700
1C0380
3000C0
7000E0
6FFF60
E00760
C00730
C00730
C7FF30
C70030
C70030
C70030
670060
67FFE0
7000E0
3000C0
1C0380
0F0700
03FC00
ENDCHAR
STARTCHAR C024065
ENCODING 10293
SWIDTH 2400 0
DWIDTH 24 0
BBX 20 20 2 -3
BITMAP
03FC00
0F0700
1C0380
3000C0
7000E0
6FFFE0
EE03E0
CE03B0
CE03B0
CE03B0
CE03B0
CE03B0
CE03B0
6E03E0
6FFFE0
7000E0
3000C0
1C0380
0F0700
03FC00
ENDCHAR
STARTCHAR C024066
ENCODING 10294
SWIDTH 2400 0
DWIDTH 24 0
BBX 20 20 2 -3
BITMAP
03FC00
0F0700
1C0380
3000C0
7000E0
6E03E0
EE03E0
CE03B0
CFFFB0
CE03B0
CE03B0
CE03B0
CE03B0
6E03E0
6FFFE0
7000E0
3000C0
1C0380
0F0700
03FC00
ENDCHAR
STARTCHAR C024067
ENCODING 10295
SWIDTH 2400 0
DWIDTH 24 0
BBX 20 20 2 -3
BITMAP
03FC00
0F0700
1C0380
3000C0
7070E0
607060
E07060
C07030
C07030
C0F830
C1DC30
C38E30
C70730
7E03E0
7800E0
7000E0
3000C0
1C0380
0F0700
03FC00
ENDCHAR
STARTCHAR C024070
ENCODING 10296
SWIDTH 2400 0
DWIDTH 24 0
BBX 20 20 2 -3
BITMAP
03FC00
0F0700
1C0380
3000C0
71FCE0
638E60
E70760
CE03B0
CE03B0
CE03B0
CE03B0
CE03B0
C70730
638E60
61FC60
7000E0
3000C0
1C0380
0F0700
03FC00
ENDCHAR
STARTCHAR C024071
ENCODING 10297
SWIDTH 2400 0
DWIDTH 24 0
BBX 20 20 2 -3
BITMAP
03FC00
0F0700
1C0380
3000C0
7000E0
6FFFE0
E06060
C07030
C0F030
C0F830
C1DC30
C38E30
C70730
7E03E0
600060
7000E0
3000C0
1C0380
0F0700
03FC00
ENDCHAR
STARTCHAR C024072
ENCODING 10298
SWIDTH 2400 0
DWIDTH 24 0
BBX 20 20 2 -3
BITMAP
03FC00
0F0700
1C0380
3000C0
73FCE0
600060
E00060
CFFFB0
C06030
C07030
C0F830
C1D830
C38E30
6F07E0
7C01E0
7000E0
3000C0
1C0380
0F0700
03FC00
ENDCHAR
STARTCHAR C024073
ENCODING 10299
SWIDTH 2400 0
DWIDTH 24 0
BBX 20 20 2 -3
BITMAP
03FC00
0F0700
1C0380
3000C0
7000E0
6FFFE0
E003E0
C003B0
C003B0
C03FB0
CFE3B0
C00330
C00730
600660
600060
7000E0
3000C0
1C0380
0F0700
03FC00
ENDCHAR
STARTCHAR C024074
ENCODING 10300
SWIDTH 2400 0
DWIDTH 24 0
BBX 20 20 2 -3
BITMAP
03FC00
0F0700
1C0380
3000C0
7000E0
6FFF60
EE0060
CE0030
CE0030
CFFF30
CE0030
CE0030
CE0030
6E0060
6FFFE0
7000E0
3000C0
1C0380
0F0700
03FC00
ENDCHAR
STARTCHAR C024075
ENCODING 10301
SWIDTH 2400 0
DWIDTH 24 0
BBX 20 20 2 -3
BITMAP
03FC00
0F0700
1C0380
3000C0
7000E0
6FFF60
E00060
C00030
C30C30
C30C30
C38C30
C38C30
C18C30
619C60
6FFFE0
7000E0
3000C0
1C0380
0F0700
03FC00
ENDCHAR
STARTCHAR C024076
ENCODING 10302
SWIDTH 2400 0
DWIDTH 24 0
BBX 20 20 2 -3
BITMAP
03FC00
0F0700
1C0380
3000C0
71FCE0
600060
E00060
DFFFB0
C00030
C1F830
C70E30
CE0730
CE0730
6E0760
6E0760
770EE0
31F8C0
1C0380
0F0700
03FC00
ENDCHAR
STARTCHAR C024077
ENCODING 10303
SWIDTH 2400 0
DWIDTH 24 0
BBX 20 20 2 -3
BITMAP
03FC00
0F0700
1C0380
300EC0
700EE0
6FEE60
E06E60
C0EE30
C0CE30
C0CE30
C18FF0
C38E30
C70E30
7E0E60
600E60
700EE0
300EC0
1C0380
0F0700
03FC00
ENDCHAR
STARTCHAR C024100
ENCODING 10304
SWIDTH 2400 0
DWIDTH 24 0
BBX 20 20 2 -3
BITMAP
03FC00
0F0700
1C0380
300EC0
700EE0
7C0E60
FC0E60
DC0E30
DC0E30
DC0E30
DC0FF0
DC0E30
DC3E30
7FFE60
600E60
700EE0
300EC0
1C0380
0F0700
03FC00
ENDCHAR
STARTCHAR C024101
ENCODING 10305
SWIDTH 2400 0
DWIDTH 24 0
BBX 20 20 2 -3
BITMAP
03FC00
0F0700
1C0380
300EC0
700EE0
7FFE60
FC0E60
DC0E30
DC0E30
DC0E30
DC0FF0
DC0E30
DC7E30
7FFE60
600E60
700EE0
300EC0
1C0380
0F0700
03FC00
ENDCHAR
STARTCHAR C024102
ENCODING 10306
SWIDTH 2400 0
DWIDTH 24 0
BBX 20 20 2 -3
BITMAP
03FC00
0F0700
1C0380
300EC0
700EE0
6FFE60
E07E60
C07E30
C07E30
CFFE30
CE0FF0
CE0E30
CE0E30
6FFE60
600E60
700EE0
300EC0
1C0380
0F0700
03FC00
ENDCHAR
STARTCHAR C024103
ENCODING 10307
SWIDTH 2400 0
DWIDTH 24 0
BBX 20 20 2 -3
BITMAP
03FC00
0F0700
1C0380
300EC0
700EE0
7FEE60
FC6E60
DC6E30
DC6E30
DC6E30
DC6FF0
DC6E30
DC6E30
7FEE60
600E60
700EE0
300EC0
1C0380
0F0700
03FC00
ENDCHAR
STARTCHAR C024104
ENCODING 10308
SWIDTH 2400 0
DWIDTH 24 0
BBX 20 20 2 -3
BITMAP
03FC00
0F0700
1C0380
300EC0
700EE0
600E60
FC7E60
DC7E30
DC7E30
DFFE30
DC7FF0
DC7E30
DC7E30
7C7E60
7FFE60
700EE0
300EC0
1C0380
0F0700
03FC00
ENDCHAR
STARTCHAR C024105
ENCODING 10309
SWIDTH 2400 0
DWIDTH 24 0
BBX 20 20 2 -3
BITMAP
03FC00
0F0700
1C0380
300EC0
700EE0
638E60
E38E60
C38E30
C38E30
C7CE30
C7CFF0
CEEE30
DC7E30
783E60
600E60
700EE0
300EC0
1C0380
0F0700
03FC00
ENDCHAR
STARTCHAR C024106
ENCODING 10310
SWIDTH 2400 0
DWIDTH 24 0
BBX 20 20 2 -3
BITMAP
03FC00
0F0700
1C0380
300EC0
700EE0
67CE60
EEEE60
DC7E30
DC7E30
DC7E30
DC7FF0
DC7E30
DC7E30
6EEE60
67CE60
700EE0
300EC0
1C0380
0F0700
03FC00
ENDCHAR
STARTCHAR C024107
ENCODING 10311
SWIDTH 2400 0
DWIDTH 24 0
BBX 20 20 2 -3
BITMAP
03FC00
0F0700
1C0380
300EC0
700EE0
7FFE60
E38E60
C38E30
C38E30
C7CE30
C6CFF0
CEEE30
CC6E30
783E60
600E60
700EE0
300EC0
1C0380
0F0700
03FC00
ENDCHAR
STARTCHAR C024110
ENCODING 10312
SWIDTH 2400 0
DWIDTH 24 0
BBX 20 20 2 -3
BITMAP
03FC00
0F0700
1C0380
37EEC0
700EE0
600E60
EFFE60
C18E30
C18E30
C18E30
C3CFF0
C3CE30
C6EE30
6E7E60
600E60
700EE0
300EC0
1C0380
0F0700
03FC00
ENDCHAR
STARTCHAR C024111
ENCODING 10313
SWIDTH 2400 0
DWIDTH 24 0
BBX 20 20 2 -3
BITMAP
03FC00
0F0700
1C0380
300EC0
700EE0
6FEE60
E06E60
C06E30
C1EE30
DFEE30
C0EFF0
C0CE30
C1CE30
638E60
670E60
7C0EE0
300EC0
1C0380
0F0700
03FC00
ENDCHAR
STARTCHAR C024112
ENCODING 10314
SWIDTH 2400 0
DWIDTH 24 0
BBX 20 20 2 -3
BITMAP
03FC00
0F0700
1C0380
300EC0
700EE0
7FFE60
FC0E60
DC0E30
DC0E30
DFEE30
DC0FF0
DC0E30
DC0E30
7C3E60
7FEE60
700EE0
300EC0
1C0380
0F0700
03FC00
ENDCHAR
STARTCHAR C024113
ENCODING 10315
SWIDTH 2400 0
DWIDTH 24 0
BBX 20 20 2 -3
BITMAP
03FC00
0F0700
1C0380
300EC0
700EE0
7FFE60
E00E60
C60E30
C6EE30
C6EE30
C6EFF0
C6EE30
C7FE30
7FFE60
600E60
700EE0
300EC0
1C0380
0F0700
03FC00
ENDCHAR
STARTCHAR C024114
ENCODING 10316
SWIDTH 2400 0
DWIDTH 24 0
BBX 20 20 2 -3
BITMAP
03FC00
0F0700
1C0380
300EC0
77CEE0
600E60
E00E60
DFFE30
C00E30
C7CE30
CEEFF0
CC6E30
CC6E30
6EEE60
67CE60
700EE0
300EC0
1C0380
0F0700
03FC00
ENDCHAR
STARTCHAR C024115
ENCODING 10317
SWIDTH 2400 0
DWIDTH 24 0
BBX 20 20 2 -3
BITMAP
03FC00
0F0700
1C0380
3000C0
7000E0
60FC60
E18E60
C38630
C00E30
C1FE30
C3EE30
C38E30
C38E30
639E60
61FFE0
7000E0
3000C0
1C0380
0F0700
03FC00
ENDCHAR
STARTCHAR C024116
ENCODING 10318
SWIDTH 2400 0
DWIDTH 24 0
BBX 20 20 2 -3
BITMAP
03FC00
0F0700
1C0380
3700C0
7700E0
670060
E70060
C7F830
C79C30
C70E30
C70E30
C70E30
C70E30
670E60
670E60
779CE0
37F8C0
1C0380
0F0700
03FC00
ENDCHAR
STARTCHAR C024117
ENCODING 10319
SWIDTH 2400 0
DWIDTH 24 0
BBX 20 20 2 -3
BITMAP
03FC00
0F0700
1C0380
3000C0
7000E0
60F860
E19C60
C30C30
C70C30
C70030
C70030
C70C30
C30C30
639C60
60F860
7000E0
3000C0
1C0380
0F0700
03FC00
ENDCHAR
STARTCHAR C024120
ENCODING 10320
SWIDTH 2400 0
DWIDTH 24 0
BBX 20 20 2 -3
BITMAP
03FC00
0F0700
1C0F80
300EC0
700EE0
600E60
E1FE60
C39E30
C39E30
C70E30
C70E30
C70E30
C70E30
670E60
639E60
739EE0
31FEC0
1C0380
0F0700
03FC00
ENDCHAR
STARTCHAR C024121
ENCODING 10321
SWIDTH 2400 0
DWIDTH 24 0
BBX 20 20 2 -3
BITMAP
03FC00
0F0700
1C0380
3000C0
7000E0
60F860
E39C60
C30C30
C70E30
C7FE30
C70030
C70030
C30E30
618C60
60F860
7000E0
3000C0
1C0380
0F0700
03FC00
ENDCHAR
STARTCHAR C024122
ENCODING 10322
SWIDTH 2400 0
DWIDTH 24 0
BBX 20 20 2 -3
BITMAP
03FC00
0F0700
1C0380
301CC0
707CE0
607060
E07060
C1FC30
C07030
C07030
C07030
C07030
C07030
607060
607060
7070E0
3070C0
1C0380
0F0700
03FC00
ENDCHAR
STARTCHAR C024123
ENCODING 10323
SWIDTH 2400 0
DWIDTH 24 0
BBX 20 20 2 -3
BITMAP
03FC00
0F0700
1C0380
31FEC0
739EE0
679E60
E70E60
C70E30
C70E30
C70E30
C70E30
C71E30
C39E30
61FE60
630C60
7318E0
31F0C0
1C0380
0F0700
03FC00
ENDCHAR
STARTCHAR C024124
ENCODING 10324
SWIDTH 2400 0
DWIDTH 24 0
BBX 20 20 2 -3
BITMAP
03FC00
0F0700
1F0380
3300C0
7300E0
630060
E37860
C3DC30
C38C30
C30C30
C30C30
C30C30
C30C30
638C60
638C60
738CE0
338CC0
1C0380
0F0700
03FC00
ENDCHAR
STARTCHAR C024125
ENCODING 10325
SWIDTH 2400 0
DWIDTH 24 0
BBX 20 20 2 -3
BITMAP
03FC00
0F0700
1C0380
3070C0
7000E0
600060
E00060
C07030
C07030
C07030
C07030
C07030
C07030
607060
607060
7070E0
3070C0
1C0380
0F0700
03FC00
ENDCHAR
STARTCHAR C024126
ENCODING 10326
SWIDTH 2400 0
DWIDTH 24 0
BBX 20 20 2 -3
BITMAP
03FC00
0F0700
1C7380
3000C0
7000E0
607060
E07060
C07030
C07030
C07030
C07030
C07030
C07030
607060
607060
7070E0
3070C0
1DF380
0FC700
03FC00
ENDCHAR
STARTCHAR C024127
ENCODING 10327
SWIDTH 2400 0
DWIDTH 24 0
BBX 20 20 2 -3
BITMAP
03FC00
0F0700
1D8380
3180C0
7180E0
618060
E18660
C18C30
C19830
C1B030
C1E030
C1F030
C1B830
619860
618C60
718CE0
3186C0
1C0380
0F0700
03FC00
ENDCHAR
STARTCHAR C024130
ENCODING 10328
SWIDTH 2400 0
DWIDTH 24 0
BBX 20 20 2 -3
BITMAP
03FC00
0F0700
1C0380
3070C0
7070E0
607060
E07060
C07030
C07030
C07030
C07030
C07030
C07030
607060
607060
7070E0
3070C0
1C0380
0F0700
03FC00
ENDCHAR
STARTCHAR C024131
ENCODING 10329
SWIDTH 2400 0
DWIDTH 24 0
BBX 20 20 2 -3
BITMAP
03FC00
0F0700
1C0380
3000C0
7C00E0
7FFF60
FE73E0
DC61B0
DC61B0
DC61B0
DC61B0
DC61B0
DC61B0
7C61E0
7C61E0
7000E0
3000C0
1C0380
0F0700
03FC00
ENDCHAR
STARTCHAR C024132
ENCODING 10330
SWIDTH 2400 0
DWIDTH 24 0
BBX 20 20 2 -3
BITMAP
03FC00
0F0700
1C0380
3000C0
7300E0
63FC60
E3DE60
C38E30
C38E30
C38E30
C38E30
C38E30
C38E30
638E60
638E60
738EE0
3000C0
1C0380
0F0700
03FC00
ENDCHAR
STARTCHAR C024133
ENCODING 10331
SWIDTH 2400 0
DWIDTH 24 0
BBX 20 20 2 -3
BITMAP
03FC00
0F0700
1C0380
3000C0
7000E0
61F860
E39C60
C30C30
C70E30
C70E30
C70E30
C70E30
C30C30
639C60
61F860
7000E0
3000C0
1C0380
0F0700
03FC00
ENDCHAR
STARTCHAR C024134
ENCODING 10332
SWIDTH 2400 0
DWIDTH 24 0
BBX 20 20 2 -3
BITMAP
03FC00
0F0700
1C0380
37F8C0
779CE0
679C60
E70E60
C70E30
C70E30
C70E30
C70E30
C79C30
C79C30
67F860
670060
7700E0
3700C0
1C0380
0F0700
03FC00
ENDCHAR
STARTCHAR C024135
ENCODING 10333
SWIDTH 2400 0
DWIDTH 24 0
BBX 20 20 2 -3
BITMAP
03FC00
0F0700
1C0380
31FFC0
738FE0
630F60
E70760
C70730
C70730
C70730
C70F30
C39F30
C1F730
600760
600760
7007E0
3007C0
1C0380
0F0700
03FC00
ENDCHAR
STARTCHAR C024136
ENCODING 10334
SWIDTH 2400 0
DWIDTH 24 0
BBX 20 20 2 -3
BITMAP
03FC00
0F0700
1C0380
3000C0
7000E0
61B860
E1F860
C1C030
C1C030
C1C030
C1C030
C1C030
C1C030
61C060
61C060
71C0E0
3000C0
1C0380
0F0700
03FC00
ENDCHAR
STARTCHAR C024137
ENCODING 10335
SWIDTH 2400 0
DWIDTH 24 0
BBX 20 20 2 -3
BITMAP
03FC00
0F0700
1C0380
3000C0
70F8E0
619C60
E18C60
C38030
C1F030
C0FC30
C01C30
C30C30
C38C30
619C60
61F860
7000E0
3000C0
1C0380
0F0700
03FC00
ENDCHAR
STARTCHAR C024140
ENCODING 10336
SWIDTH 2400 0
DWIDTH 24 0
BBX 20 20 2 -3
BITMAP
03FC00
0F0700
1C0380
3070C0
7070E0
607060
E1FE60
C07030
C07030
C07030
C07030
C07030
C07030
607060
607860
703CE0
3000C0
1C0380
0F0700
03FC00
ENDCHAR
STARTCHAR C024141
ENCODING 10337
SWIDTH 2400 0
DWIDTH 24 0
BBX 20 20 2 -3
BITMAP
03FC00
0F0700
1C0380
3000C0
7000E0
638E60
E38E60
C38E30
C38E30
C38E30
C38E30
C38E30
C38E30
639E60
61FE60
70EEE0
3000C0
1C0380
0F0700
03FC00
ENDCHAR
STARTCHAR C024142
ENCODING 10338
SWIDTH 2400 0
DWIDTH 24 0
BBX 20 20 2 -3
BITMAP
03FC00
0F0700
1C0380
3000C0
7000E0
630C60
E30C60
C38C30
C19C30
C19830
C1D830
C0F830
C0F030
60F060
607060
7060E0
3000C0
1C0380
0F0700
03FC00
ENDCHAR
STARTCHAR C024143
ENCODING 10339
SWIDTH 2400 0
DWIDTH 24 0
BBX 20 20 2 -3
BITMAP
03FC00
0F0700
1C0380
3000C0
7000E0
6C61E0
EC71E0
CCF330
CEF330
C6FB30
C6DF30
C7DE30
C79E30
639E60
638C60
738CE0
3000C0
1C0380
0F0700
03FC00
ENDCHAR
STARTCHAR C024144
ENCODING 10340
SWIDTH 2400 0
DWIDTH 24 0
BBX 20 20 2 -3
BITMAP
03FC00
0F0700
1C0380
3000C0
730CE0
638C60
E19860
C0F830
C0F030
C07030
C0F030
C0F830
C1D830
619C60
630C60
7306E0
3000C0
1C0380
0F0700
03FC00
ENDCHAR
STARTCHAR C024145
ENCODING 10341
SWIDTH 2400 0
DWIDTH 24 0
BBX 20 20 2 -3
BITMAP
03FC00
0F0700
1C0380
330CC0
730CE0
638C60
E19C60
C19830
C1D830
C0F830
C0F030
C0F030
C07030
606060
606060
7060E0
33C0C0
1C0380
0F0700
03FC00
ENDCHAR
STARTCHAR C024146
ENCODING 10342
SWIDTH 2400 0
DWIDTH 24 0
BBX 20 20 2 -3
BITMAP
03FC00
0F0700
1C0380
3000C0
7000E0
63FE60
E01C60
C01830
C03030
C07030
C06030
C0C030
C18030
638060
63FE60
7000E0
3000C0
1C0380
0F0700
03FC00
ENDCHAR
STARTCHAR C024147
ENCODING 10343
SWIDTH 2400 0
DWIDTH 24 0
BBX 20 20 2 -3
BITMAP
03FC00
0F0700
1C0380
3038C0
7038E0
607860
E3F860
C03830
C03830
C03830
C03830
C03830
C03830
603860
603860
7038E0
3000C0
1C0380
0F0700
03FC00
ENDCHAR
STARTCHAR C024150
ENCODING 10344
SWIDTH 2400 0
DWIDTH 24 0
BBX 20 20 2 -3
BITMAP
03FC00
0F0700
1C0380
30F8C0
71DCE0
638E60
E38E60
C38E30
C00E30
C01C30
C03830
C0F030
C1C030
638060
630060
7700E0
37FEC0
1C0380
0F0700
03FC00
ENDCHAR
STARTCHAR C024151
ENCODING 10345
SWIDTH 2400 0
DWIDTH 24 0
BBX 20 20 2 -3
BITMAP
03FC00
0F0700
1C0380
31F8C0
739CE0
670E60
E70E60
C70E30
C01E30
C0FC30
C01E30
C00E30
C70E30
670E60
670E60
739CE0
31F8C0
1C0380
0F0700
03FC00
ENDCHAR
STARTCHAR C024152
ENCODING 10346
SWIDTH 2400 0
DWIDTH 24 0
BBX 20 20 2 -3
BITMAP
03FC00
0F0700
1C0380
3030C0
7070E0
60F060
E0F060
C1B030
C1B030
C33030
C73030
C63030
CFFE30
603060
603060
7030E0
3000C0
1C0380
0F0700
03FC00
ENDCHAR
STARTCHAR C024153
ENCODING 10347
SWIDTH 2400 0
DWIDTH 24 0
BBX 20 20 2 -3
BITMAP
03FC00
0F0700
1C0380
33FEC0
7300E0
630060
E30060
C30030
C3F030
C39C30
C30C30
C00E30
C00E30
660E60
670E60
731CE0
31F0C0
1C0380
0F0700
03FC00
ENDCHAR
STARTCHAR C024154
ENCODING 10348
SWIDTH 2400 0
DWIDTH 24 0
BBX 20 20 2 -3
BITMAP
03FC00
0F0700
1C0380
30F8C0
71CCE0
638E60
E30E60
C70030
C7F830
C78C30
C70630
C70630
C70630
670660
630E60
738CE0
30F8C0
1C0380
0F0700
03FC00
ENDCHAR
STARTCHAR C024155
ENCODING 10349
SWIDTH 2400 0
DWIDTH 24 0
BBX 20 20 2 -3
BITMAP
03FC00
0F0700
1C0380
33FFC0
700EE0
600C60
E01860
C03830
C03030
C07030
C06030
C06030
C0E030
60C060
60C060
70C0E0
30C0C0
1C0380
0F0700
03FC00
ENDCHAR
STARTCHAR C024156
ENCODING 10350
SWIDTH 2400 0
DWIDTH 24 0
BBX 20 20 2 -3
BITMAP
03FC00
0F0700
1C0380
30F8C0
71DCE0
638E60
E38E60
C38E30
C3DC30
C1FC30
C19C30
C30E30
C70E30
670E60
670E60
739CE0
31F0C0
1C0380
0F0700
03FC00
ENDCHAR
STARTCHAR C024157
ENCODING 10351
SWIDTH 2400 0
DWIDTH 24 0
BBX 20 20 2 -3
BITMAP
03FC00
0F0700
1C0380
30F8C0
71DCE0
638C60
E38E60
C38E30
C38E30
C38E30
C1DE30
C0FE30
C00630
630660
638C60
719CE0
30F8C0
1C0380
0F0700
03FC00
ENDCHAR
STARTCHAR C024160
ENCODING 10352
SWIDTH 2400 0
DWIDTH 24 0
BBX 20 20 2 -3
BITMAP
03FC00
0F0700
1C0380
3000C0
700FE0
671FE0
E739E0
FF39F0
C739F0
C739F0
C739F0
C739F0
C739F0
6739E0
671FE0
770FE0
3000C0
1C0380
0F0700
03FC00
ENDCHAR
STARTCHAR C024161
ENCODING 10353
SWIDTH 2400 0
DWIDTH 24 0
BBX 20 20 2 -3
BITMAP
03FC00
0F0700
1C0380
3000C0
7000E0
670760
E70760
FF3F30
C70730
C70730
C70730
C70730
C70730
670760
670760
7707E0
3000C0
1C0380
0F0700
03FC00
ENDCHAR
STARTCHAR C024162
ENCODING 10354
SWIDTH 2400 0
DWIDTH 24 0
BBX 20 20 2 -3
BITMAP
03FC00
0F0700
1C0380
3000C0
7000E0
671F60
E73BE0
FF31F0
C731F0
C701B0
C70330
C70630
C70C30
671860
673060
777FE0
3000C0
1C0380
0F0700
03FC00
ENDCHAR
STARTCHAR C024163
ENCODING 10355
SWIDTH 2400 0
DWIDTH 24 0
BBX 20 20 2 -3
BITMAP
03FC00
0F0700
1C0380
3000C0
700EE0
673FE0
E733E0
FF31B0
C703B0
C70E30
C703B0
C701F0
C761F0
6771E0
6733E0
773FE0
3000C0
1C0380
0F0700
03FC00
ENDCHAR
STARTCHAR C024164
ENCODING 10356
SWIDTH 2400 0
DWIDTH 24 0
BBX 20 20 2 -3
BITMAP
03FC00
0F0700
1C0380
3000C0
7000E0
670760
E70F60
FF0F30
C71F30
C73F30
C73730
C77730
C77FF0
670760
670760
7707E0
3000C0
1C0380
0F0700
03FC00
ENDCHAR
STARTCHAR C024165
ENCODING 10357
SWIDTH 2400 0
DWIDTH 24 0
BBX 20 20 2 -3
BITMAP
03FC00
0F0700
1C0380
3000C0
707FE0
677060
E76060
FF7C30
C77F30
C763B0
C703B0
C703B0
C763B0
677760
673E60
7700E0
3000C0
1C0380
0F0700
03FC00
ENDCHAR
STARTCHAR C024166
ENCODING 10358
SWIDTH 2400 0
DWIDTH 24 0
BBX 18 16 3 0
BITMAP
1C1800
1C1800
FC3000
3C3000
1C6000
1C6000
1CDF80
1CF9C0
1DB9C0
1DB9C0
1F0380
030700
060C00
061800
0C3800
0C3FC0
ENDCHAR
STARTCHAR C024167
ENCODING 10359
SWIDTH 2400 0
DWIDTH 24 0
BBX 18 16 3 0
BITMAP
181800
181800
F83000
383000
186000
186000
18CF80
18D9C0
1998C0
1981C0
1B0780
030380
0600C0
0618C0
0C1DC0
0C0F80
ENDCHAR
STARTCHAR C024170
ENCODING 10360
SWIDTH 2400 0
DWIDTH 24 0
BBX 18 16 3 0
BITMAP
7E0C00
EF0C00
C71800
C71800
0E3000
1C3000
386F80
6079C0
E0D8C0
FFC1C0
018780
018380
0300C0
0318C0
061DC0
060F80
ENDCHAR
STARTCHAR C024171
ENCODING 10361
SWIDTH 2400 0
DWIDTH 24 0
BBX 19 16 3 0
BITMAP
1C1800
1C1800
FC3000
1C3000
1C6380
1C6780
1CC780
1CCF80
1D9F80
1D9B80
1F3380
037380
067FE0
060380
0C0380
0C0380
ENDCHAR
STARTCHAR C024172
ENCODING 10362
SWIDTH 2400 0
DWIDTH 24 0
BBX 18 16 4 0
BITMAP
7C1800
EE1800
C63000
0E3000
3C6700
0E6F00
06CF00
C6DF00
EFBF00
7DB700
036700
03E700
06FFC0
060700
0C0700
0C0700
ENDCHAR
STARTCHAR C024173
ENCODING 10363
SWIDTH 2400 0
DWIDTH 24 0
BBX 18 16 3 0
BITMAP
1C1800
1C1800
FC3000
3C3000
1C6000
1C6000
1CCF80
1CDCC0
1D9CC0
1D9CC0
1F0F80
031F80
0618C0
0618C0
0C1DC0
0C0F80
ENDCHAR
STARTCHAR C024174
ENCODING 10364
SWIDTH 2400 0
DWIDTH 24 0
BBX 18 16 3 0
BITMAP
3E0C00
761C00
671800
063800
1C3000
1E7000
076F80
E3FCC0
67DCC0
7FDCC0
018F80
039F80
0318C0
0718C0
061DC0
0E0F80
ENDCHAR
STARTCHAR C024175
ENCODING 10365
SWIDTH 2400 0
DWIDTH 24 0
BBX 18 16 3 0
BITMAP
3F8C00
301800
701800
7E3000
773000
03E000
03EF80
E3DCC0
E7DCC0
7F9CC0
018F80
031F80
0318C0
0618C0
061DC0
0C0F80
ENDCHAR
STARTCHAR C024176
ENCODING 10366
SWIDTH 2400 0
DWIDTH 24 0
BBX 17 16 4 0
BITMAP
FF3000
063000
0E6000
0C6000
1CC000
18C000
399F00
31B980
333980
333980
361F00
063F00
0C3180
0C3180
183B80
181F00
ENDCHAR
STARTCHAR C024177
ENCODING 10367
SWIDTH 2400 0
DWIDTH 24 0
BBX 0 0 0 0
BITMAP
ENDCHAR
STARTCHAR C024440
ENCODING 10528
SWIDTH 2400 0
DWIDTH 24 0
BBX 1 9 24 1
BITMAP
80
80
00
00
80
80
80
80
80
ENDCHAR
STARTCHAR C024441
ENCODING 10529
SWIDTH 2400 0
DWIDTH 24 0
BBX 17 12 4 0
BITMAP
3E7E00
63E700
C3C300
C18380
038380
3FFF80
F18000
C18000
C38180
C3C380
E6E700
7C7E00
ENDCHAR
STARTCHAR C024442
ENCODING 10530
SWIDTH 2400 0
DWIDTH 24 0
BBX 14 16 6 0
BITMAP
00E0
00E0
0FFC
00E0
1EE0
7FE0
71E0
E0E0
E0E0
E0E0
E0E0
E0E0
E0E0
71E0
7BE0
3EE0
ENDCHAR
STARTCHAR C024443
ENCODING 10531
SWIDTH 2400 0
DWIDTH 24 0
BBX 10 17 7 0
BITMAP
0300
7700
1C00
1C00
7600
6700
0300
0F80
7F80
63C0
C1C0
C1C0
C1C0
C1C0
C180
6380
3F00
ENDCHAR
STARTCHAR C024444
ENCODING 10532
SWIDTH 2400 0
DWIDTH 24 0
BBX 12 16 6 0
BITMAP
1800
1800
FF80
3800
1800
1BC0
1FE0
1C30
1830
1830
1830
1830
1C30
1C30
1C30
1C30
ENDCHAR
STARTCHAR C024445
ENCODING 10533
SWIDTH 2400 0
DWIDTH 24 0
BBX 3 11 11 0
BITMAP
E0
E0
E0
E0
E0
E0
E0
E0
E0
E0
E0
ENDCHAR
STARTCHAR C024446
ENCODING 10534
SWIDTH 2400 0
DWIDTH 24 0
BBX 9 19 8 -3
BITMAP
C380
E380
0000
0000
0000
E380
E380
E380
E380
E380
E380
E380
E380
E380
E380
E380
0380
1F80
0C00
ENDCHAR
STARTCHAR C024447
ENCODING 10535
SWIDTH 2400 0
DWIDTH 24 0
BBX 9 11 8 0
BITMAP
C300
C600
DC00
F800
FC00
EC00
CE00
C600
C300
C380
C180
ENDCHAR
STARTCHAR C024450
ENCODING 10536
SWIDTH 2400 0
DWIDTH 24 0
BBX 7 16 9 0
BITMAP
E0
E0
E0
E0
E0
E0
E0
EE
EE
EE
E0
E0
E0
E0
E0
E0
ENDCHAR
STARTCHAR C024451
ENCODING 10537
SWIDTH 2400 0
DWIDTH 24 0
BBX 11 16 7 0
BITMAP
0E00
0E00
0E00
0E60
0EC0
0F80
0F00
0E00
0E00
1E00
3E00
6E00
EE00
0E00
0E00
0E00
ENDCHAR
STARTCHAR C024452
ENCODING 10538
SWIDTH 2400 0
DWIDTH 24 0
BBX 14 13 6 0
BITMAP
000C
1FF8
3870
3070
60D8
6198
6718
6E18
7C18
7818
7030
F860
0FC0
ENDCHAR
STARTCHAR C024453
ENCODING 10539
SWIDTH 2400 0
DWIDTH 24 0
BBX 19 12 3 0
BITMAP
1E1F00
7FBF80
71E0C0
F0E0C0
E060C0
E060E0
E07FE0
E0C000
E060C0
70E0C0
79B3C0
3F1F80
ENDCHAR
STARTCHAR C024454
ENCODING 10540
SWIDTH 2400 0
DWIDTH 24 0
BBX 10 17 8 0
BITMAP
0C00
7F00
E380
E180
C180
C180
C300
DE00
CF80
C1C0
C0C0
C0C0
C0C0
C0C0
C0C0
C380
DF00
ENDCHAR
STARTCHAR C024455
ENCODING 10541
SWIDTH 2400 0
DWIDTH 24 0
BBX 11 18 7 -2
BITMAP
C000
C000
C000
C000
CF00
FFC0
F1C0
E0E0
E0E0
E0E0
E0E0
E0E0
E0E0
F1C0
FBC0
DF00
C000
C000
ENDCHAR
STARTCHAR C024456
ENCODING 10542
SWIDTH 2400 0
DWIDTH 24 0
BBX 7 15 9 0
BITMAP
38
38
38
FE
7E
38
FE
FE
38
38
38
38
38
3E
06
ENDCHAR
STARTCHAR C024457
ENCODING 10543
SWIDTH 2400 0
DWIDTH 24 0
BBX 10 15 7 -3
BITMAP
CF00
FB80
F1C0
E1C0
E1C0
E1C0
E1C0
E1C0
E1C0
E1C0
E1C0
E1C0
01C0
03C0
0F80
ENDCHAR
STARTCHAR C024460
ENCODING 10544
SWIDTH 2400 0
DWIDTH 24 0
BBX 14 14 5 0
BITMAP
7000
7000
7CF0
EFF8
CF1C
0E1C
0E1C
0E1C
0E1C
0E1C
0E1C
0E1C
0E1C
0E1C
ENDCHAR
STARTCHAR C024461
ENCODING 10545
SWIDTH 2400 0
DWIDTH 24 0
BBX 21 19 2 -2
BITMAP
0C0180
0C0180
1800C0
300060
300060
77FFF0
6003B0
E003B8
E003B8
E003B8
E00338
E00338
E00738
600730
700070
300060
3800C0
1800C0
0C0180
ENDCHAR
STARTCHAR C024462
ENCODING 10546
SWIDTH 2400 0
DWIDTH 24 0
BBX 21 19 2 -2
BITMAP
0C0180
0C0180
1800C0
300060
300060
700070
6E0030
EE0038
EE0038
EE0038
EE0038
EE0038
EE0038
6E0030
7FFFF0
300060
3800C0
1800C0
0C0180
ENDCHAR
STARTCHAR C024463
ENCODING 10547
SWIDTH 2400 0
DWIDTH 24 0
BBX 21 19 2 -2
BITMAP
0C0000
180180
1800C0
300060
700060
7FFF70
EE0030
EE0038
EE0038
EE0038
EE0038
EE0038
EE0038
7E0030
7FFFF0
300060
1800C0
1C00C0
0C0180
ENDCHAR
STARTCHAR C024464
ENCODING 10548
SWIDTH 2400 0
DWIDTH 24 0
BBX 21 19 2 -2
BITMAP
0C0180
0C01C0
1800E0
300060
300070
7FFF70
600738
E00738
E00738
EFFF38
EE0038
EE0038
EE0038
6E0030
7FFF70
300060
3800C0
1800C0
0C0180
ENDCHAR
STARTCHAR C024465
ENCODING 10549
SWIDTH 2400 0
DWIDTH 24 0
BBX 21 19 2 -2
BITMAP
0C0180
0C0180
1800C0
300060
300060
7FFFF0
6E03B0
EE03B8
EE03B8
EE03B8
EE03B8
EE03B8
EE03B8
6FFFB0
700070
300060
3800C0
1800C0
0C0180
ENDCHAR
STARTCHAR C024466
ENCODING 10550
SWIDTH 2400 0
DWIDTH 24 0
BBX 21 19 2 -2
BITMAP
0C0180
0C0180
1800C0
300060
300060
7E03F0
6E03B0
EE03B8
EE03B8
EFFFB8
EE03B8
EE03B8
EE03B8
6E03B0
7FFFF0
300060
3800C0
1800C0
0C0180
ENDCHAR
STARTCHAR C024467
ENCODING 10551
SWIDTH 2400 0
DWIDTH 24 0
BBX 21 19 2 -2
BITMAP
0C0180
0C0180
1800C0
300060
307060
707070
607030
E07038
E07038
E0F838
E0D838
E1DC38
E38E38
6F07B0
7C01F0
300060
3800C0
1800C0
0C0180
ENDCHAR
STARTCHAR C024470
ENCODING 10552
SWIDTH 2400 0
DWIDTH 24 0
BBX 21 19 2 -2
BITMAP
0C0180
1C01C0
1800C0
300060
31FC60
738E70
670730
EE03B8
EE03B8
EE03B8
EE03B8
EE03B8
E70738
638E30
71FC70
300060
3800C0
1800C0
0C0180
ENDCHAR
STARTCHAR C024471
ENCODING 10553
SWIDTH 2400 0
DWIDTH 24 0
BBX 21 19 2 -2
BITMAP
0C0180
0C0180
1800C0
300060
300060
7FFFF0
607030
E07038
E0F838
E0D838
E1DC38
E38E38
E70738
7E01F0
700070
300060
3800C0
1800C0
0C0180
ENDCHAR
STARTCHAR C024472
ENCODING 10554
SWIDTH 2400 0
DWIDTH 24 0
BBX 21 19 2 -2
BITMAP
0C0180
0C0180
1800C0
300060
33FC60
700070
600030
EFFFB8
E06038
E07038
E0F038
E1F838
E39C38
6F0F30
7E03F0
300060
3800C0
1800C0
0C0180
ENDCHAR
STARTCHAR C024473
ENCODING 10555
SWIDTH 2400 0
DWIDTH 24 0
BBX 21 19 2 -2
BITMAP
0C0180
0C0180
1800C0
300060
300060
7FFFF0
6003B0
E003B8
E003B8
E0FFB8
EFE3B8
E00338
E00738
600630
700070
300060
3800C0
1800C0
0C0180
ENDCHAR
STARTCHAR C024474
ENCODING 10556
SWIDTH 2400 0
DWIDTH 24 0
BBX 21 19 2 -2
BITMAP
0C0180
0C0180
1800C0
300060
300060
7FFF70
6E0030
EE0038
EE0038
EFFF38
EE0038
EE0038
EE0038
6E0030
7FFFF0
300060
3800C0
1800C0
0C0180
ENDCHAR
STARTCHAR C024475
ENCODING 10557
SWIDTH 2400 0
DWIDTH 24 0
BBX 21 19 2 -2
BITMAP
0C0180
0C0180
1800C0
300060
300060
7FFF70
600030
E00038
E30C38
E30C38
E38C38
E38C38
E18C38
619C30
7FFFF0
300060
3800C0
1800C0
0C0180
ENDCHAR
STARTCHAR C024476
ENCODING 10558
SWIDTH 2400 0
DWIDTH 24 0
BBX 21 19 2 -2
BITMAP
0C0180
0C0180
1800C0
300060
33FC60
700070
6FFFB0
E00038
E00038
E1F838
E38C38
E30638
E30638
630630
738C70
31F860
3800C0
1800C0
0C0180
ENDCHAR
STARTCHAR C024477
ENCODING 10559
SWIDTH 2400 0
DWIDTH 24 0
BBX 21 20 2 -3
BITMAP
0C0000
0C0180
1800C0
300EE0
300E60
7FEE70
606E70
E0EE38
E0CE38
E0CE38
E18FF8
E38E38
E70E38
7E0E30
700E70
300E60
180E60
1800C0
0C0180
000300
ENDCHAR
STARTCHAR C024500
ENCODING 10560
SWIDTH 2400 0
DWIDTH 24 0
BBX 21 20 2 -3
BITMAP
0C0000
0C0180
1800C0
300EE0
300E60
7C0E70
7C0E70
FC0E38
FC0E38
FC0E38
FC0FF8
FC0E38
FC3E38
7FFE30
700E70
300E60
180E60
1800C0
0C0180
000300
ENDCHAR
STARTCHAR C024501
ENCODING 10561
SWIDTH 2400 0
DWIDTH 24 0
BBX 21 20 2 -3
BITMAP
0C0000
0C0180
1800C0
300EE0
300E60
7FEE70
7C0E70
FC0E38
FC0E38
FC0E38
FC0FF8
FC0E38
FFFE38
7FCE30
700E70
300E60
380E60
1800C0
0C0180
000300
ENDCHAR
STARTCHAR C024502
ENCODING 10562
SWIDTH 2400 0
DWIDTH 24 0
BBX 21 19 2 -2
BITMAP
0C0180
0C0180
1800C0
300E60
300E60
7FFE70
607E30
E07E38
E07E38
EFFE38
EE0FF8
EE0E38
EE0E38
EE0E30
7FFE70
700E60
300EC0
1800C0
1C0180
ENDCHAR
STARTCHAR C024503
ENCODING 10563
SWIDTH 2400 0
DWIDTH 24 0
BBX 21 20 2 -3
BITMAP
0C0000
0C0180
1800C0
300EE0
300E60
7FEE70
7C6E70
FC6E38
FC6E38
FC6E38
FC6FF8
FC6E38
FC6E38
7FEE30
700E70
300E60
180E60
1800C0
0C0180
000300
ENDCHAR
STARTCHAR C024504
ENCODING 10564
SWIDTH 2400 0
DWIDTH 24 0
BBX 21 20 2 -3
BITMAP
0C0000
0C0180
1800C0
300EE0
300E60
700E70
7C7E70
FC7E38
FC7E38
FFFE38
FC7FF8
FC7E38
FC7E38
7C7E30
7FFE70
300E60
380E60
1800C0
0C0180
000300
ENDCHAR
STARTCHAR C024505
ENCODING 10565
SWIDTH 2400 0
DWIDTH 24 0
BBX 21 20 2 -3
BITMAP
0C0000
0C0180
1800C0
300EE0
300E60
738E70
638E70
E38E38
E38E38
E38E38
E7CFF8
E6CE38
ECEE38
7C7E30
783E70
300E60
180E60
1800C0
0C0180
000300
ENDCHAR
STARTCHAR C024506
ENCODING 10566
SWIDTH 2400 0
DWIDTH 24 0
BBX 21 20 2 -3
BITMAP
0C0000
0C0180
1800C0
300EE0
300E60
77CE70
6EEE70
FC7E38
FC7E38
FC7E38
FC7FF8
FC7E38
FC7E38
6EEE30
77CE70
300E60
380E60
1800C0
0C0180
000300
ENDCHAR
STARTCHAR C024507
ENCODING 10567
SWIDTH 2400 0
DWIDTH 24 0
BBX 21 20 2 -3
BITMAP
0C0000
0C0180
1800C0
300EE0
300E60
7FFE70
638E70
E38E38
E38E38
E7CE38
E6CFF8
EEEE38
EC6E38
783E30
700E70
300E60
180E60
1800C0
0C0180
000300
ENDCHAR
STARTCHAR C024510
ENCODING 10568
SWIDTH 2400 0
DWIDTH 24 0
BBX 21 20 2 -3
BITMAP
0C0000
0C0180
1800C0
300EE0
37EE60
700E70
600E70
EFFE38
E18E38
E18E38
E3CFF8
E3CE38
E7EE38
6E7E30
7C3E70
300E60
380E60
1800C0
0C0180
000300
ENDCHAR
STARTCHAR C024511
ENCODING 10569
SWIDTH 2400 0
DWIDTH 24 0
BBX 21 20 2 -3
BITMAP
0C0000
0C0180
1800C0
300EE0
300E60
7FEE70
606E70
E06E38
EFEE38
FFEE38
E0CFF8
E1CE38
E18E38
670E30
7E0E70
300E60
380E60
1800C0
0C0180
000300
ENDCHAR
STARTCHAR C024512
ENCODING 10570
SWIDTH 2400 0
DWIDTH 24 0
BBX 21 20 2 -3
BITMAP
0C0000
0C0180
1800C0
300EE0
300E60
7FFE70
7C0E70
FC0E38
FC0E38
FFEE38
FC0FF8
FC0E38
FC0E38
7C3E30
7FEE70
300E60
380E60
1800C0
0C0180
000300
ENDCHAR
STARTCHAR C024513
ENCODING 10571
SWIDTH 2400 0
DWIDTH 24 0
BBX 21 20 2 -3
BITMAP
0C0000
0C0180
1800C0
300EE0
300E60
7FFE70
600E70
E60E38
E6EE38
E6EE38
E6EFF8
E6EE38
E7FE38
7FEE30
700E70
300E60
380E60
1800C0
0C0180
000300
ENDCHAR
STARTCHAR C024514
ENCODING 10572
SWIDTH 2400 0
DWIDTH 24 0
BBX 21 20 2 -3
BITMAP
0C0000
0C0180
1800C0
300EE0
37CE60
700E70
600E70
FFFE38
E00E38
E7CE38
ECEFF8
EC6E38
EC6E38
6EEE30
77CE70
300E60
380E60
1800C0
0C0180
000300
ENDCHAR
STARTCHAR C024515
ENCODING 10573
SWIDTH 2400 0
DWIDTH 24 0
BBX 21 19 2 -2
BITMAP
0C0180
0C0180
1800C0
300060
300060
70FC70
618E30
E38638
E00E38
E1FE38
E3EE38
E38E38
E38E38
639E30
71FFF0
300060
3800C0
1800C0
0C0180
ENDCHAR
STARTCHAR C024516
ENCODING 10574
SWIDTH 2400 0
DWIDTH 24 0
BBX 21 19 2 -2
BITMAP
0C0180
0C0180
1800C0
338060
338060
738070
638030
E3FC38
E3CE38
E38738
E38738
E38738
E38738
638730
738F70
33CE60
3BFCC0
1800C0
0C0180
ENDCHAR
STARTCHAR C024517
ENCODING 10575
SWIDTH 2400 0
DWIDTH 24 0
BBX 21 19 2 -2
BITMAP
0C0180
0C0180
1800C0
300060
300060
70F870
619C30
E30C38
E70C38
E70038
E70038
E70C38
E30C38
639C30
70F870
300060
3800C0
1800C0
0C0180
ENDCHAR
STARTCHAR C024520
ENCODING 10576
SWIDTH 2400 0
DWIDTH 24 0
BBX 21 19 2 -2
BITMAP
0C0180
180180
180EC0
300E60
300E60
700E70
61FE30
E33E38
E31E38
E60E38
E60E38
E60E38
E60E38
660E30
731E70
333E60
39FEC0
1800C0
0C0180
ENDCHAR
STARTCHAR C024521
ENCODING 10577
SWIDTH 2400 0
DWIDTH 24 0
BBX 21 19 2 -2
BITMAP
0C0180
0C0180
1800C0
300060
300060
70F870
619C30
E30C38
E70E38
E7FE38
E70038
E70038
E70E38
639E30
71F870
300060
3800C0
1800C0
0C0180
ENDCHAR
STARTCHAR C024522
ENCODING 10578
SWIDTH 2400 0
DWIDTH 24 0
BBX 21 19 2 -2
BITMAP
0C0180
0C0180
1800C0
301C60
307C60
707070
607030
E1FC38
E07038
E07038
E07038
E07038
E07038
607030
707070
307060
3870C0
1800C0
0C0180
ENDCHAR
STARTCHAR C024523
ENCODING 10579
SWIDTH 2400 0
DWIDTH 24 0
BBX 21 19 2 -2
BITMAP
0C0180
0C0180
1800C0
31FE60
339E60
779E70
670E30
E70E38
E70E38
E70E38
E70E38
E71E38
E39E38
61FE30
730C70
331C60
39F0C0
1800C0
0C0180
ENDCHAR
STARTCHAR C024524
ENCODING 10580
SWIDTH 2400 0
DWIDTH 24 0
BBX 21 19 2 -2
BITMAP
0C0180
0C0180
1B00C0
330060
330060
730070
63F830
E3FC38
E38E38
E38E38
E38E38
E38E38
E38E38
638E30
738E70
338E60
3B8EC0
1800C0
0C0180
ENDCHAR
STARTCHAR C024525
ENCODING 10581
SWIDTH 2400 0
DWIDTH 24 0
BBX 21 19 2 -2
BITMAP
0C0180
0C0180
1800C0
307060
307060
700070
600030
E07038
E07038
E07038
E07038
E07038
E07038
607030
707070
307060
3870C0
1800C0
0C0180
ENDCHAR
STARTCHAR C024526
ENCODING 10582
SWIDTH 2400 0
DWIDTH 24 0
BBX 21 19 2 -2
BITMAP
0C0180
0C0180
1870C0
300060
300060
707070
607030
E07038
E07038
E07038
E07038
E07038
E07038
607030
707070
307060
3870C0
19F0C0
0DC180
ENDCHAR
STARTCHAR C024527
ENCODING 10583
SWIDTH 2400 0
DWIDTH 24 0
BBX 21 19 2 -2
BITMAP
0C0180
0C0180
1B80C0
338060
338060
738070
638630
E39C38
E3B838
E3F038
E3E038
E3F038
E3B838
639830
738C70
338C60
3B86C0
1800C0
0C0180
ENDCHAR
STARTCHAR C024530
ENCODING 10584
SWIDTH 2400 0
DWIDTH 24 0
BBX 21 19 2 -2
BITMAP
0C0180
0C0180
1800C0
307060
307060
707070
607030
E07038
E07038
E07038
E07038
E07038
E07038
607030
707070
307060
3870C0
1800C0
0C0180
ENDCHAR
STARTCHAR C024531
ENCODING 10585
SWIDTH 2400 0
DWIDTH 24 0
BBX 21 19 2 -2
BITMAP
0C0180
0C0180
1800C0
300060
3D8060
7FEFF0
7E7BF0
FC61F8
FC61F8
FC61F8
FC61F8
FC61F8
FC61F8
7C61F0
7C61F0
300060
3800C0
1800C0
0C0180
ENDCHAR
STARTCHAR C024532
ENCODING 10586
SWIDTH 2400 0
DWIDTH 24 0
BBX 21 19 2 -2
BITMAP
0C0180
0C0180
1800C0
300060
330060
73FC70
63DE30
E38E38
E38E38
E38E38
E38E38
E38E38
E38E38
638E30
738E70
338E60
3800C0
1800C0
0C0180
ENDCHAR
STARTCHAR C024533
ENCODING 10587
SWIDTH 2400 0
DWIDTH 24 0
BBX 21 19 2 -2
BITMAP
0C0180
0C0180
1800C0
300060
300060
71F870
639C30
E31C38
E70E38
E70E38
E70E38
E70E38
E30C38
639C30
71F870
300060
3800C0
1800C0
0C0180
ENDCHAR
STARTCHAR C024534
ENCODING 10588
SWIDTH 2400 0
DWIDTH 24 0
BBX 21 19 2 -2
BITMAP
0C0180
0C0180
1800C0
33FC60
33CE60
73CE70
638730
E38738
E38738
E38738
E38738
E3CE38
E3CE38
63FC30
738070
338060
3B80C0
1800C0
0C0180
ENDCHAR
STARTCHAR C024535
ENCODING 10589
SWIDTH 2400 0
DWIDTH 24 0
BBX 21 19 2 -2
BITMAP
0C0180
0C0180
1800C0
31FE60
331E60
761E70
660E30
E60E38
E60E38
E60E38
E61E38
E31E38
E1FE38
600E30
700E70
300E60
380EC0
1800C0
0C0180
ENDCHAR
STARTCHAR C024536
ENCODING 10590
SWIDTH 2400 0
DWIDTH 24 0
BBX 21 19 2 -2
BITMAP
0C0180
0C0180
1800C0
300060
300060
71DC70
61F830
E1E038
E1C038
E1C038
E1C038
E1C038
E1C038
61C030
71C070
31C060
3800C0
1800C0
0C0180
ENDCHAR
STARTCHAR C024537
ENCODING 10591
SWIDTH 2400 0
DWIDTH 24 0
BBX 21 19 2 -2
BITMAP
0C0180
0C0180
1800C0
300060
30F860
719C70
618C30
E38038
E1F038
E0FC38
E01C38
E30C38
E38C38
619C30
71F870
300060
3800C0
1800C0
0C0180
ENDCHAR
STARTCHAR C024540
ENCODING 10592
SWIDTH 2400 0
DWIDTH 24 0
BBX 21 19 2 -2
BITMAP
0C0180
0C0180
1800C0
306060
306060
706070
61FC30
E06038
E06038
E06038
E06038
E06038
E06038
606030
707070
303860
3800C0
1800C0
0C0180
ENDCHAR
STARTCHAR C024541
ENCODING 10593
SWIDTH 2400 0
DWIDTH 24 0
BBX 21 19 2 -2
BITMAP
0C0180
0C0180
1800C0
300060
300060
738E70
638E30
E38E38
E38E38
E38E38
E38E38
E38E38
E38E38
639E30
71FE70
30FE60
3800C0
1800C0
0C0180
ENDCHAR
STARTCHAR C024542
ENCODING 10594
SWIDTH 2400 0
DWIDTH 24 0
BBX 21 19 2 -2
BITMAP
0C0180
0C0180
1800C0
300060
300060
730C70
630C30
E38C38
E19C38
E19838
E1D838
E0F838
E0F038
60F030
707070
306060
3800C0
1800C0
0C0180
ENDCHAR
STARTCHAR C024543
ENCODING 10595
SWIDTH 2400 0
DWIDTH 24 0
BBX 21 19 2 -2
BITMAP
0C0180
0C0180
1800C0
300060
300060
7C61F0
6C71B0
ECF338
EEF338
E6FB38
E6DF38
E7DE38
E79E38
639E30
738C70
338C60
380CC0
1800C0
0C0180
ENDCHAR
STARTCHAR C024544
ENCODING 10596
SWIDTH 2400 0
DWIDTH 24 0
BBX 21 19 2 -2
BITMAP
0C0180
0C0180
1800C0
300060
330C60
730C70
619830
E1F838
E0F038
E06038
E0F038
E0F038
E19838
619C30
730C70
300060
3800C0
1800C0
0C0180
ENDCHAR
STARTCHAR C024545
ENCODING 10597
SWIDTH 2400 0
DWIDTH 24 0
BBX 21 19 2 -2
BITMAP
0C0180
0C0180
1800C0
330060
330C60
738C70
618C30
E19838
E1D838
E0D838
E0F038
E0F038
E07038
607030
706070
306060
3BC0C0
1980C0
0C0180
ENDCHAR
STARTCHAR C024546
ENCODING 10598
SWIDTH 2400 0
DWIDTH 24 0
BBX 21 19 2 -2
BITMAP
0C0180
0C0180
1800C0
300060
300060
73FE70
601C30
E01838
E03038
E07038
E06038
E0C038
E18038
638030
73FE70
300060
3800C0
1800C0
0C0180
ENDCHAR
STARTCHAR C024547
ENCODING 10599
SWIDTH 2400 0
DWIDTH 24 0
BBX 21 19 2 -2
BITMAP
0C0180
0C0180
1800C0
303860
303860
707870
63F830
E03838
E03838
E03838
E03838
E03838
E03838
603830
703870
303860
3800C0
1800C0
0C0180
ENDCHAR
STARTCHAR C024550
ENCODING 10600
SWIDTH 2400 0
DWIDTH 24 0
BBX 21 19 2 -2
BITMAP
0C0180
0C0180
1800C0
30F860
31DC60
738E70
638E30
E38E38
E01C38
E03C38
E07038
E0E038
E38038
630030
770070
37FE60
3800C0
1800C0
0C0180
ENDCHAR
STARTCHAR C024551
ENCODING 10601
SWIDTH 2400 0
DWIDTH 24 0
BBX 21 19 2 -2
BITMAP
0C0180
0C0180
1800C0
30F860
31DC60
738E70
638E30
E38E38
E01E38
E0FC38
E01E38
E00E38
E70638
670630
770670
338C60
39F8C0
1800C0
0C0180
ENDCHAR
STARTCHAR C024552
ENCODING 10602
SWIDTH 2400 0
DWIDTH 24 0
BBX 21 19 2 -2
BITMAP
0C0180
0C0180
1800C0
303860
307860
70F870
60F830
E1B838
E1B838
E33838
E73838
E63838
EFFE38
603830
703870
303860
3800C0
1800C0
0C0180
ENDCHAR
STARTCHAR C024553
ENCODING 10603
SWIDTH 2400 0
DWIDTH 24 0
BBX 21 19 2 -2
BITMAP
0C0180
0C0180
1800C0
33FE60
330060
730070
630030
E30038
E3F038
E39C38
E30C38
E00E38
E00E38
660E30
770C70
331860
39F0C0
1800C0
0C0180
ENDCHAR
STARTCHAR C024554
ENCODING 10604
SWIDTH 2400 0
DWIDTH 24 0
BBX 21 19 2 -2
BITMAP
0C0180
0C0180
1800C0
30F860
31CC60
738E70
630C30
E70038
E7F838
E79C38
E70E38
E70E38
E70E38
670E30
730E70
339C60
38F8C0
1800C0
0C0180
ENDCHAR
STARTCHAR C024555
ENCODING 10605
SWIDTH 2400 0
DWIDTH 24 0
BBX 21 19 2 -2
BITMAP
0C0180
0C0180
1800C0
300060
33FF60
700E70
600C30
E01838
E03838
E03038
E07038
E06038
E06038
60E030
70C070
30C060
38C0C0
1800C0
0C0180
ENDCHAR
STARTCHAR C024556
ENCODING 10606
SWIDTH 2400 0
DWIDTH 24 0
BBX 21 19 2 -2
BITMAP
0C0180
0C0180
1800C0
30F860
31DC60
738E70
638E30
E38E38
E1DC38
E1FC38
E19C38
E30E38
E70E38
670E30
770E70
339C60
39F0C0
1800C0
0C0180
ENDCHAR
STARTCHAR C024557
ENCODING 10607
SWIDTH 2400 0
DWIDTH 24 0
BBX 21 19 2 -2
BITMAP
0C0180
0C0180
1800C0
30F860
31CC60
738C70
638630
E38638
E38638
E38638
E1CE38
E0FE38
E00638
630630
738C70
319C60
38F8C0
1800C0
0C0180
ENDCHAR
STARTCHAR C024560
ENCODING 10608
SWIDTH 2400 0
DWIDTH 24 0
BBX 21 19 2 -2
BITMAP
0C0180
0C0180
180EC0
371F60
373F60
7F39F0
6739B0
E739B8
E739B8
E739B8
E739B8
E739B8
E739B8
6739B0
7739F0
373B60
3F1FC0
1F0EC0
0C0180
ENDCHAR
STARTCHAR C024561
ENCODING 10609
SWIDTH 2400 0
DWIDTH 24 0
BBX 21 19 2 -2
BITMAP
0C0180
0C0180
1800C0
370660
370660
7F1E70
670630
E70638
E70638
E70638
E70638
E70638
E70638
670630
770670
370660
3F06C0
1F06C0
0C0180
ENDCHAR
STARTCHAR C024562
ENCODING 10610
SWIDTH 2400 0
DWIDTH 24 0
BBX 21 19 2 -2
BITMAP
0C0180
0C0180
1800C0
371F60
3733E0
7F33F0
6733B0
E707B8
E70738
E70E38
E71C38
E71838
E73038
673030
776070
376060
3F60C0
1F7EC0
0C0180
ENDCHAR
STARTCHAR C024563
ENCODING 10611
SWIDTH 2400 0
DWIDTH 24 0
BBX 21 19 2 -2
BITMAP
0C0180
0C0180
183CC0
373E60
377760
7F6770
670730
E70738
E71E38
E73E38
E70738
E70338
E70338
677330
777370
377360
3F7EC0
1F1CC0
0C0180
ENDCHAR
STARTCHAR C024564
ENCODING 10612
SWIDTH 2400 0
DWIDTH 24 0
BBX 21 19 2 -2
BITMAP
0C0180
0C0180
1800C0
370F60
370F60
7F1F70
671F30
E71F38
E73738
E73738
E73738
E76738
E76738
67FFF0
770770
370760
3F07C0
1F07C0
0C0180
ENDCHAR
STARTCHAR C024565
ENCODING 10613
SWIDTH 2400 0
DWIDTH 24 0
BBX 21 19 2 -2
BITMAP
0C0180
0C0180
187FC0
377060
377060
7F7070
677030
E77038
E77F38
E771B8
E771B8
E761B8
E701B8
6701B0
7701F0
3771F0
3F33E0
1F3EC0
0C0180
ENDCHAR
STARTCHAR C024566
ENCODING 10614
SWIDTH 2400 0
DWIDTH 24 0
BBX 5 10 9 8
BITMAP
38
38
F8
38
38
38
38
38
38
38
ENDCHAR
STARTCHAR C024567
ENCODING 10615
SWIDTH 2400 0
DWIDTH 24 0
BBX 7 10 9 8
BITMAP
7C
EE
EE
0E
1E
3C
F8
E0
C0
FE
ENDCHAR
STARTCHAR C024570
ENCODING 10616
SWIDTH 2400 0
DWIDTH 24 0
BBX 8 10 8 8
BITMAP
7C
66
66
06
1C
0E
07
E7
E6
7E
ENDCHAR
STARTCHAR C024571
ENCODING 10617
SWIDTH 2400 0
DWIDTH 24 0
BBX 9 10 8 8
BITMAP
1E00
1E00
3E00
6E00
6E00
CE00
FF80
0E00
0E00
0E00
ENDCHAR
STARTCHAR C024572
ENCODING 10618
SWIDTH 2400 0
DWIDTH 24 0
BBX 7 8 9 10
BITMAP
18
FE
EE
EE
EE
EE
EE
EE
ENDCHAR
STARTCHAR C024573
ENCODING 10619
SWIDTH 2400 0
DWIDTH 24 0
BBX 5 10 9 -3
BITMAP
38
38
F8
38
38
38
38
38
38
38
ENDCHAR
STARTCHAR C024574
ENCODING 10620
SWIDTH 2400 0
DWIDTH 24 0
BBX 7 10 9 -2
BITMAP
78
FE
CE
CE
0E
38
70
C0
C0
FE
ENDCHAR
STARTCHAR C024575
ENCODING 10621
SWIDTH 2400 0
DWIDTH 24 0
BBX 8 10 8 -3
BITMAP
7E
E7
E3
07
1E
0F
03
E3
E3
7E
ENDCHAR
STARTCHAR C024576
ENCODING 10622
SWIDTH 2400 0
DWIDTH 24 0
BBX 9 10 8 -3
BITMAP
1E00
1E00
3E00
7E00
6E00
EE00
FF80
0E00
0E00
0E00
ENDCHAR
STARTCHAR C024577
ENCODING 10623
SWIDTH 2400 0
DWIDTH 24 0
BBX 0 0 0 0
BITMAP
ENDCHAR
STARTCHAR C025040
ENCODING 10784
SWIDTH 2400 0
DWIDTH 24 0
BBX 0 0 0 0
BITMAP
ENDCHAR
STARTCHAR C025041
ENCODING 10785
SWIDTH 2400 0
DWIDTH 24 0
BBX 12 13 6 -2
BITMAP
0C00
0C00
0DC0
7F00
0D80
0D80
1FE0
3F30
6F30
CE30
CC30
FC60
61C0
ENDCHAR
STARTCHAR C025042
ENCODING 10786
SWIDTH 2400 0
DWIDTH 24 0
BBX 17 19 4 -2
BITMAP
030000
030000
030000
037800
7FC000
060000
063000
063000
07FC00
0E7700
1E6300
36E180
66C180
C7C180
C78180
C70180
CF0300
7D8600
003C00
ENDCHAR
STARTCHAR C025043
ENCODING 10787
SWIDTH 2400 0
DWIDTH 24 0
BBX 13 10 6 -2
BITMAP
C000
C0C0
C060
C060
C030
C030
6018
6E00
6C00
3800
ENDCHAR
STARTCHAR C025044
ENCODING 10788
SWIDTH 2400 0
DWIDTH 24 0
BBX 17 14 4 1
BITMAP
E00000
E00000
E01C00
E00C00
E00600
E00600
E00300
600300
700180
700180
30C180
398000
1B8000
1F0000
ENDCHAR
STARTCHAR C025045
ENCODING 10789
SWIDTH 2400 0
DWIDTH 24 0
BBX 8 14 8 -2
BITMAP
30
1C
06
00
1E
77
C3
03
03
03
03
06
0E
1C
ENDCHAR
STARTCHAR C025046
ENCODING 10790
SWIDTH 2400 0
DWIDTH 24 0
BBX 11 20 6 -3
BITMAP
3800
1E00
0780
0000
0000
0000
1FC0
70E0
E060
0060
0060
0060
0060
0060
00C0
00C0
01C0
0380
0700
0600
ENDCHAR
STARTCHAR C025047
ENCODING 10791
SWIDTH 2400 0
DWIDTH 24 0
BBX 12 12 7 -2
BITMAP
0E00
0380
0000
1F00
7600
0E00
0C00
1E00
3600
3300
6300
C3F0
ENDCHAR
STARTCHAR C025050
ENCODING 10792
SWIDTH 2400 0
DWIDTH 24 0
BBX 16 18 5 -2
BITMAP
0F00
03E0
0060
0000
00C0
0FC0
7DC0
0180
0300
0700
0600
0F80
1DC0
38C0
30C0
60C0
C0EF
003E
ENDCHAR
STARTCHAR C025051
ENCODING 10793
SWIDTH 2400 0
DWIDTH 24 0
BBX 13 13 6 -2
BITMAP
1800
1800
18E0
1F30
7818
1800
1FC0
1C60
7830
7830
D860
7860
3BC0
ENDCHAR
STARTCHAR C025052
ENCODING 10794
SWIDTH 2400 0
DWIDTH 24 0
BBX 17 19 4 -2
BITMAP
0C0000
0C0000
0C0000
0C0E00
0FC700
FF0380
0C0180
0C0000
0C0000
0FFC00
0E0600
1C0300
3C0300
7C0300
EC0300
EC0700
7E1E00
3E7800
0C0000
ENDCHAR
STARTCHAR C025053
ENCODING 10795
SWIDTH 2400 0
DWIDTH 24 0
BBX 19 17 3 -1
BITMAP
070000
070000
060000
060600
06E700
3FF380
FE31C0
0C30C0
0C30E0
0C3060
183000
183000
306000
306000
606000
E0E000
C7C000
ENDCHAR
STARTCHAR C025054
ENCODING 10796
SWIDTH 2400 0
DWIDTH 24 0
BBX 19 18 3 -1
BITMAP
0000C0
070360
070180
0600C0
060600
07E300
7FF380
FE31C0
0C30C0
0C30E0
0C3060
183000
183000
306000
306000
606000
E0E000
C7C000
ENDCHAR
STARTCHAR C025055
ENCODING 10797
SWIDTH 2400 0
DWIDTH 24 0
BBX 13 19 6 -2
BITMAP
0C00
0C00
0EE0
0780
FE00
0338
03F0
0F80
F980
00C0
00E0
3FE0
E0F0
C030
C000
C000
E000
7FC0
0700
ENDCHAR
STARTCHAR C025056
ENCODING 10798
SWIDTH 2400 0
DWIDTH 24 0
BBX 16 19 6 -2
BITMAP
0C0E
0C1F
0EEC
078C
FE06
0338
03F0
0F80
F980
00C0
00E0
3FE0
E0F0
C030
C000
C000
E000
7FC0
0700
ENDCHAR
STARTCHAR C025057
ENCODING 10799
SWIDTH 2400 0
DWIDTH 24 0
BBX 8 20 8 -3
BITMAP
03
07
0E
0C
18
38
70
60
C0
C0
C0
60
70
38
18
1C
0E
06
07
03
ENDCHAR
STARTCHAR C025060
ENCODING 10800
SWIDTH 2400 0
DWIDTH 24 0
BBX 13 20 8 -3
BITMAP
0600
0600
0E00
1C60
1830
30D8
7060
6060
C000
C000
C000
E000
7000
3000
1800
1C00
0C00
0E00
0700
0300
ENDCHAR
STARTCHAR C025061
ENCODING 10801
SWIDTH 2400 0
DWIDTH 24 0
BBX 17 19 5 -2
BITMAP
003000
301800
301800
701800
601F80
67FE00
E01800
E01800
C01800
C01800
C01800
C01800
C01800
F03800
F03000
E03000
607000
60E000
00C000
ENDCHAR
STARTCHAR C025062
ENCODING 10802
SWIDTH 2400 0
DWIDTH 24 0
BBX 17 20 5 -2
BITMAP
000300
003180
601E00
601B00
601800
E01F80
C7FE00
C01800
C01800
C01800
C01800
C01800
C01800
C01800
F03800
F03000
E03000
606000
60E000
00C000
ENDCHAR
STARTCHAR C025063
ENCODING 10803
SWIDTH 2400 0
DWIDTH 24 0
BBX 14 15 5 0
BITMAP
7000
3FF0
0000
0000
0000
0000
0000
0000
0000
0000
0000
C000
E000
3FFC
07F0
ENDCHAR
STARTCHAR C025064
ENCODING 10804
SWIDTH 2400 0
DWIDTH 24 0
BBX 18 15 5 0
BITMAP
700000
3FF300
000180
000EC0
000700
000300
000000
000000
000000
000000
000000
C00000
F00000
3FFC00
07F000
ENDCHAR
STARTCHAR C025065
ENCODING 10805
SWIDTH 2400 0
DWIDTH 24 0
BBX 14 17 5 -1
BITMAP
0700
0300
039C
01F8
7FC0
00C0
00E0
0060
0070
3FF8
7078
601C
6000
E000
6000
7800
1FE0
ENDCHAR
STARTCHAR C025066
ENCODING 10806
SWIDTH 2400 0
DWIDTH 24 0
BBX 16 18 6 -1
BITMAP
0007
061F
0606
0778
0FE0
FF80
0180
00C0
00C0
0060
7FF0
E0F8
C038
C000
C000
C000
7000
1FC0
ENDCHAR
STARTCHAR C025067
ENCODING 10807
SWIDTH 2400 0
DWIDTH 24 0
BBX 14 17 6 -1
BITMAP
7000
7000
6000
6000
6000
6000
E000
E000
E000
E000
E000
E00C
E01C
E018
6038
70F0
3FC0
ENDCHAR
STARTCHAR C025070
ENCODING 10808
SWIDTH 2400 0
DWIDTH 24 0
BBX 14 17 6 -1
BITMAP
7000
7070
61B8
60C0
6060
6000
E000
E000
E000
E000
E000
E00C
E01C
E018
6038
70F0
3FC0
ENDCHAR
STARTCHAR C025071
ENCODING 10809
SWIDTH 2400 0
DWIDTH 24 0
BBX 19 20 3 -3
BITMAP
006000
006000
006000
00FFE0
FFF000
F06000
006000
03E000
066000
0C6000
0C7000
0C7000
0E6000
07E000
006000
00E000
00C000
01C000
038000
070000
ENDCHAR
STARTCHAR C025072
ENCODING 10810
SWIDTH 2400 0
DWIDTH 24 0
BBX 19 21 3 -3
BITMAP
0001C0
006700
006380
006000
00FFE0
FFF000
006000
006000
03E000
066000
0C6000
0C7000
0C7000
0E6000
07E000
006000
00E000
00C000
01C000
038000
070000
ENDCHAR
STARTCHAR C025073
ENCODING 10811
SWIDTH 2400 0
DWIDTH 24 0
BBX 19 17 3 -1
BITMAP
0E0C00
0E0C00
0E0C00
0E0C00
060C00
0FFFE0
FE0C00
060C00
060C00
0C0C00
0C1800
0C7800
0C0000
0C0000
0C0000
060000
03FE00
ENDCHAR
STARTCHAR C025074
ENCODING 10812
SWIDTH 2400 0
DWIDTH 24 0
BBX 20 18 3 -1
BITMAP
0000C0
0E0C60
0E0DB0
0E0CC0
0E0C00
0E0C00
1FFFE0
FE0C00
0E0C00
0E0C00
0C0C00
0C1800
0C7800
0C0000
0C0000
0C0000
0E0000
03FE00
ENDCHAR
STARTCHAR C025075
ENCODING 10813
SWIDTH 2400 0
DWIDTH 24 0
BBX 17 18 4 -2
BITMAP
181800
1C3000
0E3000
066000
00E000
00C000
01FF80
0FF800
FCE000
C1C000
018000
030000
030000
030000
030000
018000
01C000
007C00
ENDCHAR
STARTCHAR C025076
ENCODING 10814
SWIDTH 2400 0
DWIDTH 24 0
BBX 18 18 4 -2
BITMAP
181980
1C36C0
0E3300
066180
00E000
00C000
01FF80
0FF800
FCE000
C0C000
018000
030000
030000
030000
030000
018000
01C000
007C00
ENDCHAR
STARTCHAR C025077
ENCODING 10815
SWIDTH 2400 0
DWIDTH 24 0
BBX 17 17 4 -1
BITMAP
0C0000
0C0000
0C0000
0C0000
1F8000
FC0000
0CFF00
1C0000
180000
180000
180000
380000
300000
300000
718000
61F000
E03F80
ENDCHAR
STARTCHAR C025100
ENCODING 10816
SWIDTH 2400 0
DWIDTH 24 0
BBX 18 17 4 -1
BITMAP
0C0000
0C01C0
0C06C0
0C0300
1F8180
FC0000
0CFF00
1C0000
180000
180000
180000
380000
300000
300000
718000
61F000
E03F80
ENDCHAR
STARTCHAR C025101
ENCODING 10817
SWIDTH 2400 0
DWIDTH 24 0
BBX 16 17 4 -1
BITMAP
0E00
0E00
0E30
FFF0
7F00
0E00
0E00
0E00
1CFC
1F86
1E03
1C03
1803
0003
0006
000E
03F8
ENDCHAR
STARTCHAR C025102
ENCODING 10818
SWIDTH 2400 0
DWIDTH 24 0
BBX 18 17 4 -1
BITMAP
0C0300
0C0180
0C36C0
FFF300
7F0000
0C0000
0C0000
0C0000
18FC00
1F8600
1E0300
1C0300
180300
000300
000600
000E00
03F800
ENDCHAR
STARTCHAR C025103
ENCODING 10819
SWIDTH 2400 0
DWIDTH 24 0
BBX 12 10 6 -3
BITMAP
0FC0
7860
C030
0030
0030
0030
0060
00E0
0380
0600
ENDCHAR
STARTCHAR C025104
ENCODING 10820
SWIDTH 2400 0
DWIDTH 24 0
BBX 16 13 4 0
BITMAP
07FC
7C0E
E007
0003
0003
0003
0003
0003
0007
0006
001C
0078
03C0
ENDCHAR
STARTCHAR C025105
ENCODING 10821
SWIDTH 2400 0
DWIDTH 24 0
BBX 19 17 4 0
BITMAP
000180
0000C0
000360
000180
07F800
7E1E00
E00700
000300
000300
000300
000300
000300
000300
000600
000C00
007800
03E000
ENDCHAR
STARTCHAR C025106
ENCODING 10822
SWIDTH 2400 0
DWIDTH 24 0
BBX 17 16 4 -1
BITMAP
003F80
1FF000
FCE000
00C000
018000
018000
030000
030000
030000
030000
030000
030000
018000
018000
00E000
007E00
ENDCHAR
STARTCHAR C025107
ENCODING 10823
SWIDTH 2400 0
DWIDTH 24 0
BBX 18 16 4 -1
BITMAP
003F80
1FF000
FCE000
00C180
0186C0
018300
030180
030000
030000
030000
030000
030000
018000
018000
00E000
007E00
ENDCHAR
STARTCHAR C025110
ENCODING 10824
SWIDTH 2400 0
DWIDTH 24 0
BBX 12 17 6 -1
BITMAP
3000
3800
1800
1830
18F0
1FC0
0F00
1C00
3800
7000
E000
C000
C000
C000
E000
7030
3FF0
ENDCHAR
STARTCHAR C025111
ENCODING 10825
SWIDTH 2400 0
DWIDTH 24 0
BBX 16 17 6 -1
BITMAP
3006
381B
180C
1830
18E0
1FC0
0F00
1C00
3800
7000
E000
C000
C000
C000
E000
7030
3FF0
ENDCHAR
STARTCHAR C025112
ENCODING 10826
SWIDTH 2400 0
DWIDTH 24 0
BBX 17 19 4 -2
BITMAP
060000
0E0000
0E0000
0DCC00
FF8E00
0C0700
1C0380
183000
183000
303000
303000
603000
E03000
C03000
03F800
063E00
063700
063000
03E000
ENDCHAR
STARTCHAR C025113
ENCODING 10827
SWIDTH 2400 0
DWIDTH 24 0
BBX 16 16 5 -1
BITMAP
6000
67FE
6000
6000
E000
C000
C000
C000
C000
C000
C000
F600
E380
E1FF
6000
6000
ENDCHAR
STARTCHAR C025114
ENCODING 10828
SWIDTH 2400 0
DWIDTH 24 0
BBX 19 17 3 -1
BITMAP
00C000
00C000
00C000
30F800
33FE00
3EC300
1CC180
39C180
3D8180
6D8180
6F8180
670180
C73D80
CFF780
7C63C0
3876E0
003C00
ENDCHAR
STARTCHAR C025115
ENCODING 10829
SWIDTH 2400 0
DWIDTH 24 0
BBX 19 19 3 -2
BITMAP
0E0000
0E0000
0E0000
0C0000
0F0C00
3E7F00
FEC300
0F8180
0F0180
1E0180
1C0180
3C0180
3C0180
7C3F00
EC63C0
0C63E0
0C6660
0C3C00
0C0000
ENDCHAR
STARTCHAR C025116
ENCODING 10830
SWIDTH 2400 0
DWIDTH 24 0
BBX 18 15 3 -1
BITMAP
07FC00
0EE700
18E380
30C180
70C0C0
61C0C0
61C0C0
C180C0
C380C0
C301C0
670180
660380
3E0700
1C0E00
001800
ENDCHAR
STARTCHAR C025117
ENCODING 10831
SWIDTH 2400 0
DWIDTH 24 0
BBX 17 19 4 -2
BITMAP
003000
003800
603800
603800
603B80
67FF00
C01800
C01800
C01800
C01800
C01800
C01800
C07800
F3FE00
F31F00
F31B80
E33000
61E000
600000
ENDCHAR
STARTCHAR C025120
ENCODING 10832
SWIDTH 2400 0
DWIDTH 24 0
BBX 18 19 4 -2
BITMAP
001980
001EC0
301B80
301980
7019C0
73FF80
601C00
E01C00
E00C00
E00C00
E00C00
E01800
E07800
F9FE00
FB1F00
731B80
733800
71F000
300000
ENDCHAR
STARTCHAR C025121
ENCODING 10833
SWIDTH 2400 0
DWIDTH 24 0
BBX 18 20 4 -2
BITMAP
000380
001EC0
001EC0
301EC0
301B80
701B80
73FF00
601800
E01800
E01800
E01800
E01800
E01800
E0F800
FBFE00
FB1F00
731980
733000
71E000
300000
ENDCHAR
STARTCHAR C025122
ENCODING 10834
SWIDTH 2400 0
DWIDTH 24 0
BBX 18 17 3 -1
BITMAP
000C00
0F0C00
FE0E00
0C0E00
1C0F00
180F80
180DC0
300CC0
300C00
300C00
600C00
600C00
601800
301800
303000
1C6000
0FC000
ENDCHAR
STARTCHAR C025123
ENCODING 10835
SWIDTH 2400 0
DWIDTH 24 0
BBX 20 18 3 -1
BITMAP
0000C0
000C60
0F0DB0
FE0EC0
0C0EC0
1C0F00
180F80
180DC0
300CC0
300C00
300C00
600C00
600C00
601800
301800
303000
1C6000
0FC000
ENDCHAR
STARTCHAR C025124
ENCODING 10836
SWIDTH 2400 0
DWIDTH 24 0
BBX 20 18 3 -1
BITMAP
0000E0
000DB0
0F0DB0
FE0FB0
0C0EE0
1C0F00
180F80
180DC0
300CC0
300C00
300C00
600C00
600C00
601800
301800
303000
1C6000
0FC000
ENDCHAR
STARTCHAR C025125
ENCODING 10837
SWIDTH 2400 0
DWIDTH 24 0
BBX 18 17 3 -1
BITMAP
038000
01C000
007000
000000
000000
000000
038000
018000
018000
01C600
00C300
006180
C071C0
CC30C0
D83000
73F000
00C000
ENDCHAR
STARTCHAR C025126
ENCODING 10838
SWIDTH 2400 0
DWIDTH 24 0
BBX 18 17 3 -1
BITMAP
038000
01C000
007300
000180
0006C0
000300
038000
018000
018000
01C600
00C300
006180
C071C0
CC30C0
D83000
73F000
00C000
ENDCHAR
STARTCHAR C025127
ENCODING 10839
SWIDTH 2400 0
DWIDTH 24 0
BBX 18 17 3 -1
BITMAP
038000
01C000
007380
0006C0
0006C0
0006C0
038380
018000
018000
01C600
00C300
006180
C071C0
CC30C0
D83000
73F000
00C000
ENDCHAR
STARTCHAR C025130
ENCODING 10840
SWIDTH 2400 0
DWIDTH 24 0
BBX 19 8 3 3
BITMAP
078000
1CC000
386000
703800
E01C00
C00E00
000380
0001E0
ENDCHAR
STARTCHAR C025131
ENCODING 10841
SWIDTH 2400 0
DWIDTH 24 0
BBX 19 10 3 3
BITMAP
000300
000D80
078600
1CC300
386000
703800
E01C00
C00E00
000380
0001E0
ENDCHAR
STARTCHAR C025132
ENCODING 10842
SWIDTH 2400 0
DWIDTH 24 0
BBX 19 10 3 3
BITMAP
000F00
000D80
078D80
1CC700
386000
703800
E01C00
C00E00
000380
0001E0
ENDCHAR
STARTCHAR C025133
ENCODING 10843
SWIDTH 2400 0
DWIDTH 24 0
BBX 17 18 4 -2
BITMAP
000380
67FF00
603800
603800
603800
C03F00
C7FF00
C03800
C03800
C03800
C03800
C03800
F1F800
F31E00
E31F80
E31980
61F000
600000
ENDCHAR
STARTCHAR C025134
ENCODING 10844
SWIDTH 2400 0
DWIDTH 24 0
BBX 20 18 3 -2
BITMAP
000380
63FFC0
601860
6019B0
C018C0
C01980
C3FF00
C01800
C01C00
C01C00
C01C00
C01C00
F1FC00
E31F00
E31DC0
E31CC0
61F800
600000
ENDCHAR
STARTCHAR C025135
ENCODING 10845
SWIDTH 2400 0
DWIDTH 24 0
BBX 20 18 3 -2
BITMAP
600380
63FF00
6018E0
6019B0
C019B0
C018E0
C3FF80
C01800
C01C00
C01C00
C01C00
C01C00
F1FC00
E31F00
E31DC0
E31CC0
61F800
600000
ENDCHAR
STARTCHAR C025136
ENCODING 10846
SWIDTH 2400 0
DWIDTH 24 0
BBX 12 18 6 -1
BITMAP
0600
0600
0600
C6F0
FFC0
0600
0600
0660
7FC0
0600
0600
0600
0600
7F00
E7C0
C670
C600
7C00
ENDCHAR
STARTCHAR C025137
ENCODING 10847
SWIDTH 2400 0
DWIDTH 24 0
BBX 18 16 3 -1
BITMAP
07E000
0E6000
00E000
00C000
01C600
018600
038600
0FE600
3F3E00
760F00
660FC0
6C1CC0
DC1800
783000
307000
00E000
ENDCHAR
STARTCHAR C025140
ENCODING 10848
SWIDTH 2400 0
DWIDTH 24 0
BBX 17 18 4 -1
BITMAP
0C0000
0C0000
0C0000
CFC000
7F0600
0C0300
0C0180
3C0000
7C0000
CC0000
CC0000
CC0000
CC0600
DC0600
7C0600
1C0600
0E0C00
07F800
ENDCHAR
STARTCHAR C025141
ENCODING 10849
SWIDTH 2400 0
DWIDTH 24 0
BBX 18 17 3 -1
BITMAP
003000
007000
306000
306000
31F800
1FEE00
1EC300
3CC380
7CC1C0
7F81C0
E781C0
E701C0
E70180
EF8380
798700
700E00
003800
ENDCHAR
STARTCHAR C025142
ENCODING 10850
SWIDTH 2400 0
DWIDTH 24 0
BBX 14 18 5 -1
BITMAP
0600
0C00
0C00
0C00
7C00
3FC0
1C00
1800
1830
F830
7FD8
1818
181C
180C
1818
1818
0C30
07E0
ENDCHAR
STARTCHAR C025143
ENCODING 10851
SWIDTH 2400 0
DWIDTH 24 0
BBX 13 12 6 -2
BITMAP
0600
6300
60F0
37B8
3C18
7818
D830
1BE0
0C00
0C00
0600
0600
ENDCHAR
STARTCHAR C025144
ENCODING 10852
SWIDTH 2400 0
DWIDTH 24 0
BBX 18 18 3 -2
BITMAP
018000
00C000
306000
380F00
187F80
19C0C0
0F00C0
1C00C0
7E00C0
E60380
077F00
030000
038000
018000
018000
01C000
00C000
00C000
ENDCHAR
STARTCHAR C025145
ENCODING 10853
SWIDTH 2400 0
DWIDTH 24 0
BBX 12 13 6 -2
BITMAP
0300
0180
C180
C7E0
CDB0
D9B0
F1B0
E1B0
EF30
E770
63E0
6300
0600
ENDCHAR
STARTCHAR C025146
ENCODING 10854
SWIDTH 2400 0
DWIDTH 24 0
BBX 17 18 4 -1
BITMAP
00C000
00E000
606000
E06000
C0FC00
C3E700
CE6300
CC6300
D86380
F06380
F06300
E06300
E36700
E3C600
C1FC00
E0C000
618000
038000
ENDCHAR
STARTCHAR C025147
ENCODING 10855
SWIDTH 2400 0
DWIDTH 24 0
BBX 10 13 7 -2
BITMAP
0C00
0C00
0C00
0CC0
0F80
0C00
0C00
0C00
0C00
7C00
CF80
CDC0
F800
ENDCHAR
STARTCHAR C025150
ENCODING 10856
SWIDTH 2400 0
DWIDTH 24 0
BBX 13 18 5 -1
BITMAP
0300
0300
0300
0300
0338
03F0
0300
0300
0300
0300
0300
0300
3F00
63C0
C3F0
C338
E700
7C00
ENDCHAR
STARTCHAR C025151
ENCODING 10857
SWIDTH 2400 0
DWIDTH 24 0
BBX 13 18 6 -2
BITMAP
3C00
0E00
0600
E000
E000
E000
C000
C000
C7E0
DC70
F030
E038
C018
0038
0030
0070
01C0
1F00
ENDCHAR
STARTCHAR C025152
ENCODING 10858
SWIDTH 2400 0
DWIDTH 24 0
BBX 10 20 7 -3
BITMAP
6180
61C0
60C0
C0C0
C0C0
C0C0
C0C0
C0C0
F0C0
F0C0
E0C0
E0C0
E0C0
60C0
0180
0180
0380
0300
0600
0600
ENDCHAR
STARTCHAR C025153
ENCODING 10859
SWIDTH 2400 0
DWIDTH 24 0
BBX 14 18 5 -2
BITMAP
01C0
7FC0
0180
0380
0700
0E00
0C00
1FF0
3818
701C
E00C
C00C
0F0C
1B8C
19D8
18F8
0EF0
0380
ENDCHAR
STARTCHAR C025154
ENCODING 10860
SWIDTH 2400 0
DWIDTH 24 0
BBX 19 20 3 -3
BITMAP
0C0000
0C0000
0C0000
0C0000
0E1C00
0F7E00
7ECE00
EF8E00
0F0E00
0E0E00
1C0E00
1C0E00
3C0E00
7C0CE0
6C0CC0
CC0DC0
0C0F80
0C0600
0C0000
0C0000
ENDCHAR
STARTCHAR C025155
ENCODING 10861
SWIDTH 2400 0
DWIDTH 24 0
BBX 15 18 4 -2
BITMAP
03E0
3FC0
01C0
0380
0300
0600
0C00
1FF0
3E3C
381C
600E
C00E
000E
000E
001C
0038
00F0
03C0
ENDCHAR
STARTCHAR C025156
ENCODING 10862
SWIDTH 2400 0
DWIDTH 24 0
BBX 13 13 6 -3
BITMAP
1800
1800
1C00
3CE0
FFB0
1C18
3818
3818
7818
D818
1870
19C0
1800
ENDCHAR
STARTCHAR C025157
ENCODING 10863
SWIDTH 2400 0
DWIDTH 24 0
BBX 18 19 3 -2
BITMAP
060000
060000
060000
060000
070000
0F0000
7F7F00
07C380
0F01C0
0E00C0
1C00C0
3C00C0
3C00C0
7C01C0
EC0180
CC0700
0C0E00
0C3800
0C0000
ENDCHAR
STARTCHAR C025160
ENCODING 10864
SWIDTH 2400 0
DWIDTH 24 0
BBX 16 17 4 -1
BITMAP
01C0
1FC0
18C0
01C0
0180
0180
07F8
1F0E
3B06
7707
6603
C603
CCC3
CFF3
DF1E
FB9E
71FC
ENDCHAR
STARTCHAR C025161
ENCODING 10865
SWIDTH 2400 0
DWIDTH 24 0
BBX 17 18 4 -2
BITMAP
007000
0FF000
0C6000
00C000
01C000
03FC00
078E00
0E0600
1F8600
36C600
03DC00
03F800
0E0000
387C00
7CE700
678300
C38380
038180
ENDCHAR
STARTCHAR C025162
ENCODING 10866
SWIDTH 2400 0
DWIDTH 24 0
BBX 15 19 4 -2
BITMAP
0600
0600
0600
7FE0
7F00
0C00
1800
1F00
3DC6
70DC
60F8
C3C0
C7C0
0CC0
0CC0
18C0
0C00
0F78
03E0
ENDCHAR
STARTCHAR C025163
ENCODING 10867
SWIDTH 2400 0
DWIDTH 24 0
BBX 17 18 4 -2
BITMAP
018000
038000
030000
070000
060000
0E0000
0C0000
1C0000
180000
3FC000
3CC000
38C000
70E180
606380
E06300
E07600
C03C00
C00000
ENDCHAR
STARTCHAR C025164
ENCODING 10868
SWIDTH 2400 0
DWIDTH 24 0
BBX 0 0 0 0
BITMAP
ENDCHAR
STARTCHAR C025165
ENCODING 10869
SWIDTH 2400 0
DWIDTH 24 0
BBX 1 2 24 16
BITMAP
80
80
ENDCHAR
STARTCHAR C025166
ENCODING 10870
SWIDTH 2400 0
DWIDTH 24 0
BBX 0 0 0 0
BITMAP
ENDCHAR
STARTCHAR C025167
ENCODING 10871
SWIDTH 2400 0
DWIDTH 24 0
BBX 0 0 0 0
BITMAP
ENDCHAR
STARTCHAR C025170
ENCODING 10872
SWIDTH 2400 0
DWIDTH 24 0
BBX 0 0 0 0
BITMAP
ENDCHAR
STARTCHAR C025171
ENCODING 10873
SWIDTH 2400 0
DWIDTH 24 0
BBX 0 0 0 0
BITMAP
ENDCHAR
STARTCHAR C025172
ENCODING 10874
SWIDTH 2400 0
DWIDTH 24 0
BBX 0 0 0 0
BITMAP
ENDCHAR
STARTCHAR C025173
ENCODING 10875
SWIDTH 2400 0
DWIDTH 24 0
BBX 0 0 0 0
BITMAP
ENDCHAR
STARTCHAR C025174
ENCODING 10876
SWIDTH 2400 0
DWIDTH 24 0
BBX 0 0 0 0
BITMAP
ENDCHAR
STARTCHAR C025175
ENCODING 10877
SWIDTH 2400 0
DWIDTH 24 0
BBX 0 0 0 0
BITMAP
ENDCHAR
STARTCHAR C025176
ENCODING 10878
SWIDTH 2400 0
DWIDTH 24 0
BBX 0 0 0 0
BITMAP
ENDCHAR
STARTCHAR C025177
ENCODING 10879
SWIDTH 2400 0
DWIDTH 24 0
BBX 1 21 24 -4
BITMAP
80
00
00
00
00
00
00
80
00
00
00
00
80
00
00
00
00
00
00
00
80
ENDCHAR
STARTCHAR C025440
ENCODING 11040
SWIDTH 2400 0
DWIDTH 24 0
BBX 1 1 24 8
BITMAP
80
ENDCHAR
STARTCHAR C025441
ENCODING 11041
SWIDTH 2400 0
DWIDTH 24 0
BBX 12 11 6 -2
BITMAP
FFF0
0030
0660
06C0
0780
0600
0600
0C00
0C00
1800
3000
ENDCHAR
STARTCHAR C025442
ENCODING 11042
SWIDTH 2400 0
DWIDTH 24 0
BBX 16 15 4 -1
BITMAP
FFFF
0007
0306
030C
0318
0370
0300
0300
0300
0300
0600
0E00
0C00
3800
7000
ENDCHAR
STARTCHAR C025443
ENCODING 11043
SWIDTH 2400 0
DWIDTH 24 0
BBX 10 13 6 -2
BITMAP
00C0
00C0
0180
0300
0E00
1E00
7600
C600
0600
0600
0600
0600
0600
ENDCHAR
STARTCHAR C025444
ENCODING 11044
SWIDTH 2400 0
DWIDTH 24 0
BBX 15 17 4 -1
BITMAP
000E
001C
0038
0070
00E0
03C0
07C0
1DC0
F1C0
01C0
01C0
01C0
01C0
01C0
01C0
01C0
01C0
ENDCHAR
STARTCHAR C025445
ENCODING 11045
SWIDTH 2400 0
DWIDTH 24 0
BBX 10 12 7 -2
BITMAP
0C00
0C00
FFC0
C0C0
C0C0
C0C0
C0C0
0180
0180
0300
0600
0C00
ENDCHAR
STARTCHAR C025446
ENCODING 11046
SWIDTH 2400 0
DWIDTH 24 0
BBX 15 17 5 -1
BITMAP
0380
0380
0380
FFFE
E00E
E00E
E00E
E00E
E00C
E01C
0018
0038
0030
0060
00C0
0180
0700
ENDCHAR
STARTCHAR C025447
ENCODING 11047
SWIDTH 2400 0
DWIDTH 24 0
BBX 12 8 6 -2
BITMAP
7FE0
0600
0600
0600
0600
0600
0600
FFF0
ENDCHAR
STARTCHAR C025450
ENCODING 11048
SWIDTH 2400 0
DWIDTH 24 0
BBX 18 11 4 2
BITMAP
7FFF00
01C000
01C000
01C000
01C000
01C000
01C000
01C000
01C000
01C000
FFFFC0
ENDCHAR
STARTCHAR C025451
ENCODING 11049
SWIDTH 2400 0
DWIDTH 24 0
BBX 12 12 7 -2
BITMAP
0300
0300
0300
FFF0
0700
0700
0F00
1B00
3300
E300
0300
1F00
ENDCHAR
STARTCHAR C025452
ENCODING 11050
SWIDTH 2400 0
DWIDTH 24 0
BBX 16 17 4 -1
BITMAP
0060
0060
0060
0060
FFFF
00E0
01E0
01E0
0360
0760
0E60
1C60
3860
F060
C060
0060
07C0
ENDCHAR
STARTCHAR C025453
ENCODING 11051
SWIDTH 2400 0
DWIDTH 24 0
BBX 14 17 5 -1
BITMAP
0300
0300
0300
0300
0300
FFFC
030C
030C
030C
060C
060C
0E0C
0C0C
1C18
3818
F038
C1F0
ENDCHAR
STARTCHAR C025454
ENCODING 11052
SWIDTH 2400 0
DWIDTH 24 0
BBX 18 18 5 -1
BITMAP
000300
030180
0306C0
030300
030000
030000
FFFC00
030C00
030C00
030C00
060C00
060C00
0E0C00
0C0C00
1C1800
381800
F03800
C1F000
ENDCHAR
STARTCHAR C025455
ENCODING 11053
SWIDTH 2400 0
DWIDTH 24 0
BBX 16 19 4 -2
BITMAP
0300
0300
0300
0300
03BE
3FF0
7180
0180
0180
018F
07FE
FFC0
01C0
00C0
00C0
00C0
00C0
00C0
00E0
ENDCHAR
STARTCHAR C025456
ENCODING 11054
SWIDTH 2400 0
DWIDTH 24 0
BBX 18 20 4 -2
BITMAP
000180
0300C0
030300
030180
030000
03BE00
3FF000
718000
018000
018000
018F00
07FE00
FFC000
01C000
00C000
00C000
00C000
00C000
00C000
00E000
ENDCHAR
STARTCHAR C025457
ENCODING 11055
SWIDTH 2400 0
DWIDTH 24 0
BBX 14 19 4 -3
BITMAP
0180
0180
0300
0700
07FC
0C18
1C18
3838
7030
C070
0060
00C0
01C0
0380
0700
0E00
3800
F000
C000
ENDCHAR
STARTCHAR C025460
ENCODING 11056
SWIDTH 2400 0
DWIDTH 24 0
BBX 18 19 5 -2
BITMAP
018300
038180
0306C0
070300
0FF800
0C1800
1C1800
383800
E03000
C07000
006000
00C000
018000
038000
070000
0C0000
380000
F00000
C00000
ENDCHAR
STARTCHAR C025461
ENCODING 11057
SWIDTH 2400 0
DWIDTH 24 0
BBX 18 18 3 -2
BITMAP
030000
030000
030000
070000
060000
0FFFC0
0C3800
183000
303000
603000
C07000
006000
006000
00C000
01C000
038000
070000
060000
ENDCHAR
STARTCHAR C025462
ENCODING 11058
SWIDTH 2400 0
DWIDTH 24 0
BBX 20 19 3 -2
BITMAP
0000C0
030060
0301B0
0300C0
070000
060000
0FFFC0
0C3800
183000
303000
603000
C07000
006000
006000
00C000
01C000
038000
070000
060000
ENDCHAR
STARTCHAR C025463
ENCODING 11059
SWIDTH 2400 0
DWIDTH 24 0
BBX 13 13 5 0
BITMAP
FFF8
0038
0038
0038
0038
0038
0038
0038
0038
0038
FFF8
0038
0038
ENDCHAR
STARTCHAR C025464
ENCODING 11060
SWIDTH 2400 0
DWIDTH 24 0
BBX 18 18 5 0
BITMAP
000300
000180
0006C0
000300
000000
FFF800
001800
001800
001800
001800
001800
001800
001800
001800
001800
FFF800
001800
001800
ENDCHAR
STARTCHAR C025465
ENCODING 11061
SWIDTH 2400 0
DWIDTH 24 0
BBX 19 18 3 -2
BITMAP
0E1C00
0E1C00
0E1C00
0E1C00
0E1C00
FFFFE0
0E0C00
0E0C00
0E0C00
0E0C00
0E1800
0E1800
001800
003800
007000
006000
01C000
018000
ENDCHAR
STARTCHAR C025466
ENCODING 11062
SWIDTH 2400 0
DWIDTH 24 0
BBX 19 19 3 -2
BITMAP
0000C0
0E1F60
0E1D80
0E1CC0
0E0C00
0E0C00
FFFFE0
0E0C00
0E0C00
0E0C00
0E0C00
0E1800
0E1800
001800
003800
007000
006000
01C000
018000
ENDCHAR
STARTCHAR C025467
ENCODING 11063
SWIDTH 2400 0
DWIDTH 24 0
BBX 17 15 4 0
BITMAP
1C0000
0E0000
030000
000000
E00000
700180
1C0300
0C0700
000E00
001C00
003000
00E000
03C000
0F0000
3C0000
ENDCHAR
STARTCHAR C025470
ENCODING 11064
SWIDTH 2400 0
DWIDTH 24 0
BBX 17 15 4 0
BITMAP
1C0700
0E1800
030C00
000000
E00000
700180
1C0300
0C0700
000E00
001C00
003000
00E000
03C000
0F0000
3C0000
ENDCHAR
STARTCHAR C025471
ENCODING 11065
SWIDTH 2400 0
DWIDTH 24 0
BBX 16 14 4 0
BITMAP
7FF8
0018
0018
0030
0030
0060
00E0
01F0
01B8
071C
0E0E
1C06
7003
E000
ENDCHAR
STARTCHAR C025472
ENCODING 11066
SWIDTH 2400 0
DWIDTH 24 0
BBX 19 18 4 0
BITMAP
000180
0000C0
000360
000180
7FF800
001800
001800
003000
003000
006000
00E000
00F000
01B800
031C00
0E0E00
1C0600
700300
C00000
ENDCHAR
STARTCHAR C025473
ENCODING 11067
SWIDTH 2400 0
DWIDTH 24 0
BBX 16 16 3 0
BITMAP
0E00
0E00
0E00
0E00
0E3F
0FF7
FF06
CE06
0E0C
0E1C
0E38
0E00
0E00
0E00
0703
03FF
ENDCHAR
STARTCHAR C025474
ENCODING 11068
SWIDTH 2400 0
DWIDTH 24 0
BBX 19 17 3 0
BITMAP
0000C0
0E0360
0E0180
0E00C0
0E0000
0E3F00
0FF700
FF0600
CE0600
0E0C00
0E1C00
0E3800
0E0000
0E0000
0E0000
070300
03FF00
ENDCHAR
STARTCHAR C025475
ENCODING 11069
SWIDTH 2400 0
DWIDTH 24 0
BBX 14 16 5 -1
BITMAP
C00C
E00C
600C
7018
3018
3818
0030
0030
0070
0060
00C0
01C0
0380
0700
0E00
1C00
ENDCHAR
STARTCHAR C025476
ENCODING 11070
SWIDTH 2400 0
DWIDTH 24 0
BBX 18 19 5 -1
BITMAP
000180
0006C0
000300
C00C00
C00C00
601C00
701800
301800
381800
003000
003000
006000
006000
00C000
01C000
038000
070000
0E0000
1C0000
ENDCHAR
STARTCHAR C025477
ENCODING 11071
SWIDTH 2400 0
DWIDTH 24 0
BBX 14 18 5 -2
BITMAP
0300
0300
0700
0FFC
0C18
1818
3038
E630
C370
01E0
00E0
01C0
0180
0300
0600
1C00
3800
E000
ENDCHAR
STARTCHAR C025500
ENCODING 11072
SWIDTH 2400 0
DWIDTH 24 0
BBX 17 18 5 -2
BITMAP
030780
030300
070000
0FFC00
0C1800
181800
303800
E63000
C37000
01E000
00E000
01C000
018000
030000
060000
1C0000
380000
E00000
ENDCHAR
STARTCHAR C025501
ENCODING 11073
SWIDTH 2400 0
DWIDTH 24 0
BBX 17 18 4 -2
BITMAP
001800
00F800
3FC000
00C000
00C000
00C000
00C000
FFFF80
00C000
00C000
018000
018000
018000
030000
030000
060000
1C0000
380000
ENDCHAR
STARTCHAR C025502
ENCODING 11074
SWIDTH 2400 0
DWIDTH 24 0
BBX 19 18 4 -2
BITMAP
001980
00F8C0
3FC360
00C180
00C000
00C000
00C000
FFFF80
00C000
00C000
018000
018000
018000
030000
030000
060000
1C0000
380000
ENDCHAR
STARTCHAR C025503
ENCODING 11075
SWIDTH 2400 0
DWIDTH 24 0
BBX 11 11 7 -2
BITMAP
0C60
CC60
CC60
60C0
00C0
0180
0180
0300
0600
0C00
1800
ENDCHAR
STARTCHAR C025504
ENCODING 11076
SWIDTH 2400 0
DWIDTH 24 0
BBX 16 17 4 -2
BITMAP
0303
E303
6187
7186
3186
3006
000C
000C
0018
0018
0030
0070
00E0
01C0
0380
0F00
0C00
ENDCHAR
STARTCHAR C025505
ENCODING 11077
SWIDTH 2400 0
DWIDTH 24 0
BBX 19 20 4 -2
BITMAP
0000C0
0003C0
0001E0
030000
C30000
638700
718600
318600
300600
000C00
000C00
001C00
001800
003000
007000
00E000
01C000
038000
0F0000
0C0000
ENDCHAR
STARTCHAR C025506
ENCODING 11078
SWIDTH 2400 0
DWIDTH 24 0
BBX 18 17 3 -2
BITMAP
1FFE00
000000
000000
000000
000000
FFFFC0
00E000
00E000
00E000
00C000
01C000
01C000
018000
030000
060000
1C0000
180000
ENDCHAR
STARTCHAR C025507
ENCODING 11079
SWIDTH 2400 0
DWIDTH 24 0
BBX 20 17 3 -2
BITMAP
1FFE60
0001B0
0000C0
000000
000000
FFFFC0
00E000
00E000
00E000
00C000
01C000
01C000
018000
030000
060000
1C0000
180000
ENDCHAR
STARTCHAR C025510
ENCODING 11080
SWIDTH 2400 0
DWIDTH 24 0
BBX 8 17 9 -2
BITMAP
E0
E0
E0
E0
E0
F8
FC
EE
E7
E3
E0
E0
E0
E0
E0
E0
E0
ENDCHAR
STARTCHAR C025511
ENCODING 11081
SWIDTH 2400 0
DWIDTH 24 0
BBX 11 18 9 -2
BITMAP
00C0
E060
E300
E180
E000
E000
F800
FC00
EE00
E700
E300
E000
E000
E000
E000
E000
E000
E000
ENDCHAR
STARTCHAR C025512
ENCODING 11082
SWIDTH 2400 0
DWIDTH 24 0
BBX 18 19 4 -2
BITMAP
00C000
00E000
00E000
00E000
00E000
00C000
FFFFC0
00C000
00C000
00C000
00C000
018000
018000
018000
030000
070000
0E0000
1C0000
180000
ENDCHAR
STARTCHAR C025513
ENCODING 11083
SWIDTH 2400 0
DWIDTH 24 0
BBX 16 12 4 1
BITMAP
3FFC
0000
0000
0000
0000
0000
0000
0000
0000
0000
0000
FFFF
ENDCHAR
STARTCHAR C025514
ENCODING 11084
SWIDTH 2400 0
DWIDTH 24 0
BBX 14 16 5 -1
BITMAP
7FF8
0038
0030
0030
1830
0E60
07E0
01C0
01E0
01F8
031C
0600
0C00
3800
F000
C000
ENDCHAR
STARTCHAR C025515
ENCODING 11085
SWIDTH 2400 0
DWIDTH 24 0
BBX 16 18 4 -2
BITMAP
01C0
01C0
01C0
7FFC
003C
0038
0078
00F0
01E0
07DC
1FCE
79C7
E1C3
01C0
01C0
01C0
01C0
01C0
ENDCHAR
STARTCHAR C025516
ENCODING 11086
SWIDTH 2400 0
DWIDTH 24 0
BBX 13 17 5 -1
BITMAP
0018
0018
0038
0030
0070
0060
0060
00C0
00C0
0180
0380
0700
0600
0C00
3800
7000
E000
ENDCHAR
STARTCHAR C025517
ENCODING 11087
SWIDTH 2400 0
DWIDTH 24 0
BBX 18 12 3 1
BITMAP
061C00
060C00
060E00
060600
0C0700
0C0300
1C0380
180180
380180
7000C0
E000C0
C00000
ENDCHAR
STARTCHAR C025520
ENCODING 11088
SWIDTH 2400 0
DWIDTH 24 0
BBX 19 15 3 1
BITMAP
0000C0
000060
000180
061CC0
060C00
060E00
060600
0C0700
0C0300
1C0380
180180
380180
7000C0
E000C0
C00000
ENDCHAR
STARTCHAR C025521
ENCODING 11089
SWIDTH 2400 0
DWIDTH 24 0
BBX 19 15 3 1
BITMAP
0001C0
000360
000360
061DC0
060C00
060E00
060600
0C0700
0C0300
1C0380
180180
380180
7001C0
E000C0
C00000
ENDCHAR
STARTCHAR C025522
ENCODING 11090
SWIDTH 2400 0
DWIDTH 24 0
BBX 12 16 7 0
BITMAP
C000
C000
C000
C000
C0E0
C380
FE00
F800
C000
C000
C000
C000
C000
C000
E000
7FF0
ENDCHAR
STARTCHAR C025523
ENCODING 11091
SWIDTH 2400 0
DWIDTH 24 0
BBX 15 18 7 0
BITMAP
000C
0006
0018
C00C
C000
C000
C0E0
C3C0
CF00
FC00
C000
C000
C000
C000
C000
C000
E000
7FF0
ENDCHAR
STARTCHAR C025524
ENCODING 11092
SWIDTH 2400 0
DWIDTH 24 0
BBX 15 18 7 0
BITMAP
001E
001E
0036
C01E
C00C
C000
C0E0
C3C0
CF00
FC00
C000
C000
C000
C000
C000
C000
E000
7FF0
ENDCHAR
STARTCHAR C025525
ENCODING 11093
SWIDTH 2400 0
DWIDTH 24 0
BBX 15 16 4 -2
BITMAP
FFFE
0006
0006
000E
000C
000C
001C
0018
0030
0070
00E0
01C0
0380
0700
1E00
1800
ENDCHAR
STARTCHAR C025526
ENCODING 11094
SWIDTH 2400 0
DWIDTH 24 0
BBX 19 20 4 -2
BITMAP
0000C0
000360
000180
000000
FFFE00
000600
000600
000E00
000C00
000C00
001C00
001800
003000
007000
00E000
01C000
038000
070000
1E0000
180000
ENDCHAR
STARTCHAR C025527
ENCODING 11095
SWIDTH 2400 0
DWIDTH 24 0
BBX 19 20 4 -2
BITMAP
0001C0
000360
000360
0001C0
FFFE00
000600
000600
000E00
000C00
000C00
001800
001800
003000
007000
00E000
01C000
038000
070000
1E0000
180000
ENDCHAR
STARTCHAR C025530
ENCODING 11096
SWIDTH 2400 0
DWIDTH 24 0
BBX 19 9 3 3
BITMAP
030000
078000
1CC000
386000
703000
E01C00
C00E00
000380
0001E0
ENDCHAR
STARTCHAR C025531
ENCODING 11097
SWIDTH 2400 0
DWIDTH 24 0
BBX 19 12 3 3
BITMAP
000600
001B00
000C00
000600
078000
1CC000
386000
703000
E01C00
C00E00
000380
0001E0
ENDCHAR
STARTCHAR C025532
ENCODING 11098
SWIDTH 2400 0
DWIDTH 24 0
BBX 19 12 3 3
BITMAP
000E00
001B00
001B00
000E00
078000
0CC000
386000
703000
E01C00
C00E00
000380
0001E0
ENDCHAR
STARTCHAR C025533
ENCODING 11099
SWIDTH 2400 0
DWIDTH 24 0
BBX 18 17 3 -1
BITMAP
00C000
00C000
00C000
00C000
7FFF80
00C000
00C000
00C000
0CC600
1CC700
18C300
18C180
30C1C0
60C0C0
C0C0C0
00C000
0FC000
ENDCHAR
STARTCHAR C025534
ENCODING 11100
SWIDTH 2400 0
DWIDTH 24 0
BBX 18 18 3 -1
BITMAP
000180
00C780
00C3C0
00C000
00C000
7FFF80
00C000
00C000
00C000
0CC600
1CC700
18C300
18C180
30C1C0
60C0C0
C0C0C0
00C000
0FC000
ENDCHAR
STARTCHAR C025535
ENCODING 11101
SWIDTH 2400 0
DWIDTH 24 0
BBX 18 18 3 -1
BITMAP
000380
00C6C0
00C6C0
00C380
00C000
7FFF80
00C000
00C000
00C000
0CC600
1CC700
18C300
18C180
30C1C0
60C0C0
C0C0C0
00C000
0FC000
ENDCHAR
STARTCHAR C025536
ENCODING 11102
SWIDTH 2400 0
DWIDTH 24 0
BBX 16 12 4 1
BITMAP
FFFF
0006
000E
000C
001C
0C38
0670
03E0
0180
00C0
00E0
0060
ENDCHAR
STARTCHAR C025537
ENCODING 11103
SWIDTH 2400 0
DWIDTH 24 0
BBX 11 15 7 0
BITMAP
3800
1F00
03C0
0000
0000
F800
1E00
0780
0180
0000
0000
7800
1F00
03C0
00E0
ENDCHAR
STARTCHAR C025540
ENCODING 11104
SWIDTH 2400 0
DWIDTH 24 0
BBX 16 16 4 0
BITMAP
0180
0180
0180
0180
0380
0300
0300
0700
0600
0618
0C0C
0C0C
1806
3FFF
FC03
0003
ENDCHAR
STARTCHAR C025541
ENCODING 11105
SWIDTH 2400 0
DWIDTH 24 0
BBX 14 16 4 -1
BITMAP
001C
0018
0018
0038
0C30
0770
03E0
01C0
01E0
03B0
0338
0618
1C00
3800
F000
C000
ENDCHAR
STARTCHAR C025542
ENCODING 11106
SWIDTH 2400 0
DWIDTH 24 0
BBX 17 15 4 -1
BITMAP
7FFE00
038000
038000
038000
038000
038000
FFFF80
038000
038000
038000
038000
038000
038000
038000
01FF80
ENDCHAR
STARTCHAR C025543
ENCODING 11107
SWIDTH 2400 0
DWIDTH 24 0
BBX 13 12 5 -2
BITMAP
0C00
0C00
06F8
0F98
FE30
0660
0660
0600
0300
0300
0300
0300
ENDCHAR
STARTCHAR C025544
ENCODING 11108
SWIDTH 2400 0
DWIDTH 24 0
BBX 16 18 4 -2
BITMAP
0C00
0E00
0600
0600
063F
0FE3
FF06
0706
070C
0318
0338
0300
0300
0380
0380
0180
0180
0180
ENDCHAR
STARTCHAR C025545
ENCODING 11109
SWIDTH 2400 0
DWIDTH 24 0
BBX 13 9 6 -2
BITMAP
3FC0
01C0
01C0
01C0
01C0
01C0
01C0
0180
FFF8
ENDCHAR
STARTCHAR C025546
ENCODING 11110
SWIDTH 2400 0
DWIDTH 24 0
BBX 18 12 3 1
BITMAP
3FF800
001800
001800
001800
003800
003800
003800
003800
003000
003000
003000
FFFFC0
ENDCHAR
STARTCHAR C025547
ENCODING 11111
SWIDTH 2400 0
DWIDTH 24 0
BBX 10 11 7 -3
BITMAP
FFC0
00C0
00C0
00C0
7FC0
00C0
00C0
00C0
FFC0
00C0
00C0
ENDCHAR
STARTCHAR C025550
ENCODING 11112
SWIDTH 2400 0
DWIDTH 24 0
BBX 13 15 5 -1
BITMAP
FFF8
0038
0038
0038
0038
0038
FFF8
0038
0038
0038
0038
0038
FFF8
0038
0038
ENDCHAR
STARTCHAR C025551
ENCODING 11113
SWIDTH 2400 0
DWIDTH 24 0
BBX 14 17 5 -2
BITMAP
7FF8
0000
0000
0000
0000
FFFC
001C
0018
0018
0030
0030
0060
00C0
01C0
0700
1E00
1800
ENDCHAR
STARTCHAR C025552
ENCODING 11114
SWIDTH 2400 0
DWIDTH 24 0
BBX 10 18 7 -2
BITMAP
00C0
E0C0
E0C0
E0C0
E0C0
E0C0
E0C0
E0C0
E0C0
E0C0
E1C0
0180
0180
0380
0300
0600
0E00
1C00
ENDCHAR
STARTCHAR C025553
ENCODING 11115
SWIDTH 2400 0
DWIDTH 24 0
BBX 18 15 4 0
BITMAP
1DC000
1DC000
1DC000
1DC000
1DC000
1DC000
1DC0C0
1DC1C0
19C380
19C300
39C600
31CC00
71F800
61F000
C1C000
ENDCHAR
STARTCHAR C025554
ENCODING 11116
SWIDTH 2400 0
DWIDTH 24 0
BBX 14 15 6 0
BITMAP
C000
C000
C000
C000
C000
C000
C00C
C01C
C038
C070
C1C0
C380
CF00
FC00
F000
ENDCHAR
STARTCHAR C025555
ENCODING 11117
SWIDTH 2400 0
DWIDTH 24 0
BBX 13 14 6 -1
BITMAP
FFF8
E038
E038
E038
E038
E038
E038
E038
E038
E038
E038
FFF8
E038
E000
ENDCHAR
STARTCHAR C025556
ENCODING 11118
SWIDTH 2400 0
DWIDTH 24 0
BBX 10 11 7 -2
BITMAP
FFC0
C0C0
C0C0
C0C0
C0C0
C180
0180
0300
0300
0600
0C00
ENDCHAR
STARTCHAR C025557
ENCODING 11119
SWIDTH 2400 0
DWIDTH 24 0
BBX 14 16 5 -2
BITMAP
FFFC
E00C
E00C
E00C
E00C
E00C
E018
0018
0018
0030
0030
0060
00E0
01C0
0380
0700
ENDCHAR
STARTCHAR C025560
ENCODING 11120
SWIDTH 2400 0
DWIDTH 24 0
BBX 19 18 3 -2
BITMAP
001800
001800
001800
001800
7FFF80
0E1800
0E1800
0E1800
0E1800
0E1800
0E1800
FFFFE0
001800
001800
001800
001800
001800
001800
ENDCHAR
STARTCHAR C025561
ENCODING 11121
SWIDTH 2400 0
DWIDTH 24 0
BBX 18 13 3 1
BITMAP
3FFF00
000700
000600
000C00
01DC00
01C000
01C000
01C000
01C000
01C000
01C000
01C000
FFFFC0
ENDCHAR
STARTCHAR C025562
ENCODING 11122
SWIDTH 2400 0
DWIDTH 24 0
BBX 13 16 5 -1
BITMAP
FFF8
0018
0018
0018
0018
0018
FFF0
0030
0070
0060
00C0
01C0
0380
0700
1E00
7800
ENDCHAR
STARTCHAR C025563
ENCODING 11123
SWIDTH 2400 0
DWIDTH 24 0
BBX 16 15 5 0
BITMAP
C000
7000
3800
1800
0003
0006
000E
001C
0038
0070
01C0
0380
0E00
3800
E000
ENDCHAR
STARTCHAR C025564
ENCODING 11124
SWIDTH 2400 0
DWIDTH 24 0
BBX 17 19 5 -1
BITMAP
000300
000180
038600
038300
038000
FFFE00
E00E00
E00E00
E00E00
E00C00
E01C00
001C00
001800
003000
007000
00E000
01C000
038000
0F0000
ENDCHAR
STARTCHAR C025565
ENCODING 11125
SWIDTH 2400 0
DWIDTH 24 0
BBX 10 11 7 -2
BITMAP
0C00
0C00
0C00
FFC0
0CC0
0CC0
0CC0
18C0
18C0
3180
6700
ENDCHAR
STARTCHAR C025566
ENCODING 11126
SWIDTH 2400 0
DWIDTH 24 0
BBX 13 12 6 -2
BITMAP
0C00
1800
1800
1FF8
3180
6180
C180
0300
0300
0300
0600
0C00
ENDCHAR
STARTCHAR C025567
ENCODING 11127
SWIDTH 2400 0
DWIDTH 24 0
BBX 0 0 0 0
BITMAP
ENDCHAR
STARTCHAR C025570
ENCODING 11128
SWIDTH 2400 0
DWIDTH 24 0
BBX 0 0 0 0
BITMAP
ENDCHAR
STARTCHAR C025571
ENCODING 11129
SWIDTH 2400 0
DWIDTH 24 0
BBX 1 21 24 -4
BITMAP
80
00
00
00
00
00
00
80
00
00
00
00
80
00
00
00
00
00
00
00
80
ENDCHAR
STARTCHAR C025572
ENCODING 11130
SWIDTH 2400 0
DWIDTH 24 0
BBX 0 0 0 0
BITMAP
ENDCHAR
STARTCHAR C025573
ENCODING 11131
SWIDTH 2400 0
DWIDTH 24 0
BBX 0 0 0 0
BITMAP
ENDCHAR
STARTCHAR C025574
ENCODING 11132
SWIDTH 2400 0
DWIDTH 24 0
BBX 0 0 0 0
BITMAP
ENDCHAR
STARTCHAR C025575
ENCODING 11133
SWIDTH 2400 0
DWIDTH 24 0
BBX 0 0 0 0
BITMAP
ENDCHAR
STARTCHAR C025576
ENCODING 11134
SWIDTH 2400 0
DWIDTH 24 0
BBX 1 2 24 16
BITMAP
80
80
ENDCHAR
STARTCHAR C025577
ENCODING 11135
SWIDTH 2400 0
DWIDTH 24 0
BBX 0 0 0 0
BITMAP
ENDCHAR
STARTCHAR C026040
ENCODING 11296
SWIDTH 2400 0
DWIDTH 24 0
BBX 1 2 24 0
BITMAP
80
80
ENDCHAR
STARTCHAR C026041
ENCODING 11297
SWIDTH 2400 0
DWIDTH 24 0
BBX 14 17 5 0
BITMAP
0380
0780
0780
0CC0
0CC0
0CC0
1C60
1860
1860
3FF0
3030
3030
7018
6018
6018
E00C
C00C
ENDCHAR
STARTCHAR C026042
ENCODING 11298
SWIDTH 2400 0
DWIDTH 24 0
BBX 11 17 7 0
BITMAP
FFC0
FFC0
C000
C000
C000
C000
E000
FF80
C0C0
C060
C060
C060
C060
C060
C0C0
C1C0
FF00
ENDCHAR
STARTCHAR C026043
ENCODING 11299
SWIDTH 2400 0
DWIDTH 24 0
BBX 13 17 6 0
BITMAP
FFC0
E1E0
C030
C030
C030
C030
C060
C0E0
FFC0
C070
C018
C018
C018
C018
C038
C070
FFE0
ENDCHAR
STARTCHAR C026044
ENCODING 11300
SWIDTH 2400 0
DWIDTH 24 0
BBX 10 17 8 0
BITMAP
FFC0
C000
C000
C000
C000
C000
C000
C000
C000
C000
C000
C000
C000
C000
C000
C000
C000
ENDCHAR
STARTCHAR C026045
ENCODING 11301
SWIDTH 2400 0
DWIDTH 24 0
BBX 15 17 5 0
BITMAP
3FF8
3018
3018
3018
3018
3018
3018
3018
3018
3018
3018
FFFE
FFFE
C006
C006
C006
C006
ENDCHAR
STARTCHAR C026046
ENCODING 11302
SWIDTH 2400 0
DWIDTH 24 0
BBX 12 16 7 0
BITMAP
FFE0
C000
C000
C000
C000
C000
C000
FFE0
E000
C000
C000
C000
C000
C000
C000
FFF0
ENDCHAR
STARTCHAR C026047
ENCODING 11303
SWIDTH 2400 0
DWIDTH 24 0
BBX 12 18 7 0
BITMAP
7180
0180
0000
0000
FFE0
C000
C000
C000
C000
C000
FFE0
C000
C000
C000
C000
C000
C000
FFF0
ENDCHAR
STARTCHAR C026050
ENCODING 11304
SWIDTH 2400 0
DWIDTH 24 0
BBX 17 17 4 0
BITMAP
E18380
718700
398E00
398E00
398E00
398E00
399C00
1D9C00
1FFC00
318600
618300
618300
618300
618300
E18300
E18380
E18380
ENDCHAR
STARTCHAR C026051
ENCODING 11305
SWIDTH 2400 0
DWIDTH 24 0
BBX 12 17 6 0
BITMAP
0F80
39E0
6070
C030
C030
C030
0060
03C0
0FC0
0060
0030
0030
C030
C030
E030
7060
3FC0
ENDCHAR
STARTCHAR C026052
ENCODING 11306
SWIDTH 2400 0
DWIDTH 24 0
BBX 12 17 6 0
BITMAP
C070
C070
C0F0
C0F0
C1B0
C1B0
C330
C730
C630
CE30
CC30
DC30
D830
F030
F030
E030
E030
ENDCHAR
STARTCHAR C026053
ENCODING 11307
SWIDTH 2400 0
DWIDTH 24 0
BBX 12 17 6 0
BITMAP
18C0
18C0
0F80
C070
C0F0
C0F0
C1B0
C3B0
C330
C630
CE30
CC30
D830
F830
F030
E030
E030
ENDCHAR
STARTCHAR C026054
ENCODING 11308
SWIDTH 2400 0
DWIDTH 24 0
BBX 11 17 7 0
BITMAP
C0E0
C1C0
C300
C300
C300
C600
C600
CC00
FE00
C300
C380
C180
C180
C180
C180
C180
C1C0
ENDCHAR
STARTCHAR C026055
ENCODING 11309
SWIDTH 2400 0
DWIDTH 24 0
BBX 13 17 5 0
BITMAP
1FF8
1818
1818
1818
1818
1818
1818
1818
1818
1818
1818
1818
1818
1818
1818
3018
F018
ENDCHAR
STARTCHAR C026056
ENCODING 11310
SWIDTH 2400 0
DWIDTH 24 0
BBX 15 17 5 0
BITMAP
E00E
F00E
F01E
F01E
F81E
D836
D836
DC76
CC66
CC66
CEC6
C6C6
C6C6
C786
C386
C386
C306
ENDCHAR
STARTCHAR C026057
ENCODING 11311
SWIDTH 2400 0
DWIDTH 24 0
BBX 12 17 6 0
BITMAP
C030
C030
C030
C030
C030
C030
C030
E030
FFF0
C030
C030
C030
C030
C030
C030
C030
C030
ENDCHAR
STARTCHAR C026060
ENCODING 11312
SWIDTH 2400 0
DWIDTH 24 0
BBX 14 17 5 0
BITMAP
0780
1CE0
3030
6018
6018
C01C
C00C
C00C
C00C
C00C
C00C
C00C
6018
6018
7030
3870
0FC0
ENDCHAR
STARTCHAR C026061
ENCODING 11313
SWIDTH 2400 0
DWIDTH 24 0
BBX 11 17 7 0
BITMAP
FFE0
E0E0
C060
C060
C060
C060
C060
C060
C060
C060
C060
C060
C060
C060
C060
C060
C060
ENDCHAR
STARTCHAR C026062
ENCODING 11314
SWIDTH 2400 0
DWIDTH 24 0
BBX 11 17 7 0
BITMAP
FF00
E3C0
C0E0
C060
C060
C060
C060
C0C0
FFC0
FE00
C000
C000
C000
C000
C000
C000
C000
ENDCHAR
STARTCHAR C026063
ENCODING 11315
SWIDTH 2400 0
DWIDTH 24 0
BBX 14 17 6 0
BITMAP
0FC0
1DE0
3030
6018
6018
C018
C000
C000
C000
C000
C000
C00C
C00C
601C
7018
3870
0FE0
ENDCHAR
STARTCHAR C026064
ENCODING 11316
SWIDTH 2400 0
DWIDTH 24 0
BBX 15 17 5 0
BITMAP
FFFE
0780
0300
0300
0300
0300
0300
0300
0300
0300
0300
0300
0300
0300
0300
0300
0300
ENDCHAR
STARTCHAR C026065
ENCODING 11317
SWIDTH 2400 0
DWIDTH 24 0
BBX 12 17 6 0
BITMAP
C030
E030
6070
6060
3060
30C0
38C0
1980
1D80
0F80
0F00
0700
0600
0600
0C00
1C00
7800
ENDCHAR
STARTCHAR C026066
ENCODING 11318
SWIDTH 2400 0
DWIDTH 24 0
BBX 16 17 4 0
BITMAP
0180
0180
1FF0
3DBC
718E
6186
C183
C183
C183
C183
C183
6186
6186
399C
0FF0
0180
0180
ENDCHAR
STARTCHAR C026067
ENCODING 11319
SWIDTH 2400 0
DWIDTH 24 0
BBX 12 18 6 -1
BITMAP
6030
6070
30E0
38C0
19C0
1D80
0F80
0F00
0700
0700
0F00
0F80
19C0
38C0
30E0
7060
6070
E000
ENDCHAR
STARTCHAR C026070
ENCODING 11320
SWIDTH 2400 0
DWIDTH 24 0
BBX 13 18 6 -1
BITMAP
C060
C060
C060
C060
C060
C060
C060
C060
C060
C060
C060
C060
C060
C060
FFF8
0018
0018
0018
ENDCHAR
STARTCHAR C026071
ENCODING 11321
SWIDTH 2400 0
DWIDTH 24 0
BBX 10 17 7 0
BITMAP
C0C0
C0C0
C0C0
C0C0
C0C0
C0C0
C0C0
C0C0
C1C0
63C0
3EC0
00C0
00C0
00C0
00C0
00C0
00C0
ENDCHAR
STARTCHAR C026072
ENCODING 11322
SWIDTH 2400 0
DWIDTH 24 0
BBX 15 17 5 0
BITMAP
C306
C306
C306
C306
C306
C306
C306
C306
C306
C306
C306
C306
C306
C306
C306
C306
FFFE
ENDCHAR
STARTCHAR C026073
ENCODING 11323
SWIDTH 2400 0
DWIDTH 24 0
BBX 17 18 4 -1
BITMAP
C30600
C30600
C30600
C30600
C30600
C30600
C30600
C30600
C30600
C30600
C30600
C30600
C30600
C30600
FFFF80
000180
000180
000180
ENDCHAR
STARTCHAR C026074
ENCODING 11324
SWIDTH 2400 0
DWIDTH 24 0
BBX 15 16 5 0
BITMAP
FC00
0C00
0C00
0C00
0C00
0C00
0FF0
0C1C
0C0C
0C06
0C06
0C06
0C06
0C0E
0C1C
0FF8
ENDCHAR
STARTCHAR C026075
ENCODING 11325
SWIDTH 2400 0
DWIDTH 24 0
BBX 13 17 6 0
BITMAP
C018
C018
C018
C018
C018
C018
C018
FE18
C718
C398
C198
C198
C198
C198
C398
C718
FE18
ENDCHAR
STARTCHAR C026076
ENCODING 11326
SWIDTH 2400 0
DWIDTH 24 0
BBX 11 17 7 0
BITMAP
C000
C000
C000
C000
C000
C000
C000
FF00
C1C0
C0E0
C060
C060
C060
C060
C0E0
C1C0
FF80
ENDCHAR
STARTCHAR C026077
ENCODING 11327
SWIDTH 2400 0
DWIDTH 24 0
BBX 14 17 5 0
BITMAP
0FC0
3DF0
7038
6018
C018
000C
000C
000C
0FFC
000C
000C
C00C
C018
E018
6038
3870
1FC0
ENDCHAR
STARTCHAR C026100
ENCODING 11328
SWIDTH 2400 0
DWIDTH 24 0
BBX 19 17 3 0
BITMAP
C03C00
C0E700
C18180
C300C0
C300C0
C60060
C60060
C60060
FE0060
C60060
C60060
C60060
C700C0
C300C0
C38180
C1C380
C07E00
ENDCHAR
STARTCHAR C026101
ENCODING 11329
SWIDTH 2400 0
DWIDTH 24 0
BBX 13 17 5 0
BITMAP
1FF8
3018
6018
6018
6018
6018
6018
3018
1FF8
3818
3018
3018
7018
6018
6018
6018
E018
ENDCHAR
STARTCHAR C026102
ENCODING 11330
SWIDTH 2400 0
DWIDTH 24 0
BBX 0 0 0 0
BITMAP
ENDCHAR
STARTCHAR C026103
ENCODING 11331
SWIDTH 2400 0
DWIDTH 24 0
BBX 0 0 0 0
BITMAP
ENDCHAR
STARTCHAR C026104
ENCODING 11332
SWIDTH 2400 0
DWIDTH 24 0
BBX 0 0 0 0
BITMAP
ENDCHAR
STARTCHAR C026105
ENCODING 11333
SWIDTH 2400 0
DWIDTH 24 0
BBX 0 0 0 0
BITMAP
ENDCHAR
STARTCHAR C026106
ENCODING 11334
SWIDTH 2400 0
DWIDTH 24 0
BBX 1 21 24 -4
BITMAP
80
00
00
00
00
00
00
80
00
00
00
00
80
00
00
00
00
00
00
00
80
ENDCHAR
STARTCHAR C026107
ENCODING 11335
SWIDTH 2400 0
DWIDTH 24 0
BBX 0 0 0 0
BITMAP
ENDCHAR
STARTCHAR C026110
ENCODING 11336
SWIDTH 2400 0
DWIDTH 24 0
BBX 0 0 0 0
BITMAP
ENDCHAR
STARTCHAR C026111
ENCODING 11337
SWIDTH 2400 0
DWIDTH 24 0
BBX 0 0 0 0
BITMAP
ENDCHAR
STARTCHAR C026112
ENCODING 11338
SWIDTH 2400 0
DWIDTH 24 0
BBX 0 0 0 0
BITMAP
ENDCHAR
STARTCHAR C026113
ENCODING 11339
SWIDTH 2400 0
DWIDTH 24 0
BBX 1 2 24 16
BITMAP
80
80
ENDCHAR
STARTCHAR C026114
ENCODING 11340
SWIDTH 2400 0
DWIDTH 24 0
BBX 0 0 0 0
BITMAP
ENDCHAR
STARTCHAR C026115
ENCODING 11341
SWIDTH 2400 0
DWIDTH 24 0
BBX 0 0 0 0
BITMAP
ENDCHAR
STARTCHAR C026116
ENCODING 11342
SWIDTH 2400 0
DWIDTH 24 0
BBX 0 0 0 0
BITMAP
ENDCHAR
STARTCHAR C026117
ENCODING 11343
SWIDTH 2400 0
DWIDTH 24 0
BBX 0 0 0 0
BITMAP
ENDCHAR
STARTCHAR C026120
ENCODING 11344
SWIDTH 2400 0
DWIDTH 24 0
BBX 0 0 0 0
BITMAP
ENDCHAR
STARTCHAR C026121
ENCODING 11345
SWIDTH 2400 0
DWIDTH 24 0
BBX 11 13 7 0
BITMAP
3E00
6300
6180
0180
0180
0380
7F80
E180
C180
C180
C380
EF80
7CE0
ENDCHAR
STARTCHAR C026122
ENCODING 11346
SWIDTH 2400 0
DWIDTH 24 0
BBX 12 18 7 0
BITMAP
0E30
1FF0
3800
7000
7000
E000
FF80
F0C0
F0C0
E060
E060
E060
E060
E060
6060
70C0
39C0
1F00
ENDCHAR
STARTCHAR C026123
ENCODING 11347
SWIDTH 2400 0
DWIDTH 24 0
BBX 8 13 8 0
BITMAP
FE
C7
C3
C3
C3
C6
FE
C7
C3
C3
C3
C7
FE
ENDCHAR
STARTCHAR C026124
ENCODING 11348
SWIDTH 2400 0
DWIDTH 24 0
BBX 7 13 9 0
BITMAP
FE
C0
C0
C0
C0
C0
C0
C0
C0
C0
C0
C0
C0
ENDCHAR
STARTCHAR C026125
ENCODING 11349
SWIDTH 2400 0
DWIDTH 24 0
BBX 13 14 6 -1
BITMAP
3FE0
3060
3060
3060
3060
3060
3060
3060
3060
6060
FFF8
C018
C018
C018
ENDCHAR
STARTCHAR C026126
ENCODING 11350
SWIDTH 2400 0
DWIDTH 24 0
BBX 10 13 7 0
BITMAP
1F00
7380
61C0
C0C0
C0C0
C0C0
FFC0
C000
C000
C0C0
61C0
7180
3F00
ENDCHAR
STARTCHAR C026127
ENCODING 11351
SWIDTH 2400 0
DWIDTH 24 0
BBX 10 16 7 0
BITMAP
3380
0000
0000
1F00
7180
7180
E0C0
E0C0
E0C0
FFC0
C000
C000
E000
61C0
7380
1F00
ENDCHAR
STARTCHAR C026130
ENCODING 11352
SWIDTH 2400 0
DWIDTH 24 0
BBX 14 13 6 0
BITMAP
C61C
E630
6670
6670
6660
3660
3FE0
F678
E638
E638
E638
E638
C618
ENDCHAR
STARTCHAR C026131
ENCODING 11353
SWIDTH 2400 0
DWIDTH 24 0
BBX 9 13 8 0
BITMAP
3E00
7300
E180
C180
0180
0300
1E00
0300
C180
C180
E180
7300
3E00
ENDCHAR
STARTCHAR C026132
ENCODING 11354
SWIDTH 2400 0
DWIDTH 24 0
BBX 9 13 8 -1
BITMAP
C180
C380
C380
C780
CD80
CD80
D980
D980
F180
E180
E180
C180
C000
ENDCHAR
STARTCHAR C026133
ENCODING 11355
SWIDTH 2400 0
DWIDTH 24 0
BBX 9 17 8 0
BITMAP
6300
6700
3E00
0000
C180
C380
C380
C780
C780
CD80
DD80
D980
F980
F180
E180
E180
C180
ENDCHAR
STARTCHAR C026134
ENCODING 11356
SWIDTH 2400 0
DWIDTH 24 0
BBX 9 14 8 -1
BITMAP
C380
C700
C600
C600
C600
CC00
FC00
C700
C300
C300
C300
C300
C300
0180
ENDCHAR
STARTCHAR C026135
ENCODING 11357
SWIDTH 2400 0
DWIDTH 24 0
BBX 10 12 7 0
BITMAP
7FC0
60C0
60C0
60C0
60C0
60C0
60C0
60C0
60C0
60C0
60C0
C0C0
ENDCHAR
STARTCHAR C026136
ENCODING 11358
SWIDTH 2400 0
DWIDTH 24 0
BBX 12 13 6 0
BITMAP
E070
F0F0
F0F0
F0F0
F9B0
D9B0
D9B0
DF30
CF30
CF30
CF30
C630
C630
ENDCHAR
STARTCHAR C026137
ENCODING 11359
SWIDTH 2400 0
DWIDTH 24 0
BBX 9 13 8 0
BITMAP
C000
C180
C180
C180
C180
C180
FF80
C180
C180
C180
C180
C180
C180
ENDCHAR
STARTCHAR C026140
ENCODING 11360
SWIDTH 2400 0
DWIDTH 24 0
BBX 10 13 7 0
BITMAP
1E00
7380
6180
C0C0
C0C0
C0C0
C0C0
C0C0
C0C0
C0C0
6180
7380
1E00
ENDCHAR
STARTCHAR C026141
ENCODING 11361
SWIDTH 2400 0
DWIDTH 24 0
BBX 9 13 8 0
BITMAP
FF80
C180
C180
C180
C180
C180
C180
C180
C180
C180
C180
C180
C180
ENDCHAR
STARTCHAR C026142
ENCODING 11362
SWIDTH 2400 0
DWIDTH 24 0
BBX 11 14 7 -1
BITMAP
DF00
F9C0
F0C0
E060
E060
E060
E060
E060
E060
F0C0
F9C0
DF00
C000
C000
ENDCHAR
STARTCHAR C026143
ENCODING 11363
SWIDTH 2400 0
DWIDTH 24 0
BBX 10 13 7 0
BITMAP
1F00
7380
61C0
C1C0
C000
C000
C000
C000
C000
C1C0
6180
7380
3F00
ENDCHAR
STARTCHAR C026144
ENCODING 11364
SWIDTH 2400 0
DWIDTH 24 0
BBX 10 13 7 0
BITMAP
FFC0
0C00
0C00
0C00
0C00
0C00
0C00
0C00
0C00
0C00
0C00
0C00
0C00
ENDCHAR
STARTCHAR C026145
ENCODING 11365
SWIDTH 2400 0
DWIDTH 24 0
BBX 9 13 8 -1
BITMAP
C180
C300
E300
6700
7600
3600
3C00
3C00
1C00
1800
1800
3000
F000
ENDCHAR
STARTCHAR C026146
ENCODING 11366
SWIDTH 2400 0
DWIDTH 24 0
BBX 17 18 4 -1
BITMAP
018000
018000
018000
018000
3FBE00
63E300
E3C300
C18180
C18180
C18180
C18180
C18180
E3C300
63E300
3FBE00
018000
018000
018000
ENDCHAR
STARTCHAR C026147
ENCODING 11367
SWIDTH 2400 0
DWIDTH 24 0
BBX 10 13 7 0
BITMAP
6180
6180
3300
3300
1E00
1E00
0C00
1E00
3F00
3300
6180
6180
C0C0
ENDCHAR
STARTCHAR C026150
ENCODING 11368
SWIDTH 2400 0
DWIDTH 24 0
BBX 11 14 7 -1
BITMAP
C180
C180
C180
C180
C180
C180
C180
C180
C180
C180
FFE0
0060
0060
0060
ENDCHAR
STARTCHAR C026151
ENCODING 11369
SWIDTH 2400 0
DWIDTH 24 0
BBX 8 13 8 0
BITMAP
C3
C3
C3
C3
C3
C3
C3
E7
7F
03
03
03
03
ENDCHAR
STARTCHAR C026152
ENCODING 11370
SWIDTH 2400 0
DWIDTH 24 0
BBX 12 13 6 0
BITMAP
C630
C630
C630
C630
C630
C630
C630
C630
C630
C630
C630
C630
FFF0
ENDCHAR
STARTCHAR C026153
ENCODING 11371
SWIDTH 2400 0
DWIDTH 24 0
BBX 14 14 5 -1
BITMAP
C330
C330
C330
C330
C330
C330
C330
C330
C330
C330
FFFC
000C
000C
000C
ENDCHAR
STARTCHAR C026154
ENCODING 11372
SWIDTH 2400 0
DWIDTH 24 0
BBX 11 13 7 0
BITMAP
F000
F000
3000
3000
3000
3F80
30C0
3060
3060
3060
3060
30C0
3F80
ENDCHAR
STARTCHAR C026155
ENCODING 11373
SWIDTH 2400 0
DWIDTH 24 0
BBX 11 13 7 0
BITMAP
C060
C060
C060
C060
C060
F860
CC60
C660
C660
C660
C660
CC60
F860
ENDCHAR
STARTCHAR C026156
ENCODING 11374
SWIDTH 2400 0
DWIDTH 24 0
BBX 8 13 8 0
BITMAP
C0
C0
C0
C0
C0
FE
C6
C3
C3
C3
C3
C6
FC
ENDCHAR
STARTCHAR C026157
ENCODING 11375
SWIDTH 2400 0
DWIDTH 24 0
BBX 10 13 7 0
BITMAP
3E00
7380
E180
C0C0
00C0
00C0
1FC0
00C0
00C0
C0C0
E180
7380
3E00
ENDCHAR
STARTCHAR C026160
ENCODING 11376
SWIDTH 2400 0
DWIDTH 24 0
BBX 15 13 5 0
BITMAP
C1F0
C318
C60C
CC0E
CC06
CC06
FC06
CC06
CC06
CE0E
C60C
C318
C1F0
ENDCHAR
STARTCHAR C026161
ENCODING 11377
SWIDTH 2400 0
DWIDTH 24 0
BBX 8 13 8 0
BITMAP
7F
E3
C3
C3
C3
63
3F
63
C3
C3
C3
C3
C3
ENDCHAR
STARTCHAR C026162
ENCODING 11378
SWIDTH 2400 0
DWIDTH 24 0
BBX 0 0 0 0
BITMAP
ENDCHAR
STARTCHAR C026163
ENCODING 11379
SWIDTH 2400 0
DWIDTH 24 0
BBX 1 21 24 -4
BITMAP
80
00
00
00
00
00
00
80
00
00
00
00
80
00
00
00
00
00
00
00
80
ENDCHAR
STARTCHAR C026164
ENCODING 11380
SWIDTH 2400 0
DWIDTH 24 0
BBX 0 0 0 0
BITMAP
ENDCHAR
STARTCHAR C026165
ENCODING 11381
SWIDTH 2400 0
DWIDTH 24 0
BBX 0 0 0 0
BITMAP
ENDCHAR
STARTCHAR C026166
ENCODING 11382
SWIDTH 2400 0
DWIDTH 24 0
BBX 0 0 0 0
BITMAP
ENDCHAR
STARTCHAR C026167
ENCODING 11383
SWIDTH 2400 0
DWIDTH 24 0
BBX 0 0 0 0
BITMAP
ENDCHAR
STARTCHAR C026170
ENCODING 11384
SWIDTH 2400 0
DWIDTH 24 0
BBX 1 2 24 16
BITMAP
80
80
ENDCHAR
STARTCHAR C026171
ENCODING 11385
SWIDTH 2400 0
DWIDTH 24 0
BBX 0 0 0 0
BITMAP
ENDCHAR
STARTCHAR C026172
ENCODING 11386
SWIDTH 2400 0
DWIDTH 24 0
BBX 0 0 0 0
BITMAP
ENDCHAR
STARTCHAR C026173
ENCODING 11387
SWIDTH 2400 0
DWIDTH 24 0
BBX 0 0 0 0
BITMAP
ENDCHAR
STARTCHAR C026174
ENCODING 11388
SWIDTH 2400 0
DWIDTH 24 0
BBX 0 0 0 0
BITMAP
ENDCHAR
STARTCHAR C026175
ENCODING 11389
SWIDTH 2400 0
DWIDTH 24 0
BBX 0 0 0 0
BITMAP
ENDCHAR
ENDFONT
